<?xml version="1.0" encoding="UTF-8" standalone="no"?><!DOCTYPE svg PUBLIC "-//W3C//DTD SVG 1.1//EN" "http://www.w3.org/Graphics/SVG/1.1/DTD/svg11.dtd"><svg width="100%" height="100%" viewBox="0 0 256 257" version="1.1" xmlns="http://www.w3.org/2000/svg" xmlns:xlink="http://www.w3.org/1999/xlink" xml:space="preserve" xmlns:serif="http://www.serif.com/" style="fill-rule:evenodd;clip-rule:evenodd;stroke-linejoin:round;stroke-miterlimit:2;"><g transform="matrix(1,0,0,1,0,-1959)"><g id="cards" transform="matrix(1,0,0,1,8.52651e-14,1959.79)"><rect x="0" y="0" width="256" height="256" style="fill:none;"/><g transform="matrix(0.2696,0,0,0.2696,20.16,13.42)"><path d="M537.5,672.386l0,40.114c-0,20.711 -16.789,37.5 -37.5,37.5l-412.5,0c-20.711,0 -37.5,-16.789 -37.5,-37.5l0,-575c0,-20.711 16.789,-37.5 37.5,-37.5l412.5,0c20.711,-0 37.5,16.789 37.5,37.5l0,26.202l190.967,89.867c9.445,4.445 16.61,12.625 19.772,22.573c3.161,9.949 2.033,20.764 -3.113,29.846l-207.626,366.398Zm-75,-485.487l-0,-11.899l-337.5,0l-0,500l337.5,-0l-0,-12.281c-0.001,-0.177 -0.001,-0.354 -0,-0.531l-0,-474.165c-0.003,-0.374 -0.003,-0.749 -0,-1.124Zm75,333.362l122.431,-216.055l-122.431,-57.614l0,273.669Z" style=""/></g></g></g></svg>