<?xml version="1.0" encoding="UTF-8" standalone="no"?><!DOCTYPE svg PUBLIC "-//W3C//DTD SVG 1.1//EN" "http://www.w3.org/Graphics/SVG/1.1/DTD/svg11.dtd"><svg width="100%" height="100%" viewBox="0 0 256 257" version="1.1" xmlns="http://www.w3.org/2000/svg" xmlns:xlink="http://www.w3.org/1999/xlink" xml:space="preserve" xmlns:serif="http://www.serif.com/" style="fill-rule:evenodd;clip-rule:evenodd;stroke-linejoin:round;stroke-miterlimit:2;"><g transform="matrix(1,0,0,1,0,-273)"><g id="combat" transform="matrix(1,0,0,1,0,273.772)"><rect x="0" y="0" width="256" height="256" style="fill:none;"/><g transform="matrix(0.278987,0,0,0.278987,16.4055,16.4053)"><path d="M742.846,695.591l-95.622,-95.622c31.651,-37.609 54.579,-79.216 57.972,-113.929c1.796,-18.38 -11.647,-34.736 -30.027,-36.534c-18.379,-1.798 -34.735,11.648 -36.533,30.027c-0.43,4.398 -1.521,9.126 -3.166,14.091l-93.599,-93.592l200.962,-200.992c3.668,-3.669 6.433,-8.141 8.074,-13.061l47.316,-141.845c8.719,-26.142 -16.15,-51.017 -42.293,-42.305l-141.878,47.283c-4.925,1.641 -9.401,4.408 -13.072,8.078l-200.979,200.981l-200.983,-200.968c-3.669,-3.669 -8.142,-6.434 -13.064,-8.075l-141.88,-47.316c-26.143,-8.718 -51.018,16.157 -42.298,42.3l47.316,141.878c1.641,4.923 4.406,9.395 8.075,13.064l200.967,200.983l-94.016,94.015c-1.484,-4.716 -2.401,-9.175 -2.652,-13.287c-1.117,-18.433 -16.969,-32.47 -35.402,-31.351c-18.432,1.119 -32.47,16.969 -31.351,35.401c1.517,24.998 13.981,53.932 33.003,82.458c0.198,0.313 0.372,0.638 0.582,0.946c0.718,1.062 1.477,2.12 2.212,3.178c0.004,0.006 0.009,0.012 0.012,0.018c1.273,1.834 2.56,3.665 3.884,5.493c1.16,1.608 2.339,3.213 3.536,4.815c0.329,0.44 0.659,0.879 0.993,1.318c4.341,5.752 8.92,11.451 13.7,17.066l-95.479,95.482c-13.058,-13.056 -34.229,-13.056 -47.288,0.002c-13.058,13.058 -13.058,34.231 0,47.289l23.411,23.411c0.077,0.078 0.143,0.166 0.221,0.245c0.079,0.078 0.165,0.142 0.245,0.221l23.408,23.407c13.058,13.059 34.231,13.059 47.289,0c13.056,-13.056 13.058,-34.224 0.005,-47.282l95.622,-95.622c37.61,31.651 79.217,54.58 113.931,57.974c18.379,1.796 34.735,-11.648 36.533,-30.027c1.796,-18.38 -11.647,-34.736 -30.027,-36.534c-4.401,-0.429 -9.132,-1.522 -14.102,-3.169l93.583,-93.605l94.02,94.027c-4.71,1.481 -9.165,2.396 -13.272,2.645c-18.432,1.118 -32.47,16.969 -31.351,35.402c1.119,18.433 16.969,32.471 35.402,31.352c25.061,-1.521 54.079,-14.047 82.675,-33.151c0.224,-0.144 0.457,-0.267 0.68,-0.417c0.831,-0.561 1.658,-1.157 2.488,-1.729c0.837,-0.574 1.674,-1.158 2.509,-1.745c0.886,-0.622 1.771,-1.23 2.655,-1.865c2.038,-1.456 4.068,-2.953 6.096,-4.47c0.327,-0.246 0.653,-0.491 0.981,-0.738c5.801,-4.373 11.55,-8.989 17.212,-13.811l95.481,95.481c-13.058,13.058 -13.058,34.231 -0,47.289c13.058,13.058 34.231,13.058 47.289,0l23.445,-23.445c0.068,-0.066 0.141,-0.121 0.209,-0.188c0.067,-0.068 0.122,-0.141 0.188,-0.209l23.439,-23.439c13.058,-13.058 13.058,-34.231 0,-47.289c-13.061,-13.057 -34.228,-13.06 -47.287,-0.008Zm-100.159,-585.528l70.931,-23.639l-23.654,70.91l-195.382,195.412l-47.291,-47.287l195.396,-195.396Zm-556.305,-23.643l70.929,23.654l218.757,218.741c0.097,0.1 0.179,0.208 0.277,0.307l94.597,94.564c0.01,0.009 0.019,0.017 0.028,0.025l128.728,128.718c-7.209,8.906 -15.046,17.62 -23.303,25.877c-7.732,7.732 -15.704,14.965 -23.803,21.63l-128.875,-128.884c-0.031,-0.031 -0.056,-0.066 -0.087,-0.097l-94.564,-94.564c-0.01,-0.01 -0.019,-0.016 -0.027,-0.025l-219.003,-219.017l-23.654,-70.929Zm161.214,513.311c-6.613,-5.353 -13.14,-11.071 -19.467,-17.06c-0.033,-0.031 -0.066,-0.063 -0.099,-0.096c-1.784,-1.689 -3.544,-3.41 -5.293,-5.142c-0.533,-0.527 -1.063,-1.055 -1.591,-1.585c-7.563,-7.636 -14.568,-15.362 -21.034,-23.212l105.309,-105.309l47.275,47.28l-105.1,105.124Z" style="fill-rule:nonzero;"/></g></g></g></svg>