<?xml version="1.0" encoding="UTF-8" standalone="no"?><!DOCTYPE svg PUBLIC "-//W3C//DTD SVG 1.1//EN" "http://www.w3.org/Graphics/SVG/1.1/DTD/svg11.dtd"><svg width="100%" height="100%" viewBox="0 0 256 257" version="1.1" xmlns="http://www.w3.org/2000/svg" xmlns:xlink="http://www.w3.org/1999/xlink" xml:space="preserve" xmlns:serif="http://www.serif.com/" style="fill-rule:evenodd;clip-rule:evenodd;stroke-linejoin:round;stroke-miterlimit:2;"><g transform="matrix(1,0,0,1,0,-1105)"><g id="items" transform="matrix(1,0,0,1,5.68434e-14,1105.48)"><rect x="0" y="0" width="256" height="256" style="fill:none;"/><g transform="matrix(0.283798,0,0,0.283798,14.4808,14.4809)"><path d="M697.633,54.267c-5.06,-12.627 -17.364,-20.944 -30.966,-20.934l-533.334,0c-13.602,-0.01 -25.906,8.307 -30.966,20.934l-66.667,166.666c-1.562,3.948 -2.365,8.155 -2.367,12.4l0,500c0,18.286 15.048,33.334 33.334,33.334l666.666,-0c18.286,-0 33.334,-15.048 33.334,-33.334l-0,-500c-0.002,-4.245 -0.805,-8.452 -2.367,-12.4l-66.667,-166.666Zm-541.733,45.733l488.2,0l40,100l-568.2,0l40,-100Zm-55.9,600l-0,-433.333l600,-0l-0,433.333l-600,0Zm266.667,-100c-0,18.286 -15.048,33.333 -33.334,33.333l-133.333,0c-18.286,0 -33.333,-15.047 -33.333,-33.333c-0,-18.286 15.047,-33.333 33.333,-33.333l133.333,-0c18.286,-0 33.334,15.047 33.334,33.333Z" style="fill-rule:nonzero;"/></g></g></g></svg>