<?xml version="1.0" encoding="UTF-8" standalone="no"?><!DOCTYPE svg PUBLIC "-//W3C//DTD SVG 1.1//EN" "http://www.w3.org/Graphics/SVG/1.1/DTD/svg11.dtd"><svg width="100%" height="100%" viewBox="0 0 256 257" version="1.1" xmlns="http://www.w3.org/2000/svg" xmlns:xlink="http://www.w3.org/1999/xlink" xml:space="preserve" xmlns:serif="http://www.serif.com/" style="fill-rule:evenodd;clip-rule:evenodd;stroke-linejoin:round;stroke-miterlimit:2;"><g transform="matrix(1,0,0,1,0,-1389)"><g id="journals" transform="matrix(1,0,0,1,8.52651e-14,1389.65)"><rect x="0" y="0" width="256" height="256" style="fill:none;"/><g transform="matrix(0.251543,0,0,0.251543,27.3827,27.3827)"><path d="M700,0l-600,0c-0.009,-0 -0.019,-0 -0.028,-0c-27.414,-0 -49.972,22.558 -49.972,49.972c-0,0.009 -0,0.019 0,0.028l0,700c-0,0.009 -0,0.019 -0,0.028c-0,27.414 22.558,49.972 49.972,49.972c0.009,0 0.019,0 0.028,0l600,0c0.009,0 0.019,0 0.028,0c27.414,0 49.972,-22.558 49.972,-49.972c0,-0.009 0,-0.019 0,-0.028l0,-700c0,-0.009 0,-0.019 0,-0.028c0,-27.414 -22.558,-49.972 -49.972,-49.972c-0.009,-0 -0.019,-0 -0.028,0Zm-50,700l-500,0l0,-600l500,0l0,600Z" style="fill-rule:nonzero;"/><path d="M300,300l200,0c27.429,0 50,-22.571 50,-50c0,-27.429 -22.571,-50 -50,-50l-200,0c-27.429,0 -50,22.571 -50,50c0,27.429 22.571,50 50,50Z" style="fill-rule:nonzero;"/><path d="M300,500l200,0c27.429,0 50,-22.571 50,-50c0,-27.429 -22.571,-50 -50,-50l-200,0c-27.429,0 -50,22.571 -50,50c0,27.429 22.571,50 50,50Z" style="fill-rule:nonzero;"/></g></g></g></svg>