<?xml version="1.0" encoding="UTF-8" standalone="no"?><!DOCTYPE svg PUBLIC "-//W3C//DTD SVG 1.1//EN" "http://www.w3.org/Graphics/SVG/1.1/DTD/svg11.dtd"><svg width="100%" height="100%" viewBox="0 0 256 257" version="1.1" xmlns="http://www.w3.org/2000/svg" xmlns:xlink="http://www.w3.org/1999/xlink" xml:space="preserve" xmlns:serif="http://www.serif.com/" style="fill-rule:evenodd;clip-rule:evenodd;stroke-linejoin:round;stroke-miterlimit:2;"><g transform="matrix(1,0,0,1,0,-547)"><g id="scenes" transform="matrix(1,0,0,1,0,547.544)"><rect x="0" y="0" width="256" height="256" style="fill:none;"/><g transform="matrix(7.06081,0,0,7.06081,20.4119,14.9792)"><path d="M1.698,15.499c-0.001,-0.002 -0.001,-0.004 -0.002,-0.006l-1.4,-3.7c-0.002,-0.005 -0.004,-0.011 -0.006,-0.016c-0.671,-1.846 0.315,-3.701 1.992,-4.372c0.013,-0.005 0.025,-0.009 0.037,-0.014l20.7,-7.6c0.027,-0.01 0.053,-0.018 0.08,-0.027c1.696,-0.508 3.687,0.408 4.222,2.088l1.387,3.766c0.128,0.348 0.113,0.732 -0.043,1.068c-0.156,0.337 -0.439,0.597 -0.787,0.724l-19.728,7.196l20.85,-0c0.77,-0 1.394,0.624 1.394,1.394l0,13c0,1.867 -1.527,3.394 -3.394,3.394l-22,0c-1.867,0 -3.394,-1.527 -3.394,-3.394l-0,-13c-0,-0.176 0.032,-0.345 0.092,-0.501Zm25.908,13.501l-0,-11.606c-0,0 -23.212,0 -23.212,0l0,11.606c0,0.333 0.273,0.606 0.606,0.606l22,-0c0.333,-0 0.606,-0.273 0.606,-0.606Zm-3.673,-26.573l-0.002,-0c0,-0 -20.627,7.573 -20.629,7.574c-0.312,0.133 -0.516,0.469 -0.394,0.816c0,0 0.909,2.401 0.909,2.401l21.791,-7.949l-0.916,-2.487c-0.01,-0.027 -0.019,-0.054 -0.028,-0.081c-0.084,-0.281 -0.444,-0.348 -0.731,-0.274Z" style=""/></g></g></g></svg>