<?xml version="1.0" encoding="UTF-8" standalone="no"?><!DOCTYPE svg PUBLIC "-//W3C//DTD SVG 1.1//EN" "http://www.w3.org/Graphics/SVG/1.1/DTD/svg11.dtd"><svg width="100%" height="100%" viewBox="0 0 256 257" version="1.1" xmlns="http://www.w3.org/2000/svg" xmlns:xlink="http://www.w3.org/1999/xlink" xml:space="preserve" xmlns:serif="http://www.serif.com/" style="fill-rule:evenodd;clip-rule:evenodd;stroke-linejoin:round;stroke-miterlimit:2;"><g transform="matrix(1,0,0,1,0,-1691)"><g id="tables" transform="matrix(1,0,0,1,8.52651e-14,1691.84)"><rect x="0" y="0" width="256" height="256" style="fill:none;"/><g transform="matrix(0.251434,0,0,0.251434,27.4263,27.3425)"><path d="M16.333,784l0,-767.333l767.334,-0l-0,287.666l-0.334,0l0,479.667l-767,-0Zm703.334,-543.667c-0,0 -0,-159.666 -0,-159.666l-511.667,-0l-127.667,-0l0,159.666l479.334,0l160,0Zm-0.334,159.667l0,-95.667l-159.666,0l-0,95.667l159.666,-0Zm0,160l0,-95.667l-159.666,0l-0,95.667l159.666,0Zm0,64l-159.666,-0l-0,96l159.666,0l0,-96Zm-223.666,96l-0,-96l-191.667,-0l-0,96l191.667,0Zm-255.667,0l0,-96l-159.667,-0l0,96l159.667,0Zm-159.667,-160l159.667,0l0,-95.667l-159.667,0l0,95.667Zm0,-255.667l0,95.667l159.667,-0l0,-95.667l-159.667,0Zm415.334,0l-191.667,0l-0,95.667l191.667,-0l-0,-95.667Zm-0,255.667l-0,-95.667l-191.667,0l-0,95.667l191.667,0Z" style=""/></g></g></g></svg>