<?xml version="1.0" encoding="UTF-8" standalone="no"?>
<svg
   width="800"
   height="800"
   viewBox="0 0 512 512"
   version="1.1"
   id="svg1"
   sodipodi:docname="equipped-marauder-frame.svg"
   xml:space="preserve"
   inkscape:version="1.3.2 (091e20e, 2023-11-25, custom)"
   inkscape:export-filename="gusev.png"
   inkscape:export-xdpi="96"
   inkscape:export-ydpi="96"
   xmlns:inkscape="http://www.inkscape.org/namespaces/inkscape"
   xmlns:sodipodi="http://sodipodi.sourceforge.net/DTD/sodipodi-0.dtd"
   xmlns="http://www.w3.org/2000/svg"
   xmlns:svg="http://www.w3.org/2000/svg"><path
     id="path3"
     style="display:inline;fill:#000000;fill-opacity:1;stroke:none"
     d="M 12.23125 0 C 5.4551968 0 0 5.4551968 0 12.23125 L 0 148.8825 C 0 155.65855 5.4551968 161.11375 12.23125 161.11375 C 19.007303 161.11375 24.4625 155.65855 24.4625 148.8825 L 24.4625 24.70875 L 148.96 24.70875 C 155.73605 24.70875 161.19125 19.253553 161.19125 12.4775 C 161.19125 5.7014468 155.73605 0.24625 148.96 0.24625 L 14.6925 0.24625 C 13.897511 0.084990161 13.075219 0 12.23125 0 z M 499.76875 0 C 498.92478 0 498.10249 0.084990161 497.3075 0.24625 L 363.04 0.24625 C 356.26395 0.24625 350.80875 5.7014468 350.80875 12.4775 C 350.80875 19.253553 356.26395 24.70875 363.04 24.70875 L 487.5375 24.70875 L 487.5375 148.8825 C 487.5375 155.65855 492.9927 161.11375 499.76875 161.11375 C 506.5448 161.11375 512 155.65855 512 148.8825 L 512 12.23125 C 512 5.4551968 506.5448 2.2711768e-16 499.76875 0 z M 256.655 33.03125 C 252.19751 32.88224 248.34431 33.35547 243.69 34.40375 C 241.11364 34.984022 238.00137 35.794498 234.60875 36.75375 C 233.28423 37.09854 231.96247 37.446129 230.61875 37.77125 C 209.87717 43.648182 192.2272 51.218882 177.54 60.41375 C 173.69111 62.763744 170.03238 65.12863 167.00375 67.405 C 162.15329 71.050663 153.80982 78.576846 151.31 81.56125 C 149.94729 83.188116 150.00999 83.165574 154.07 80.585 C 155.8224 79.471152 158.07059 78.229733 160.14875 77.03 C 176.73814 67.877868 193.42296 60.048357 210.22 53.76875 C 221.2926 49.7881 235.89239 45.210899 236.9675 45.515 C 236.99322 45.552923 236.92975 45.619855 236.87625 45.68375 C 236.71111 45.867962 236.49604 46.082576 235.81625 46.35375 C 234.91198 46.714467 229.77629 49.198576 224.40375 51.87375 C 223.19528 52.475486 221.96599 53.156994 220.74875 53.785 C 202.14314 63.216444 189.51898 71.390652 179.44375 79.03 C 170.66568 85.336756 163.46346 91.310076 158.93125 96.205 C 158.42621 96.65112 157.91934 97.097251 157.4125 97.54375 C 156.78345 98.352557 156.45391 98.874396 156.2525 99.275 C 155.79225 99.936575 155.69337 100.31045 156.40625 100.12125 C 157.02929 100.06434 158.27773 99.410376 159.165 99.10125 C 159.96091 98.672132 160.77737 98.216395 161.575 97.78375 C 162.66781 97.24623 163.54805 96.823571 165.0425 96.075 C 169.17527 94.004889 174.81106 91.008473 177.56625 89.41625 C 184.08918 85.646609 189.8451 82.48246 195.38125 79.52375 C 205.37178 74.331901 215.54482 69.396792 225.97625 65.16625 C 232.79605 62.528063 239.47988 60.320418 246.56125 58.3875 C 264.35786 53.529761 276.31269 51.837829 292.7225 51.85375 C 294.95729 51.855919 296.79657 51.956865 298.76 52.02375 C 308.34993 52.776485 318.18443 54.616068 328.2975 57.79 C 330.56617 58.615492 332.86955 59.451544 333.35875 59.62375 C 335.52914 60.387755 328.81386 56.182188 323.47875 53.43625 C 320.82643 52.071124 318.13691 50.869224 315.45625 49.62625 C 314.85578 49.336969 314.25048 49.049323 313.64 48.76375 C 312.26656 48.142494 310.90055 47.510799 309.5225 46.9225 C 302.60143 43.899615 295.04896 41.110197 286.5175 38.68375 C 285.91779 38.511404 285.3226 38.35172 284.72375 38.18625 C 281.16169 37.208779 277.45745 36.284548 273.55 35.435 C 268.04071 34.062074 263.24428 33.419376 258.905 33.245 C 258.18575 33.1925 257.34052 33.054166 256.655 33.03125 z M 299.045 58.14125 C 290.16796 58.10919 288.63574 58.237291 282.2625 59.545 C 280.18061 59.972175 278.01871 60.543125 275.88375 61.065 C 267.07562 62.914568 257.73625 65.804849 247.88125 69.97 C 239.08961 73.388799 230.02064 77.486399 220.7875 82.125 C 207.41486 88.358974 192.89955 95.911311 179.41375 106.2075 L 179.515 106.22375 C 179.3099 106.43796 179.27427 106.56802 179.35625 106.65 C 179.47415 106.7679 182.38878 107.13403 185.8325 107.4625 C 189.27622 107.79096 192.18771 108.14748 192.3025 108.255 C 192.80886 108.72924 195.55794 108.13349 199.78375 106.91 C 199.80706 106.90229 199.83299 106.8965 199.85625 106.88875 C 200.19587 106.78339 200.47881 106.6883 200.81375 106.58375 C 203.53467 105.77347 206.08688 105.02683 210.69625 103.46 C 228.32614 97.467233 231.87003 96.419901 248.7 92.2325 C 259.79571 89.471825 267.91263 87.878078 276 86.61625 C 282.16852 85.840905 287.98547 85.313186 293.505 84.99 C 307.52377 84.690326 328.46509 85.288252 341.37375 86.56375 C 356.94442 88.102281 370.62533 89.134677 370.96375 88.79625 C 371.14611 88.61389 369.87073 87.283113 368.10625 85.59125 C 364.76885 81.838547 360.02008 77.627264 353.9675 73.65375 C 353.50487 73.318621 352.83975 72.767477 352.46 72.5175 C 348.45768 69.88293 343.02045 67.291622 337.34875 65.10875 C 336.77585 64.884778 336.19934 64.664449 335.61375 64.44875 C 334.52012 64.050134 333.45527 63.664965 332.35875 63.3075 C 330.86582 62.81853 329.3257 62.36716 327.7575 61.93875 C 327.37488 61.836138 326.97499 61.68809 326.59625 61.5925 C 326.11013 61.469809 325.69592 61.396327 325.2225 61.28125 C 324.39208 61.078222 323.54398 60.893062 322.69375 60.70875 C 314.67211 58.913868 308.02539 58.173682 299.045 58.14125 z M 134.50125 90.35125 C 133.18037 92.044196 131.79031 93.692539 130.43625 95.36375 C 127.26369 99.09349 125.03954 102.6635 123.8275 106.14875 C 122.78332 109.15128 122.6342 110.33349 122.8175 114.19375 C 122.95091 117.00316 123.29448 118.4568 123.93625 120.08125 C 124.10288 120.72073 124.25714 121.35273 124.47 122.0225 C 124.76117 122.4093 125.10802 122.81897 125.41375 123.2125 C 126.45811 125.04189 127.91451 127.2041 129.0525 128.47125 C 130.82046 130.43989 133.46774 132.74682 136.40625 135.12625 C 142.95276 141.13736 151.06116 146.92216 160.92625 151.13375 C 162.33749 151.96719 163.2501 152.60106 163.28375 152.8475 C 162.96674 152.87296 162.24203 152.73627 161.39625 152.5625 C 160.57173 152.28936 159.63602 151.95671 158.25875 151.36125 C 156.27582 150.50394 154.16517 149.40179 152.015 148.16125 C 151.84171 148.05927 151.66127 147.9682 151.48875 147.865 C 149.82685 146.88849 148.13527 145.74598 146.45 144.59625 C 140.05905 140.16222 134.13548 134.90552 128.34 129.05125 C 127.67356 128.32548 127.09649 127.92515 126.615 127.8775 C 126.51237 127.85739 126.40839 127.87796 126.3175 127.89125 C 126.26693 127.90651 126.21232 127.9078 126.165 127.935 C 126.05676 127.97091 125.9435 127.9624 125.83125 128.0325 C 125.57493 128.19258 125.38872 128.19618 125.185 128.25 L 123.44375 127.70875 C 123.21996 127.60918 122.99669 127.51118 122.77375 127.41375 C 121.92136 126.94045 121.34604 126.83053 121.065 127.295 C 120.80893 127.5221 120.63115 127.9456 120.6 128.735 C 120.71452 129.32404 120.74982 129.94613 120.78375 130.56875 C 120.7905 130.75515 120.77829 130.84218 120.7875 131.045 C 120.96614 134.97882 120.91036 135.53441 127.065 139.29 C 132.51983 142.91065 137.59843 145.79814 142.425 148.2525 C 148.87824 151.76299 153.77154 153.85036 160.275 155.7375 C 167.32767 158.05246 173.63479 159.45122 179.27 160.57125 C 184.57603 161.62585 189.38691 162.52325 193.9975 163.34375 C 203.84875 165.21783 214.18391 166.94051 226.0225 168.64 L 233.9025 169.77125 L 235.41125 168.325 L 236.92 166.88 L 246.06625 168.21875 C 254.99129 169.52518 261.44393 170.18311 271.86875 170.84875 C 273.3492 170.94328 273.62091 171.01412 274.56 171.10625 L 276.9 171.38375 C 276.93417 171.36866 276.96833 171.35748 277.0025 171.3425 C 277.00234 171.40661 276.76134 172.42581 276.675 172.86875 L 274.68375 180.3075 C 273.68887 180.849 270.78141 181.16706 261.22375 182.0825 C 258.90242 182.30484 256.69261 182.45333 254.47875 182.60125 C 247.74809 182.80009 240.84795 182.682 233.77 182.25 C 221.58392 181.50621 208.85112 179.80233 195.57 177.22375 C 191.35803 176.34899 186.89613 175.3768 182.075 174.28125 C 171.43277 171.8629 151.87486 166.90843 147.38375 165.4925 C 146.82308 165.31574 146.49985 165.15741 146.25875 164.9475 C 146.13984 164.78078 146.03199 164.60052 145.9525 164.38875 C 145.81791 163.99318 145.77485 163.41334 145.7725 162.41125 C 145.80319 162.07632 145.84657 161.72752 145.92875 161.33375 C 145.8093 160.92951 145.72201 160.52925 145.61375 160.12625 C 145.5206 159.40681 145.39472 158.80508 145.2475 158.53 C 144.19926 156.57134 138.72869 153.74751 134.94375 152.90125 L 133.855 152.3825 C 133.39393 152.35138 132.97757 152.42461 132.59375 152.57375 C 131.2264 152.64143 130.99063 153.2497 130.50125 157.42375 L 129.49875 161.68875 C 129.49088 161.69219 129.48134 161.71036 129.47375 161.71125 L 129.25625 160.84125 C 129.25432 160.77696 129.24069 160.78777 129.24 160.71625 C 129.2361 160.31013 129.1408 159.9554 128.94125 159.58 L 128.85875 159.25125 L 128.47 158.95875 C 127.70608 158.06479 126.19796 156.84021 122.87 154.3225 C 120.21741 152.31573 118.25966 151.02561 117.1825 150.4475 L 116.16 149.67625 C 115.83896 150.80436 115.54623 151.96083 115.26875 153.1325 C 114.51329 156.09709 113.6202 160.27786 113.2 163.55375 C 112.9717 165.33353 112.72636 169.18155 112.515 172.62875 C 112.4612 173.3838 112.39015 174.12129 112.345 174.885 C 112.33396 175.1063 112.30874 175.27913 112.29875 175.495 L 111.9425 183.1775 L 112.00375 183.20875 C 112.00227 183.27362 111.99768 183.33508 111.99625 183.4 C 112.68917 183.70131 113.39002 183.97862 114.085 184.27375 L 118.20375 186.38 C 121.64774 188.14134 124.8997 189.58697 125.43 189.5925 C 125.96029 189.5985 129.79274 190.71363 133.94625 192.07125 C 138.50031 193.55979 143.91484 195.08891 149.5225 196.58 C 155.96438 198.36661 162.46794 199.96892 169.0375 201.3725 C 169.79844 201.49964 170.53995 201.60303 171.29875 201.7275 C 173.58198 202.19826 175.92108 202.7033 178.0675 203.09625 C 188.6571 205.03492 211.70888 208.02108 224.52875 209.1775 L 222.94375 211.2325 C 222.26363 211.18776 222.21975 211.21681 221.3575 211.15625 C 217.10948 210.85784 208.78733 210.27399 202.86375 209.86 C 201.45618 209.76163 200.48458 209.66978 198.995 209.56 C 191.89266 208.91434 184.80801 208.14579 177.75 207.19875 C 168.8076 205.76887 156.02656 203.49052 143.7525 200.9675 C 140.39359 200.27706 138.8295 199.91878 137.7325 199.57375 C 137.49811 199.51382 137.2618 199.46677 137.0275 199.40625 C 136.02174 199.03545 135.90947 198.69877 135.8375 198.08 C 135.69587 196.86226 135.41489 196.74006 130.8925 195.93875 C 129.85138 195.75428 129.58787 195.75686 128.93625 195.65875 L 126.62 195.16125 L 126.285 195.425 C 125.93942 195.49992 125.69749 195.63549 125.505 195.89875 C 124.99741 196.59292 124.59723 196.62608 122.68625 196.13125 C 118.59311 195.07139 111.49387 192.48516 107.76375 190.77625 C 106.15996 190.01353 104.61459 189.19192 103.1625 188.2775 L 102.6525 212.6025 L 102.425 219.82875 L 102.49875 219.875 L 102.49375 220.14 C 103.74923 220.80467 105.00268 221.42053 106.25625 222.04875 C 111.09644 224.65633 119.98043 228.70999 125.44875 230.70875 C 128.15847 231.69919 132.20673 232.94829 136.05125 234.065 C 140.32055 235.41477 144.58373 236.64018 148.84 237.7425 L 149.575 240.44875 L 149.86875 241.93125 L 150.8375 240.73375 C 151.37075 240.07521 151.98315 239.22301 152.1975 238.84 C 152.52466 238.2554 153.788 238.34396 160.0675 239.3925 C 170.48145 241.13138 177.1523 241.99862 191.3425 243.45625 C 198.09263 244.14964 208.50999 245.39581 214.4925 246.225 C 229.78315 248.34433 232.21067 248.64482 240.625 249.46 C 244.72517 249.85722 248.18878 250.29004 248.32125 250.4225 C 248.39283 250.49409 248.13864 251.29745 248.015 251.83375 L 246.4325 255.79 L 247.075 255.39375 C 247.05783 255.4793 246.94625 255.80083 246.94625 255.83875 C 246.94625 256.0777 248.35199 255.13635 250.07 253.74625 C 251.004 252.99051 251.31622 252.8367 251.96625 252.3725 L 253.685 251.31 C 253.96974 251.38803 255.25106 252.30201 256.73875 253.51375 C 258.28838 254.77594 259.63315 255.73184 259.7275 255.6375 C 259.88676 255.47824 259.25256 252.42837 258.7175 250.29875 L 258.46375 248.8825 C 260.28935 248.82453 262.18853 248.83606 264.1075 248.865 L 264.30125 248.88375 C 270.36088 249.45595 283.79302 249.238 289.6325 248.4725 C 292.74945 248.0639 298.55661 247.03885 302.5375 246.195 C 303.54889 245.98061 305.23337 245.73649 306.63625 245.5 C 308.13664 245.27081 309.64075 245.02434 311.12625 244.86125 C 315.51045 244.37993 319.80323 243.80583 324.04875 243.18125 C 345.99264 240.53807 371.58613 233.52652 387.1175 225.7175 L 389.55 224.495 C 389.96636 224.29863 390.40082 224.12684 390.815 223.9275 L 394.36 228.65375 C 394.92327 229.58268 395.72788 230.80999 395.7275 230.995 C 395.72686 231.30566 396.03541 231.8158 396.4125 232.12875 C 396.96923 232.5908 397.47905 231.77781 399.12625 227.80625 C 399.36908 227.22075 399.51864 226.89289 399.7125 226.43625 L 401.38125 223.24625 C 401.97098 222.5362 402.66125 222.14307 403.9775 221.46875 C 404.81442 221.04 405.71025 220.42646 406.5075 219.79375 C 407.92071 218.71006 408.96328 217.47264 409.755 216.13 L 408.86375 182.485 C 408.7909 182.52213 408.72148 182.56514 408.64875 182.6025 L 408.6475 182.5675 L 407.97875 182.96875 C 404.97133 184.54793 402.03088 186.25924 399.0425 187.83 C 395.319 189.5842 391.42709 191.04691 387.535 192.23375 C 385.02252 192.89287 382.46053 193.52109 379.91 194.1575 C 379.53055 194.23077 379.13523 194.35417 378.75875 194.42 C 372.51681 195.5115 353.17211 199.80872 339.28875 203.12875 C 333.61457 204.21839 327.93248 205.24835 322.27375 206.215 C 318.071 206.93293 314.14589 207.58422 310.165 208.245 C 305.53277 208.92028 301.63163 209.5754 298.505 210.2 C 298.10854 210.26742 297.72523 210.32931 297.32625 210.3975 L 296.34625 210.665 C 295.11817 210.93648 293.57134 211.20564 292.54375 211.4825 L 285.79375 213.30125 L 272.40375 212.51125 L 247.32375 210.78125 L 243.7525 212.03125 C 243.29827 212.15964 242.82139 212.24681 242.3625 212.3175 C 239.16926 212.17717 235.97806 212.01982 232.7875 211.86125 C 232.43757 211.78 231.91875 211.69337 231.91875 211.62625 C 231.91875 211.17054 235.14442 209.59163 241.13875 207.1125 L 245.09125 205.4775 C 245.15785 205.47851 245.23194 205.48385 245.29875 205.485 L 259.1725 206.2775 C 272.52251 207.03943 273.44641 207.03666 278.52 206.15875 C 284.21031 205.6512 289.47641 205.04407 295.39625 206.09125 C 296.58034 206.20526 297.6842 206.23003 298.7225 206.185 C 299.71908 206.27078 300.65266 206.10582 301.7125 205.5525 C 301.87476 205.46627 302.02123 205.36265 302.165 205.25625 C 303.67231 204.37817 305.61835 202.85747 309.37875 199.8325 L 314.39625 195.79625 L 314.54875 195.6825 L 316.83875 197.76375 C 317.13269 197.97234 317.45385 198.15 317.79875 198.30125 C 318.5706 198.82481 319.30395 199.12125 320.3875 199.12125 C 320.57476 199.12125 321.22148 199.02449 321.52125 199.00125 C 327.0792 199.15008 334.97163 196.67117 340.98625 196.30625 C 343.28664 195.58418 345.77408 194.96664 348.0325 194.22125 C 349.141 193.90656 350.00954 193.57148 350.75 193.17 C 351.79212 192.69357 352.73501 192.16234 353.47625 191.51875 L 355.64125 189.35375 L 357.68625 187.59375 L 360.55125 187.8825 C 361.04716 187.93239 362.277 188.10358 363.0925 188.20125 L 369.71375 189.22875 C 370.31812 189.26344 370.78225 189.2422 371.285 189.23625 C 374.3937 189.58041 375.03338 189.04758 379.6525 185.44875 C 380.49782 184.79015 381.21355 184.29511 381.7375 183.98 L 381.8575 183.90125 C 382.32412 183.63017 382.56689 183.56544 382.54 183.7225 L 382.405 184.2625 C 381.94779 185.59795 381.56154 187.19817 381.44625 188.09125 L 381.285 188.73375 L 381.3475 188.71875 C 381.35172 188.73698 381.31243 188.88118 381.32 188.88875 C 381.52011 189.08886 395.13604 185.60492 398.48125 184.4975 L 398.705 184.42375 L 400.315 184.025 L 400.31625 183.89 L 400.485 183.83375 L 400.485 172.29375 C 400.485 171.0781 400.47005 170.46049 400.4675 169.4675 L 400.52375 164.04 C 400.47059 163.35801 400.33295 162.74033 400.20125 162.11875 C 399.88014 159.44159 399.17073 158.40534 397.39 156.4875 L 396.1775 155.18125 L 378.8875 160.9575 L 361.59625 166.735 L 359 170.37875 C 357.80555 172.05472 356.93899 173.01604 356.445 173.4475 L 355.935 174.04375 C 355.67647 174.05303 353.68685 173.0175 351.495 171.7325 L 347.5 169.39 L 329.66 172.28125 C 329.3206 172.33624 328.98935 172.38232 328.6475 172.4375 C 324.65602 172.97205 320.52416 173.58426 316.315 174.34375 C 299.83523 176.90051 283.99535 179.23071 283.8 179.0175 C 283.75628 178.96978 284.12426 177.44616 284.33625 176.46375 L 286.4375 169.2775 C 286.70845 169.14293 290.29312 169.49417 302.46375 170.87 C 303.66249 171.00551 303.78443 170.97921 304.665 171.07375 L 305.3325 171.1475 C 305.51179 171.14984 305.68887 171.17539 305.8675 171.185 C 309.19953 171.51326 310.9354 171.54934 311.89875 171.03375 C 312.4911 170.83166 313.09021 170.55516 313.70375 170.12 C 315.43554 169.21863 317.17796 168.23325 318.9175 167.2725 C 324.1359 164.43193 329.23718 161.65675 332.68125 159.8525 C 334.74769 158.81537 336.80136 157.87316 338.8425 157.03 C 340.1787 156.5544 341.59141 156.09857 342.7875 155.785 C 344.4736 155.34297 346.88225 154.64109 349.14625 153.99125 L 351.04 159.4025 L 353.1625 152.8425 L 357.2625 151.60875 L 356.9175 154.8325 L 356.5725 158.055 L 360.495 156.26875 C 362.65254 155.28661 365.09345 154.08913 365.92 153.60625 C 366.74656 153.12337 370.20995 151.42171 373.61625 149.825 C 376.80735 148.32916 378.36522 147.68123 379.2925 147.485 C 380.07278 147.54979 380.56894 148.04424 380.935 148.7375 C 381.23403 149.63775 381.54062 150.83778 381.75125 152.285 C 382.07182 154.48766 382.38156 156.34781 382.43875 156.41875 C 382.53025 156.53224 395.22007 150.60791 395.63875 150.25625 C 395.72865 150.18075 395.2148 147.90968 394.49625 145.21 C 394.25943 144.32024 394.1274 143.36239 393.945 142.45625 C 393.66406 140.79852 393.40155 139.13542 393.19125 137.4575 C 393.0364 135.98218 392.87076 134.59281 392.76625 132.72375 C 392.57762 129.35046 392.32904 127.24556 391.99625 125.625 C 391.85666 123.78196 391.36659 122.35914 389.88 122.1325 C 389.55233 122.04122 389.19556 121.98644 388.78 121.98375 C 388.39086 121.98112 388.24004 121.8959 388.08375 121.8 C 387.84834 121.49567 387.99006 121.02336 388.0225 120.6 C 388.39819 118.51315 388.54572 116.62242 388.54 114.8625 C 388.85007 110.08828 387.99476 106.81056 385.31 102.66625 C 383.31685 99.589551 377.93759 93.031514 377.47875 93.09875 C 377.44002 93.05094 377.39859 93.005427 377.36 92.9575 C 377.41435 93.106684 377.44699 93.251353 377.49875 93.4 C 377.50932 93.706188 377.6203 94.286889 377.94375 95.195 C 378.57677 96.972285 378.74718 99.507996 378.5225 101.53125 C 378.45175 101.95472 378.41277 102.38505 378.28875 102.7975 C 378.27465 102.85344 378.25754 102.901 378.2425 102.955 C 378.10173 103.39638 377.92014 103.8287 377.7125 104.25625 C 375.97462 107.18956 371.13703 110.26448 364.4975 113.1025 C 354.44204 116.85121 342.87279 119.83065 330.4775 122.37375 C 330.46263 122.36401 330.43983 122.36584 330.42625 122.35375 L 330.81875 115.355 C 331.33734 113.09179 332.53842 112.84392 337.45125 111.56125 C 338.50303 111.28665 340.19296 110.97036 341.62625 110.63875 L 353.38875 108.1225 C 355.06715 107.79965 356.51216 107.48408 357.53625 107.23375 C 357.96018 107.14667 358.36842 107.04569 358.745 106.91625 C 360.9117 106.2675 361.80217 105.57983 363.325 104.03375 L 365.73375 101.5875 L 365.40875 101.47875 C 365.42166 101.46537 365.4333 101.45085 365.44625 101.4375 C 361.1933 99.77559 356.75801 98.388939 352.205 97.225 C 339.05096 93.198892 330.57595 92.200584 310.31625 92.18375 C 291.4391 92.16807 283.58249 92.746077 268.9875 95.22375 C 258.79452 96.954131 241.10975 101.44342 239.3 102.61 C 239.20287 102.64106 239.08762 102.67143 238.99125 102.7025 C 239.06491 102.70901 239.13884 102.71721 239.2125 102.72375 C 239.16429 102.81221 239.22271 102.87863 239.5325 102.89 C 241.37436 102.95763 245.54456 103.36104 249.49125 103.74 C 273.44527 106.34715 297.56977 110.65199 321.845 116.47125 L 321.9825 120.32875 L 322.11375 124.02375 C 314.83356 125.38989 307.40357 126.72188 299.97625 128.26875 C 298.33843 128.55396 297.41454 128.72692 295.78875 129.005 C 290.12952 129.97297 284.85091 131.21927 281.61375 132.35 L 276.45625 134.15125 L 271.72625 133.96 C 266.22999 133.5408 260.7316 133.39196 255.2575 132.64375 C 251.16874 132.08523 246.49279 131.32568 238.93125 129.9825 C 232.73215 128.88134 224.27902 127.40178 220.14625 126.69375 C 216.76624 126.11468 212.69211 125.41029 209.49375 124.85625 C 193.76427 121.96684 177.96913 119.00474 162.1675 116.20875 C 158.39803 115.37506 155.18724 114.60062 153.02 113.92625 C 151.48683 113.44918 149.79006 112.82574 148.07 112.13375 C 145.81624 110.971 143.56595 109.74355 141.00375 108.88 C 140.74326 108.7456 140.46795 108.60994 140.22 108.4775 C 136.36376 106.17911 134.36265 104.02494 133.44375 101.9525 C 133.34066 101.66882 133.19521 101.40554 133.12 101.10875 C 133.0507 100.88668 132.98131 100.66415 132.93375 100.44375 C 132.79052 99.632447 132.79018 98.755064 132.8425 97.85375 C 133.0051 96.023338 133.56788 94.223623 134.04625 92.4175 L 134.64375 90.66625 L 134.365 90.96875 C 134.40543 90.762521 134.46975 90.558166 134.50125 90.35125 z M 230.12875 109.49875 C 222.36439 109.47834 215.54908 110.08937 209.59125 111.27 C 204.86317 112.52355 206.70762 113.30009 209.68875 113.995 C 212.43396 114.66898 215.17814 115.32915 217.92125 115.98 C 233.27732 119.85865 257.11842 124.99219 267.11375 126.43 C 267.17769 126.43919 268.39411 126.08013 268.8375 125.9725 L 290.335 120.8325 C 293.13952 120.24254 296.60803 119.52096 296.5 119.5075 C 296.48097 119.50513 295.30823 119.24228 295.15625 119.21 C 282.99927 116.19962 271.95174 113.92749 261.9425 112.345 C 259.145 111.85375 256.35699 111.32289 253.45875 110.87625 C 249.28362 110.23283 245.53715 110.00049 240.50125 109.875 C 236.87359 109.6363 233.41036 109.50738 230.12875 109.49875 z M 325.26 112.9075 L 326.805 113.05875 L 328.35 113.20875 L 328.31625 114.15375 L 328.04875 119.2825 C 327.93973 120.97225 327.818 122.80433 327.685 122.96875 C 327.576 122.9903 327.47412 123.01602 327.365 123.0375 C 326.37766 123.23189 325.34901 123.41229 324.3525 123.6025 C 324.2153 123.51007 324.09125 123.41402 324.09125 123.18625 C 324.09125 122.76376 324.35484 120.27786 324.67625 117.6625 L 325.26 112.9075 z M 282.1525 169.59125 C 282.99668 169.62527 283.515 169.85094 283.515 170.2625 C 283.515 170.30705 283.45781 170.54994 283.45375 170.61 L 281.31 179.2325 C 280.97613 179.41237 280.18372 179.65619 279.16 179.8225 L 277.0575 180.16375 L 277.6075 178.2025 L 280.27375 170.44625 C 280.40872 170.26052 280.54796 170.09668 280.69375 169.98625 C 281.18004 169.83948 281.66621 169.70677 282.1525 169.59125 z M 226.7225 209.42375 C 226.76108 209.42836 226.80058 209.43287 226.82625 209.435 C 228.01696 209.53269 228.27105 209.60557 228.855 209.68 C 229.34857 209.74178 229.84514 209.80692 230.33875 209.86875 C 230.51789 209.94661 230.56344 210.04259 230.51125 210.17 L 229.56875 211.02625 C 228.76406 211.42989 227.34464 211.4626 224.4425 211.3025 L 226.7225 209.42375 z M 405.29875 227.0475 L 400.8425 229.94375 L 401.26125 324.83625 L 401.26 330.6175 L 401.2875 330.77375 L 401.2875 330.87875 C 401.32782 331.06455 401.36149 331.25045 401.40125 331.43625 L 402.515 337.88125 C 403.20504 341.87626 404.20198 350.55513 404.73125 357.1675 C 406.91472 384.44619 409.58048 410.23075 410.06625 408.765 C 410.15755 408.48948 411.03117 405.33298 412.0075 401.75125 C 413.66791 395.65993 415.21201 388.60541 416.5 381.49875 L 417.55375 377.22375 C 417.96646 375.13272 418.23037 372.55793 418.3675 369.57125 C 418.70063 367.10046 419.0361 364.6187 419.26625 362.31375 C 419.70055 357.96411 419.64932 355.5293 418.995 349.54 C 417.40248 334.96261 413.01963 296.48276 410.05 271.00625 C 408.5978 258.54787 405.745 229.765 405.745 227.57125 C 405.745 227.17102 405.6672 226.99587 405.34875 227.0975 C 405.34139 227.09985 405.31387 227.12235 405.30625 227.125 C 405.3042 227.09995 405.30079 227.07254 405.29875 227.0475 z M 107.0525 229.2625 L 94.4725 339.345 C 94.031976 342.92102 93.823891 346.58788 93.7675 350.27 C 93.356532 354.99905 93.258532 358.0801 93.6025 361.68375 C 94.789086 374.1153 97.026887 386.3308 100.06875 397.7175 C 101.53737 403.49933 102.7175 407.30375 102.7175 407.30375 C 102.72252 407.25181 102.72624 407.19945 102.73125 407.1475 L 102.91625 407.76375 L 103.28875 404.8025 C 103.49366 403.17429 104.23657 393.93173 104.94 384.26375 C 107.76054 345.49846 108.55527 332.57048 109.92875 303.06625 C 110.87785 282.67835 112.1925 244.25648 112.1925 236.93 L 112.1925 231.3175 L 109.81625 230.3725 C 108.50883 229.85292 107.30302 229.36395 107.1375 229.28625 C 107.13718 229.2861 107.13657 229.29638 107.13625 229.29625 L 107.0525 229.2625 z M 116.39125 233.2525 L 116.11875 239.86125 C 113.71975 264.95772 113.17158 289.50755 113.88375 312.72375 C 113.97962 331.54232 114.79889 349.34423 116.435 362.67875 C 117.90189 374.63409 120.26708 389.13065 122.945 403.19 C 130.67192 448.68977 140.54483 477.4941 141.71 475.7075 C 141.67645 475.57749 141.65137 475.31748 141.62 475.15375 C 141.70096 475.317 141.94892 476.09109 141.97625 476.06 C 142.05805 475.9669 141.802 470.93134 141.4075 464.87 C 140.86916 456.59875 140.7719 448.77958 141.0175 433.525 L 141.345 413.19875 L 139.29 409.1025 L 138.01375 406.375 C 137.28319 404.82497 136.44356 403.07322 136.45875 402.89625 L 137.39875 403.36625 C 137.96963 403.69311 138.43336 403.91441 139.535 404.74625 C 141.16604 405.97784 142.77541 406.99141 143.1125 406.99875 C 143.2126 407.00083 142.91658 406.42769 142.75125 406.0425 L 143.04625 406.19 L 136.8925 395.3675 C 136.84717 395.00798 136.87328 394.68106 136.94125 394.31875 C 137.71962 390.16965 138.7966 376.29942 139.0675 366.93625 C 139.21833 361.72315 139.0984 356.22799 138.75125 349.99625 C 138.18452 334.69928 136.81996 324.41318 136.285 320.85 C 134.82684 305.32849 133.16067 285.90546 132.38 274.70875 C 132.30069 273.08361 132.19001 271.29382 132.12875 269.7725 C 131.94192 266.0621 131.81925 261.56218 131.765 256.82375 C 131.68441 250.7756 131.75441 246.20933 131.8525 242.8775 C 131.90471 241.56349 131.94401 239.99618 132.02625 239.32125 C 132.14155 238.37496 132.16245 237.81058 132.09125 237.40125 C 132.09695 237.32388 132.12875 236.62875 132.12875 236.62875 L 131.44875 236.83 C 130.88921 236.76975 129.98808 236.96697 128.23875 237.4325 L 125.60375 238.1325 L 116.755 233.28625 C 116.74943 233.33767 116.74556 233.38858 116.74 233.44 L 116.39125 233.2525 z M 386.5825 236.1825 L 385.84625 236.52 C 385.01145 236.75426 383.81848 237.22248 382.3825 237.9875 L 380.685 238.89125 L 378.3375 239.97 L 378.7 245.62 L 378.69875 246.795 C 378.69075 258.91005 380.50426 292.40681 382.4625 316.34125 C 383.37459 327.48925 384.34992 337.9316 385.18625 346.89875 L 385.245 347.8125 C 385.26043 347.88056 385.27105 347.94461 385.28625 348.0125 C 385.55893 350.91384 386.08744 357.3175 386.2125 358.40875 C 386.48158 360.7567 386.70274 364.1333 386.705 365.91125 C 386.70727 367.68293 386.13936 373.56076 385.54125 379.1525 C 384.82934 383.60054 384.00774 388.07466 383.34 392.83125 C 383.01966 392.48388 382.56616 391.55277 381.95375 389.92 C 378.32168 380.23643 374.67526 370.95753 373.61 368.69 L 372.4325 366.185 L 372.39625 367.37625 L 372.3225 367.1975 C 371.87268 375.95432 371.45673 384.75739 370.91375 393.39 C 370.53415 398.40964 370.15972 403.46994 369.68125 408.55875 L 369.115 414.57875 C 368.74612 417.78784 368.34659 420.95453 367.86625 424.015 C 368.11066 424.47809 368.35611 425.10528 368.6025 425.81875 L 369.41875 429.8925 C 372.55926 445.58095 374.95569 461.82637 375.77875 473 C 376.10812 477.47143 376.45963 481.04787 376.56 480.9475 C 376.66037 480.84713 377.41744 478.42821 378.2425 475.5725 C 378.46206 474.81254 378.63418 474.03619 378.85 473.275 C 392.31178 428.09126 397.16517 384.00312 397.7925 346.335 C 398.66 318.64169 397.49897 292.76785 394.24 273.01 C 393.56526 268.9193 392.84257 265.39705 392.11375 261.405 C 390.52754 251.44519 388.99006 244.13222 387.91875 240.07875 C 387.7944 239.5629 387.73643 239.45403 387.6275 239.0375 C 387.29831 237.87819 386.9831 236.79204 386.8025 236.425 C 386.79496 236.41898 386.76823 236.29893 386.76125 236.29625 C 386.75453 236.29367 386.71394 236.31203 386.70625 236.31 C 386.6621 236.25453 386.60853 236.15561 386.5825 236.1825 z M 331.1725 247.655 L 330.64375 247.715 L 329.28125 247.7225 C 328.21794 247.7275 325.09394 248.05831 322.33875 248.4575 C 319.58357 248.85668 317.13417 249.19001 316.89625 249.19875 C 316.88008 249.19936 316.88311 249.28033 316.86875 249.29 L 316.69 249.31 C 316.76625 252.92642 316.44368 256.28599 314.32875 258.48875 C 314.25448 258.56166 314.18321 258.63702 314.10625 258.70625 C 313.80995 258.9874 313.48302 259.24895 313.11875 259.48625 C 312.39976 259.92265 311.61233 260.24842 310.77 260.43375 C 307.5768 260.86229 304.83735 260.25273 302.61125 258.465 C 302.25883 258.1606 301.92121 257.84011 301.635 257.47625 L 300.625 256.19125 L 295.57625 259.01125 C 295.01611 259.32412 294.64201 259.58851 294.1375 259.8925 L 291.37875 261.44875 C 291.14687 261.69541 290.9279 261.94543 290.82 262.235 C 290.77787 262.29262 290.52875 262.45316 290.52875 262.48875 C 290.52875 262.57142 290.72542 262.7599 290.78375 262.875 C 290.86904 263.22508 291.12688 263.63414 291.655 264.1375 C 292.09945 264.48251 292.54839 264.8248 293.00125 265.165 C 294.6759 266.52507 296.90075 268.047 298.925 269.08875 L 302.3 270.82625 L 304.05875 270.775 C 308.62832 270.96674 312.74339 270.80774 316.41125 270.245 C 318.46523 270.05307 320.06419 269.79673 321.33625 269.38625 C 321.92463 269.19639 322.76319 268.80876 323.6225 268.395 C 326.0438 267.45896 328.18421 266.23897 330.0475 264.7075 C 330.97249 264.07284 331.68413 263.51895 331.88125 263.2 C 331.90922 263.15475 331.70598 263.23691 331.6675 263.2275 C 331.68591 263.20879 331.70541 263.19128 331.72375 263.1725 C 331.67079 263.19558 331.61796 263.2182 331.565 263.24125 C 331.23352 263.27445 330.4157 263.57963 329.1075 264.24 C 328.55934 264.51671 327.88597 264.74612 327.24125 264.99 C 326.48562 265.25816 325.73063 265.50417 324.975 265.70125 C 324.648 265.78243 324.31957 265.87217 324.03375 265.92125 C 323.70971 265.98972 323.38529 266.05021 323.06125 266.1 L 321.46375 266.26 C 321.2852 266.26797 321.10605 266.27427 320.9275 266.275 L 323.5475 264.9075 C 327.63488 262.77371 330.68187 257.23644 331.01125 251.34375 L 331.21375 247.7125 L 331.16875 247.7125 C 331.1699 247.69331 331.17136 247.67419 331.1725 247.655 z M 180.19 247.7125 L 180.2025 247.905 L 180.13125 247.89625 C 180.23718 249.67581 180.38001 251.44655 180.67625 253.175 C 180.76584 253.72566 180.87393 254.25828 181.00875 254.78125 C 181.63382 257.40121 182.71431 259.89857 184.7025 262.1525 C 184.70111 262.1817 184.73319 262.23586 184.7275 262.26125 C 184.646 262.62445 185.81965 263.69092 187.335 264.63125 L 187.89 264.97625 C 188.56099 265.44817 189.29316 265.90312 190.09 266.34125 L 187.22625 266.12875 C 187.01154 266.11283 186.84863 266.04358 186.645 266.02 C 185.05922 265.63163 183.47328 265.04765 181.8875 264.395 C 181.82733 264.35941 181.77722 264.35068 181.71625 264.31375 L 179.06875 262.71 L 180.16375 263.66625 C 179.96918 263.58198 179.77457 263.49853 179.58 263.41375 C 183.09561 267.01368 187.81048 269.21998 193.75 270.2975 C 194.17862 270.37975 194.62367 270.44748 195.06625 270.51625 C 195.3889 270.56443 195.71923 270.60549 196.04875 270.6475 C 196.71427 270.73428 197.39765 270.8081 198.095 270.86625 C 201.41818 271.15395 205.05374 271.16952 209.0275 270.93125 C 210.20986 270.43032 211.31208 269.88257 212.3625 269.30625 C 212.62176 269.18314 212.7578 269.17126 213.04875 269.0275 C 216.39488 267.37415 221.41867 263.36317 221.385 262.3725 C 221.378 262.16123 218.9984 260.69089 216.09625 259.105 L 210.81875 256.2225 L 209.6025 257.6675 C 206.94376 260.82723 201.52535 261.76001 198.33125 259.6075 C 197.06928 258.75706 196.15895 257.7502 195.55875 256.54875 C 195.52862 256.47805 195.49587 256.40933 195.4675 256.3375 C 195.31138 255.99875 195.2217 255.61578 195.11375 255.245 C 194.98213 254.74987 194.88012 254.23533 194.805 253.70375 C 194.74695 253.18475 194.67299 252.67794 194.68625 252.10125 C 194.70342 251.35454 194.64269 251.10351 194.615 250.68125 C 194.61264 250.30625 194.6057 249.93422 194.61375 249.5525 L 194.4875 249.5375 C 194.33601 249.21592 194.09702 249.06581 193.67375 248.9725 C 192.20249 248.64818 183.18281 247.7125 181.5275 247.7125 L 180.19 247.7125 z M 146.18375 250.69125 C 145.71998 250.77716 145.34292 251.6759 145.0975 253.7925 C 144.5526 256.01473 144.39082 258.36287 144.49375 260.7975 C 144.48289 265.91387 145.67259 272.03005 148.30625 280.1 L 149.3125 283.18125 L 157.34375 288.49 L 165.37625 293.79875 L 169.00125 293.79875 C 171.18358 293.85318 173.23994 293.83978 175.1675 293.755 C 181.08852 293.7278 182.78021 293.56336 187.27875 292.26625 C 187.47444 292.20983 187.99302 292.02597 188.2075 291.9625 C 190.8754 291.33012 193.34253 290.59439 195.67375 289.79875 C 197.94291 289.02429 200.11733 288.19795 202.28875 287.35125 C 210.84405 284.45021 218.89748 281.61373 218.695 281.41125 C 218.67768 281.39393 217.88695 281.46984 217.75 281.465 C 217.89061 281.41661 218.01935 281.36842 218.16125 281.32 C 217.73636 281.39142 217.35974 281.44352 216.9475 281.51 C 215.92275 281.53289 214.93887 281.54031 212.65875 281.7525 C 201.23516 282.81558 197.137 282.50568 190.7225 280.09125 C 184.08539 277.59303 173.42853 271.75468 168.5925 268.1925 C 167.87303 267.57778 167.18695 266.92314 166.59125 266.2275 C 166.07456 265.62412 165.61461 264.99442 165.20375 264.35375 C 164.70471 263.35599 164.2286 262.25216 163.9225 261.2325 L 162.94625 257.98125 L 162.86125 258.2425 C 162.8579 258.21756 162.85192 258.19109 162.84875 258.16625 L 160.27625 266.14125 L 164.23125 273.67 L 164.25125 273.7225 C 156.57396 268.2719 153.06813 260.56555 148.31375 253.535 C 147.52056 251.81417 146.78003 250.58079 146.18375 250.69125 z M 366.04625 254.19125 C 366.0273 254.18372 365.99452 254.24386 365.975 254.24125 C 365.85471 254.26032 365.70538 254.36614 365.525 254.56 C 365.4468 254.65342 365.34926 254.76203 365.25375 254.9075 C 365.01808 255.22442 364.75424 255.62531 364.4175 256.23625 C 362.7332 258.51957 361.44604 260.92519 359.97375 263.27375 C 358.4291 265.45748 356.93102 267.37344 355.7625 268.73 C 354.97446 269.51434 354.08466 270.2676 353.09125 270.98875 C 350.41336 272.66511 346.24477 274.7625 345.26375 274.7625 C 344.85621 274.7625 345.41051 273.55896 346.67375 271.69875 C 346.81941 271.48426 346.81663 271.42626 346.9425 271.23625 C 347.14691 270.95578 347.34895 270.67701 347.56625 270.38625 C 347.73227 270.08025 347.86981 269.76147 347.98875 269.43375 C 348.44495 268.47456 348.63698 267.66718 348.5025 266.56375 C 348.36371 265.42508 347.98222 263.81781 347.655 262.99125 L 347.06 261.4875 L 346.75 261.92875 C 346.71895 261.87363 346.69828 261.82307 346.66625 261.7675 C 346.00369 262.72601 345.32719 263.63895 344.63875 264.515 C 341.14742 268.49292 334.00024 274.26077 329.51 276.5975 C 325.08399 278.55501 320.16582 279.70843 314.62875 280.18 C 312.78683 280.20331 311.01126 280.21142 307.31 280.1 C 301.52418 279.92582 295.88833 279.65445 294.78625 279.4975 C 292.78181 279.21203 295.91519 280.54879 308.45875 285.33125 C 309.12352 285.5847 309.90223 285.83801 310.60375 286.09375 C 316.44802 288.5009 322.84006 290.79221 329.69375 291.99375 C 331.29885 292.37619 332.72523 292.68132 333.61 292.775 C 334.94965 292.91684 337.78359 292.91516 340.44125 292.92375 C 345.46965 293.06417 350.56657 293.07908 355.82625 292.42625 L 358.615 292.21375 L 358.695 292.005 C 358.71591 292.00143 358.73658 291.99985 358.7575 291.99625 C 360.31535 288.50885 361.82324 284.97223 363.71 281.81375 C 363.78054 281.72231 363.85701 281.57126 363.92625 281.48625 C 365.15302 279.98011 366.32966 278.13275 366.54 277.38125 C 366.59613 277.18071 366.61524 276.24365 366.65875 275.76875 L 366.7325 275.53125 L 366.7275 274.825 C 367.00079 270.24579 366.93707 260.88217 366.60625 256.7975 L 366.60375 256.365 C 366.55486 255.77354 366.50981 255.17165 366.40125 254.75375 C 366.39357 254.73474 366.39034 254.58072 366.3825 254.5675 C 366.36125 254.53166 366.34179 254.53142 366.32125 254.5 C 366.26218 254.36779 366.18901 254.27681 366.095 254.24625 C 366.07874 254.23603 366.06282 254.19783 366.04625 254.19125 z M 254.0475 266.87 C 253.01082 266.89959 252.08474 266.99828 251.1 267.0675 L 249.2225 267.02375 C 247.63921 267.01287 246.16075 267.34833 244.76 267.94125 C 244.71624 267.95408 244.62975 267.95946 244.5875 267.9725 C 243.28573 268.37417 242.28735 268.99972 240.8475 270.35 C 236.6326 273.73573 233.00797 279.07269 229.0475 283.3 L 229.05625 283.30125 L 228.85375 283.52875 L 231.2625 283.86125 C 232.5874 284.04376 235.70033 284.23524 238.18 284.2875 C 239.26809 284.31043 239.96128 284.33494 240.54375 284.3725 L 241.23 284.43625 C 241.38458 284.46674 241.49138 284.50442 241.48375 284.555 L 206.865 293.06375 C 206.52288 293.14589 206.20202 293.22117 205.86875 293.30125 C 194.26348 296.08975 188.97982 297.39489 185.33375 297.99875 C 182.67972 298.29586 179.9408 298.34335 177.09375 298.07625 C 175.96248 297.91015 174.99286 297.7705 173.3075 297.52625 L 173.09375 297.495 C 172.58782 297.39951 172.0863 297.31609 171.57375 297.20125 C 171.63029 297.23453 171.6872 297.26553 171.74375 297.29875 L 171.555 297.27125 L 173.91 298.7775 C 179.91448 302.6154 197.35312 310.97305 205.9025 314.20125 C 206.99299 314.66959 208.08072 315.1541 209.1725 315.615 L 206.90375 315.73875 C 203.4893 315.57641 200.18204 315.24999 196.9775 314.76875 C 186.21778 312.7496 170.32765 307.75604 153.145 300.825 C 151.98581 300.35741 151.21467 300.17757 150.9075 300.26 C 150.90167 300.25785 150.89583 300.2559 150.89 300.25375 L 150.90375 300.27125 C 150.62201 300.36038 150.7659 300.68933 151.4475 301.255 C 151.72878 301.48844 153.57592 303.85057 155.2575 306.00625 L 160.80125 313.3075 L 156.9925 319.2425 C 162.61584 328.16415 169.53895 335.28111 177.5525 340.885 C 177.80993 341.06832 178.14132 341.36869 178.38375 341.53 C 178.87155 341.85457 179.73001 342.32684 180.385 342.7225 C 183.82042 344.90857 187.43556 346.84631 191.2275 348.5375 C 192.0519 348.95436 192.82383 349.38654 193.45 349.7575 C 195.44405 351.16518 197.19699 352.64476 198.845 354.15625 C 199.17564 354.48419 199.41577 354.70289 199.795 355.085 C 202.22785 357.5363 203.42085 358.70705 203.6325 359.38125 C 203.57135 359.69121 203.36371 359.95792 203.03125 360.1875 C 202.5992 360.34112 201.99279 360.47039 201.1525 360.65875 C 201.08801 360.67321 201.03858 360.66131 200.9775 360.6725 C 200.51242 360.62185 199.94889 360.48475 198.53 359.5925 C 198.05713 359.22017 197.60081 358.8099 197.14 358.41 C 196.7615 358.05455 196.6376 358.00986 196.14375 357.52875 C 192.71129 354.18481 192.46227 354.04232 188.58625 353.21625 C 186.38211 352.74649 181.61191 351.72494 177.985 350.945 L 171.39 349.52625 L 171.645 349.94375 L 171.57375 349.92875 L 172.29125 350.99875 L 173.38625 352.7875 C 174.48394 354.58093 176.63082 357.83001 178.1575 360.00875 L 180.895 363.91375 L 180.8 366.74125 L 180.575 371.3825 L 180.21625 378.795 L 183.09 384.6375 C 183.42235 385.31318 183.70616 385.7675 184.02875 386.3725 L 185.2975 388.9725 C 185.60456 389.3026 185.79204 389.45586 186.0125 389.6575 C 186.2263 389.9313 186.55841 390.48 186.64875 390.48 C 187.02577 390.48 187.335 390.25998 187.335 389.99 C 187.335 389.9427 187.02795 389.17832 186.975 389.0025 C 186.92987 388.75632 186.90551 388.55806 186.8325 388.24375 L 185.78 385.72625 C 185.53938 385.10038 185.55405 385.04288 185.27875 384.35375 L 183.22375 379.21 L 183.4225 373.0925 C 183.53185 369.72821 183.773 366.82451 183.9575 366.64 C 183.9835 366.614 184.57461 366.91536 184.74625 366.9725 L 201.58125 376.0375 L 214.46625 376.0375 C 215.43927 376.04809 216.44539 375.945 217.4675 375.78375 C 219.44327 375.61952 220.72937 375.28574 222.63875 374.42 C 223.77326 373.90559 225.78476 373.19992 227.92125 372.505 L 237.69375 369.765 C 237.67108 369.74784 237.64525 369.73212 237.6225 369.715 L 237.94375 369.6275 L 235.855 368.48375 C 234.38395 367.53071 232.76145 366.65639 230.9575 365.875 C 227.30274 364.0308 224.79401 363.38995 215.445 361.67 C 212.4586 361.12059 211.1483 360.82511 209.99875 360.485 C 208.90031 360.01294 207.87068 359.44953 206.91875 358.78 C 206.76721 358.61951 206.64027 358.51584 206.46375 358.32125 C 204.48086 356.13533 202.87285 353.88769 202.8675 353.29625 C 202.8655 353.09552 203.37133 353.14852 203.99125 353.41375 C 205.14427 353.90706 210.15472 355.28756 214.95375 356.53625 C 216.72304 357.07129 218.50839 357.55242 220.3375 357.885 C 220.70888 357.96912 221.43087 358.17262 221.7325 358.235 C 223.9579 358.69522 226.38905 358.89189 227.55 358.70625 C 229.31314 358.42431 229.91336 358.62825 232.7325 360.465 L 235.92125 362.5425 L 244.565 362.19875 C 249.31885 362.00936 256.12587 361.65961 259.6925 361.42125 L 266.1775 360.9875 L 273.835 357.12 C 279.44306 354.52078 285.14421 352.06074 290.85375 349.61375 L 296.54125 347.55625 L 296.9525 348.8175 L 297.04125 349.56125 C 297.17901 350.71397 297.43526 351.6575 297.61125 351.6575 C 297.78724 351.6575 299.00056 350.35878 300.3075 348.77125 C 302.61337 345.97032 305.26181 343.83685 309.15625 341.4775 C 310.70472 340.68264 312.32839 340.04321 314.05125 339.565 C 314.72559 339.44582 315.30281 339.30095 316.20125 339.225 C 318.26535 339.05052 320.77645 338.76836 321.97875 338.58375 C 322.64967 338.58018 323.28815 338.53521 323.98875 338.56875 L 323.71625 342.11625 L 323.585 343.07125 L 324.8625 341.87 C 325.56533 341.20972 326.75111 339.70453 327.49625 338.525 L 328.85 336.38125 L 332.3575 336.37125 C 332.46229 336.37096 332.56532 336.35753 332.67 336.35625 C 338.46392 336.33378 343.94773 334.92227 349.035 331.73 C 350.97806 330.56959 352.81832 329.22514 354.49625 327.665 C 357.35532 325.00664 359.65065 322.21706 360.01625 321.05 C 360.04422 321.01103 360.07331 320.97664 360.10125 320.9375 L 360.06625 320.93125 C 360.08011 320.87042 360.16 320.75394 360.16 320.705 C 360.16 320.55281 358.69462 320.27054 356.90375 320.07875 C 355.28203 319.90508 354.19646 319.72524 353.955 319.6275 C 355.63082 318.11191 356.97316 316.56834 358.0675 315.0025 C 359.60386 313.35516 360.52708 312.02874 361.35875 309.785 C 362.49552 306.71816 363.87667 300.49105 364.58625 295.68125 C 364.6767 295.34072 364.74898 294.99858 364.8475 294.65875 C 365.26045 293.34509 365.25004 292.68751 364.94375 292.4875 C 364.83329 291.86566 364.19844 292.27676 361.9125 293.81125 C 361.29687 294.22451 360.57468 294.63034 359.92375 295.03 C 356.43614 296.9632 352.76607 298.78209 349.04 300.56625 C 344.2038 302.82171 338.40919 305.43805 327.59875 310.1925 C 325.38886 311.16442 317.89611 316.47305 316.74625 317.88125 C 315.91137 318.90371 312.7376 330.08347 312.31125 333.505 C 312.1134 335.09288 311.77414 336.50159 311.55625 336.63625 C 311.09557 336.92097 308.58423 334.96474 306.56625 332.95875 C 305.30082 331.49775 304.1171 330.0096 303.305 328.3975 C 294.45317 327.05952 285.83212 325.10636 277.1925 323.2025 C 274.84745 322.63521 272.30022 322.07104 270.28125 321.53625 C 261.38975 319.18103 255.35458 318.28417 247.6975 318.18125 L 241.18625 318.09375 L 240.9 318.23375 C 240.79094 318.2301 240.68563 318.22887 240.57625 318.225 C 240.02747 318.555 239.22039 318.99538 238.585 319.3625 L 237.28375 319.9975 L 233.38125 321.9 L 222.75625 321.84875 C 217.6043 321.82345 213.38978 321.63361 211.40125 321.44 C 210.17607 321.3137 208.95919 321.16303 207.75625 320.97 L 209.62625 320.90875 C 217.66399 320.64539 231.31133 317.44858 236.6775 314.57125 C 237.74315 313.99986 238.90285 313.45097 239.93625 313.00625 C 241.17917 312.58424 242.44106 312.24125 243.71375 311.99 C 245.83485 311.87399 249.23456 312.25403 253.53625 313.02875 L 272.18625 317.4375 C 273.29855 317.74285 274.27314 317.9704 275.42375 318.29875 C 283.89562 320.71636 288.92605 321.69557 290.4375 321.27625 C 291.26346 321.26017 291.64099 321.02459 290.59 320.09 C 290.52636 320.05032 290.50705 320.02253 290.45625 319.98625 C 290.44162 319.97125 290.44399 319.96274 290.42875 319.9475 C 290.21885 319.7376 290.09499 319.5861 290.12 319.49875 C 290.12124 319.49664 290.12366 319.49457 290.125 319.4925 C 290.22432 319.2389 291.73609 319.59143 296.68 320.84125 C 299.55665 321.56846 301.08437 322.0025 302.39625 322.4925 C 302.71953 322.61678 303.04896 322.73221 303.36625 322.865 C 304.49977 323.36764 305.46078 323.94956 306.90875 324.9375 L 309.01125 326.3725 L 311.01875 322.935 C 314.45168 317.89285 320.17014 312.62174 329.91875 306.945 C 331.76536 305.91112 333.55858 304.87124 335.62875 303.86375 L 344.71875 299.44 L 337.78625 299.15875 C 335.30017 299.05781 333.63352 298.91215 332.03625 298.70875 C 328.00128 297.91649 324.05955 296.93686 320.25875 295.67625 L 280.5975 284.36375 C 275.65501 282.99677 271.40803 281.75673 271.2125 281.6075 L 281.14125 281.74625 L 283.76625 281.8525 L 282.2275 280.43625 C 281.41969 279.69305 278.13659 276.76242 274.9275 273.91625 C 273.32865 272.4068 272.05548 271.19334 268.88875 268.26625 L 268.47125 268.1925 L 264.34625 267.40875 C 261.80593 266.92629 257.85655 266.76129 254.0475 266.87 z M 349.77125 338.33 L 348.57875 338.58375 C 343.89797 339.57667 338.87567 340.79559 334.705 341.89375 L 331.9425 342.53875 C 331.02448 342.8233 330.13005 343.16311 329.24625 343.5275 C 328.716 343.70663 327.33359 344.05247 327.0975 344.17 C 325.85767 344.78723 322.38696 346.78276 319.385 348.605 C 318.51319 349.13421 317.81323 349.50514 317.0375 349.94125 L 313.37 351.75375 C 313.36155 351.75347 313.29796 351.78888 313.29125 351.7875 C 312.94142 351.7158 311.43505 352.70737 309.945 353.99 L 308.17625 355.5125 L 307.2175 356.225 L 306.92875 355.75 L 306.3175 354.61625 C 306.1254 354.25954 306.02792 354.24215 305.84375 353.9675 L 305.1575 352.84 C 305.13148 352.86715 305.10596 352.89521 305.08 352.9225 C 305.07866 352.92242 305.07255 352.91 305.07125 352.91 C 304.89093 352.91 304.26586 353.55597 303.6825 354.345 C 303.11664 354.88783 302.52512 355.37453 301.84 355.655 C 301.40355 355.78926 300.65415 355.88221 299.88875 355.9725 C 297.83542 356.16327 295.76626 356.39691 293.67125 356.7075 C 289.52027 357.23664 286.64428 357.87809 283.97 358.85875 C 281.44479 359.62557 278.8572 360.57059 276.165 361.8175 C 269.71659 363.88042 262.64984 365.32476 255.70875 366.895 C 255.04028 367.00393 254.43691 367.19304 253.865 367.42 C 252.39999 367.88475 251.44627 368.4387 250.2375 369.7475 L 249.085 370.995 C 248.84093 371.2486 248.59274 371.49728 248.35 371.7525 C 245.3716 372.34573 242.42198 372.99643 239.4775 373.6575 L 236.8375 374.1725 C 230.58866 375.39251 223.8924 376.86251 221.9575 377.43875 C 221.91353 377.45185 221.82944 377.46432 221.78375 377.4775 C 218.08758 378.18308 214.35157 378.80772 210.5275 379.2575 C 209.87918 379.35036 209.48211 379.45847 209.26125 379.5775 C 209.24818 379.58438 209.06885 379.5999 209.0625 379.60625 C 209.03573 379.63302 209.11736 379.67855 209.10875 379.70875 C 208.8456 380.03424 209.59404 380.42181 210.2325 380.8025 L 211.66 381.03 C 212.55777 381.30731 213.47448 381.61211 214.4325 381.72375 C 218.09745 382.15086 255.58358 387.96812 256.21375 388.2075 C 256.48926 388.31217 262.23737 388.4126 268.9875 388.43125 L 277.0575 388.45375 L 281.39 388.52875 L 288.22875 384.22125 L 292.755 381.46375 L 294.02875 381.46375 C 294.84626 381.49777 295.65579 381.50208 296.45375 381.46375 L 296.8525 381.46375 C 300.92034 381.46375 300.99616 381.43955 307.63625 378.0675 C 311.31428 376.19971 318.26843 372.42464 323.09 369.6775 C 329.58847 365.9749 332.12552 364.24632 334.8075 361.7225 C 336.17108 360.58934 337.49868 359.37679 338.7825 358.0675 C 338.85724 358.01132 339.30063 357.57305 339.315 357.5775 C 339.43019 357.78341 339.51986 358.00374 339.62125 358.2175 C 339.75311 358.561 339.84926 358.7845 340.0475 359.37125 C 340.82324 361.66729 340.76244 364.6185 339.87125 367.93875 C 339.60253 368.93989 339.60686 369.29104 339.49125 369.91 C 339.42421 370.10929 339.374 370.29871 339.30125 370.50125 C 339.31059 370.58264 339.32441 370.63955 339.335 370.715 C 339.21631 371.82734 339.36321 372.44625 340.0875 372.44625 C 340.69407 372.44625 341.01755 372.12967 341.3375 371.1225 C 341.34566 371.11024 341.35305 371.10245 341.36125 371.09 C 342.2179 368.76488 342.65238 366.30943 342.66625 363.725 C 342.79693 362.35931 342.69321 360.92813 342.27875 359.25125 C 342.24151 359.04127 342.20134 358.83038 342.15875 358.61875 C 342.13594 358.53074 342.14529 358.51207 342.12125 358.42 C 341.70226 356.81506 341.49663 355.56782 341.35375 354.585 C 341.24724 352.9091 341.71266 351.95584 342.17625 350.99875 C 342.22042 350.91127 342.28191 350.80118 342.32875 350.71 L 348.1225 340.91875 C 348.33476 340.58841 348.47601 340.31477 348.69125 339.985 L 349.77125 338.33 z M 12.23125 350.88625 C 5.4551968 350.88625 7.5705894e-17 356.34145 0 363.1175 L 0 499.76875 C 0 506.5448 5.4551968 512 12.23125 512 C 13.075219 512 13.897511 511.91501 14.6925 511.75375 L 148.96 511.75375 C 155.73605 511.75375 161.19125 506.29855 161.19125 499.5225 C 161.19125 492.74645 155.73605 487.29125 148.96 487.29125 L 24.4625 487.29125 L 24.4625 363.1175 C 24.4625 356.34145 19.007313 350.88625 12.23125 350.88625 z M 499.76875 350.88625 C 492.9927 350.88625 487.5375 356.34145 487.5375 363.1175 L 487.5375 487.29125 L 363.04 487.29125 C 356.26395 487.29125 350.80875 492.74645 350.80875 499.5225 C 350.80875 506.29855 356.26395 511.75375 363.04 511.75375 L 497.3075 511.75375 C 498.10249 511.91501 498.92478 512 499.76875 512 C 506.5448 512 512 506.5448 512 499.76875 L 512 363.1175 C 512 356.34145 506.5448 350.88625 499.76875 350.88625 z M 325.86125 373.44875 C 325.83249 373.44875 324.98061 373.96942 324.76125 374.0875 C 317.81006 377.78747 310.75513 381.47238 303.385 385.1125 C 302.76979 385.40232 302.26414 385.62955 301.66375 385.90875 C 299.25184 386.78036 296.96249 387.86499 294.76125 389.1025 C 294.52437 389.20421 294.11285 389.41165 293.88875 389.50625 C 292.32493 390.16638 289.74702 391.96365 287.1275 394.0975 C 284.99701 395.64847 282.90249 397.2627 280.80875 398.8775 C 280.73875 398.91515 280.57833 399.03604 280.525 399.05875 L 251.22 402.6575 C 251.32093 402.67834 251.42271 402.69693 251.52375 402.7175 C 251.4827 402.73167 251.05093 402.76718 251.06125 402.7775 C 251.35954 403.0758 263.8136 404.96321 268.7375 405.45625 C 271.49268 405.73213 276.79051 406.11025 280.51 406.29625 L 287.2725 406.63375 L 287.37625 406.55375 C 287.39207 406.55494 287.40793 406.5563 287.42375 406.5575 L 297.24 399.1325 C 298.11319 398.5432 298.81628 398.10128 298.8825 398.1675 C 299.03227 398.31728 299.25769 399.86133 299.3825 401.59875 C 299.45172 402.56221 299.36651 403.23695 299.2975 403.96625 C 299.20396 404.61196 299.07377 405.30135 298.9075 406.03 C 298.65457 406.92184 298.40957 407.76212 297.82125 409.235 C 296.45777 412.64877 296.18277 413.80668 296.6625 414.11125 C 297.00854 414.33094 297.42236 414.51453 297.5825 414.51875 C 297.60495 414.51931 297.8438 413.91619 297.8975 413.835 C 297.962 413.76656 298.02185 413.70989 298.09375 413.62125 C 298.92543 411.69176 299.86354 409.92802 300.52875 407.74125 C 301.74922 404.36599 301.85699 402.6678 301.26875 398.49625 L 301.10375 397.33125 C 301.07968 397.14229 301.0636 396.96528 301.03625 396.77125 C 302.66935 396.49051 304.46678 395.71963 306.4225 394.47625 C 308.35248 393.5005 309.8777 392.27392 312.74 389.5225 C 315.20161 387.15625 318.37599 383.75587 319.79375 381.965 C 322.81329 378.15079 325.73977 374.03494 325.71625 373.68 C 325.75634 373.62432 325.79484 373.57339 325.835 373.5175 C 325.82663 373.52196 325.81837 373.52679 325.81 373.53125 C 325.80687 373.52926 325.86593 373.44875 325.86125 373.44875 z M 193.18375 377.8975 L 193.3575 378.08375 L 193.16125 378.00625 L 199.725 385.03875 C 201.4191 386.91274 203.29655 388.9703 204.25875 390.1075 C 205.29655 391.33405 206.25283 392.23794 206.97 392.8025 L 207.58375 393.46 L 211.2775 394.35125 C 212.51043 394.68723 213.02017 394.8049 214.63625 395.265 C 217.78829 396.16239 221.18682 396.91462 224.52 397.545 L 226.495 398.02125 C 227.19852 398.08614 227.8974 398.13697 228.5975 398.1925 C 229.6083 398.34139 230.73592 398.57955 231.6675 398.68125 C 233.80293 398.91439 239.77692 398.8769 246.30875 398.72375 C 246.56582 398.71968 246.82219 398.71497 247.07875 398.71 C 255.6533 398.49481 265.1629 398.05995 269.665 397.5375 C 273.18178 397.1294 274.82407 396.87699 276.115 396.67 C 276.74272 396.60473 277.38087 396.54213 278.005 396.47625 L 278.06625 396.4075 C 278.06814 396.40613 278.17945 396.39372 278.18 396.3925 C 278.2211 396.3012 279.08797 395.32784 280.10625 394.23 L 281.95875 392.23375 L 277.17375 392.17625 L 257 391.71 C 256.12285 391.65294 255.69613 391.56337 255.04875 391.49125 L 248.58875 390.43875 C 240.94973 388.91035 225.92857 386.47527 218.19125 385.4925 L 215.60375 385.07125 C 211.27817 384.5405 207.20029 383.18461 203.08625 381.94875 C 202.99241 381.91549 202.90123 381.88346 202.8075 381.85 L 195.2825 378.85125 L 193.18375 377.8975 z M 210.39625 396.7825 C 209.71644 396.80407 209.4803 397.43026 209.42375 398.16875 C 209.04693 400.49576 209.09122 402.57188 209.41125 404.48375 C 209.44116 404.66868 209.48065 404.90601 209.5225 405.095 C 210.15594 408.24137 211.52368 410.95022 212.955 413.62125 C 212.99374 413.65518 213.02696 413.68131 213.06375 413.7125 C 213.62246 414.51347 214.0688 414.67495 214.525 414.21875 C 214.69363 414.05012 214.06043 411.75721 213.11875 409.1225 C 211.56174 404.76619 211.43542 403.99953 211.7175 400.6625 L 212.0275 396.9925 L 211.605 396.9925 L 210.94 396.87 C 210.73264 396.80447 210.55313 396.77752 210.39625 396.7825 z M 215.23625 399.64125 C 215.26468 399.67127 215.2929 399.70118 215.32125 399.73125 C 215.1134 399.84636 215.51421 400.29259 216.88875 401.55 C 217.13638 401.77652 217.363 401.93074 217.60125 402.135 C 217.90613 402.43712 218.21845 402.73497 218.5475 403.025 C 218.65856 403.08472 218.78473 403.14411 218.9 403.20375 C 221.03353 404.75235 223.27266 405.63113 227.5425 406.7575 C 230.16239 407.44862 233.13473 408.05698 236.23375 408.62 C 242.94082 409.97856 250.55275 410.93246 258.09 411.15625 C 258.2162 411.16303 258.34263 411.17849 258.46875 411.185 C 258.58072 411.19078 258.83547 411.17897 258.9575 411.18375 C 260.6535 411.22138 262.34131 411.21683 264.01375 411.175 C 266.84791 411.10837 269.92242 410.97875 272.61625 410.76375 C 275.41382 410.54046 280.19738 409.53863 279.8975 409.23875 C 279.89584 409.23709 279.77146 409.22561 279.7675 409.22375 C 279.79251 409.21741 279.81877 409.21262 279.84375 409.20625 C 265.33232 407.73506 250.90881 405.47977 236.49625 403.11875 C 234.79897 402.79806 233.52557 402.63136 231.72 402.27625 C 227.00759 401.34945 221.79936 400.44617 220.14625 400.26875 C 218.49314 400.09134 216.5763 399.84316 215.8875 399.7175 C 215.69931 399.68317 215.60027 399.68562 215.4875 399.6825 C 215.40371 399.6691 215.32004 399.65463 215.23625 399.64125 z " /><defs
     id="defs1" /><sodipodi:namedview
     id="namedview1"
     pagecolor="#ffffff"
     bordercolor="#000000"
     borderopacity="0.25"
     inkscape:showpageshadow="2"
     inkscape:pageopacity="0.0"
     inkscape:pagecheckerboard="0"
     inkscape:deskcolor="#d1d1d1"
     inkscape:zoom="1.5384523"
     inkscape:cx="451.75271"
     inkscape:cy="299.9768"
     inkscape:window-width="3840"
     inkscape:window-height="2066"
     inkscape:window-x="-11"
     inkscape:window-y="-11"
     inkscape:window-maximized="1"
     inkscape:current-layer="svg1" /></svg>
