<?xml version="1.0" encoding="UTF-8" standalone="no"?>
<svg
   width="509.61636"
   height="699.91431"
   viewBox="0 0 326.15447 447.94516"
   version="1.1"
   id="svg1"
   sodipodi:docname="equipped-marauder-noframe.svg"
   xml:space="preserve"
   inkscape:version="1.3.2 (091e20e, 2023-11-25, custom)"
   inkscape:export-filename="gusev.png"
   inkscape:export-xdpi="96"
   inkscape:export-ydpi="96"
   xmlns:inkscape="http://www.inkscape.org/namespaces/inkscape"
   xmlns:sodipodi="http://sodipodi.sourceforge.net/DTD/sodipodi-0.dtd"
   xmlns="http://www.w3.org/2000/svg"
   xmlns:svg="http://www.w3.org/2000/svg"><path
     id="path3"
     style="display:inline;fill:#000000;fill-opacity:1;stroke:none"
     d="m 163.26161,0.02684453 c -4.45749,-0.14901 -8.31069,0.32422 -12.965,1.37249997 -2.57636,0.580272 -5.68863,1.390748 -9.08125,2.35 -1.32452,0.34479 -2.64628,0.692379 -3.99,1.0175 -20.74158,5.8769325 -38.391553,13.4476325 -53.078753,22.6425005 -3.84889,2.349994 -7.50762,4.71488 -10.53625,6.99125 -4.85046,3.645663 -13.19393,11.171846 -15.69375,14.15625 -1.36271,1.626866 -1.30001,1.604324 2.76,-0.97625 1.7524,-1.113848 4.00059,-2.355267 6.07875,-3.555 16.58939,-9.152132 33.274213,-16.981643 50.071253,-23.26125 11.0726,-3.98065 25.67239,-8.557851 26.7475,-8.25375 0.0257,0.03792 -0.0377,0.104855 -0.0913,0.16875 -0.16514,0.184212 -0.38021,0.398826 -1.06,0.67 -0.90427,0.360717 -6.03996,2.844826 -11.4125,5.52 -1.20847,0.601736 -2.43776,1.283244 -3.655,1.91125 -18.60561,9.431444 -31.229773,17.605652 -41.305003,25.245 -8.77807,6.306756 -15.98029,12.280076 -20.5125,17.175 -0.50504,0.44612 -1.01191,0.892251 -1.51875,1.33875 -0.62905,0.808807 -0.95859,1.330646 -1.16,1.73125 -0.46025,0.661575 -0.55913,1.03545 0.15375,0.84625 0.62304,-0.0569 1.87148,-0.710874 2.75875,-1.02 0.79591,-0.429118 1.61237,-0.884855 2.41,-1.3175 1.09281,-0.53752 1.97305,-0.960179 3.4675,-1.70875 4.13277,-2.070111 9.76856,-5.066527 12.52375,-6.65875 6.52293,-3.769641 12.27885,-6.93379 17.815003,-9.8925 9.99053,-5.191849 20.16357,-10.126958 30.595,-14.3575 6.8198,-2.638187 13.50363,-4.845832 20.585,-6.77875 17.79661,-4.857739 29.75144,-6.549671 46.16125,-6.53375 2.23479,0.0022 4.07407,0.103115 6.0375,0.17 9.58993,0.752735 19.42443,2.592318 29.5375,5.76625 2.26867,0.825492 4.57205,1.661544 5.06125,1.83375 2.17039,0.764005 -4.54489,-3.441562 -9.88,-6.1875 -2.65232,-1.365126 -5.34184,-2.567026 -8.0225,-3.81 -0.60047,-0.289281 -1.20577,-0.576927 -1.81625,-0.8625 -1.37344,-0.621256 -2.73945,-1.252951 -4.1175,-1.84125 -6.92107,-3.022885 -14.47354,-5.8123035 -23.005,-8.2387505 -0.59971,-0.172346 -1.1949,-0.33203 -1.79375,-0.4975 -3.56206,-0.977471 -7.2663,-1.901702 -11.17375,-2.75125 -5.50929,-1.372926 -10.30572,-2.01562397 -14.645,-2.18999997 -0.71925,-0.0525 -1.56448,-0.190834 -2.25,-0.21375 z m 42.39,25.11000047 c -8.87704,-0.03206 -10.40926,0.09604 -16.7825,1.40375 -2.08189,0.427175 -4.24379,0.998125 -6.37875,1.52 -8.80813,1.849568 -18.1475,4.739849 -28.0025,8.905 -8.79164,3.418799 -17.86061,7.516399 -27.09375,12.155 -13.37264,6.233974 -27.887953,13.786311 -41.373753,24.0825 l 0.10125,0.0162 c -0.2051,0.21421 -0.24073,0.34427 -0.15875,0.42625 0.1179,0.1179 3.03253,0.48403 6.47625,0.8125 3.44372,0.32846 6.35521,0.68498 6.47,0.7925 0.50636,0.47424 3.255443,-0.12151 7.481253,-1.345 0.0233,-0.008 0.0492,-0.0135 0.0725,-0.0212 0.33962,-0.10536 0.62256,-0.20045 0.9575,-0.305 2.72092,-0.81028 5.27313,-1.55692 9.8825,-3.12375 17.62989,-5.992767 21.17378,-7.040099 38.00375,-11.2275 11.09571,-2.760675 19.21263,-4.354422 27.3,-5.61625 6.16852,-0.775345 11.98547,-1.303064 17.505,-1.62625 14.01877,-0.299674 34.96009,0.298252 47.86875,1.57375 15.57067,1.538531 29.25158,2.570927 29.59,2.2325 0.18236,-0.18236 -1.09302,-1.513137 -2.8575,-3.205 -3.3374,-3.752703 -8.08617,-7.963986 -14.13875,-11.9375 -0.46263,-0.335129 -1.12775,-0.886273 -1.5075,-1.13625 -4.00232,-2.63457 -9.43955,-5.225878 -15.11125,-7.40875 -0.5729,-0.223972 -1.14941,-0.444301 -1.735,-0.66 -1.09363,-0.398616 -2.15848,-0.783785 -3.255,-1.14125 -1.49293,-0.48897 -3.03305,-0.94034 -4.60125,-1.36875 -0.38262,-0.102612 -0.78251,-0.25066 -1.16125,-0.34625 -0.48612,-0.122691 -0.90033,-0.196173 -1.37375,-0.31125 -0.83042,-0.203028 -1.67852,-0.388188 -2.52875,-0.5725 -8.02164,-1.794882 -14.66836,-2.535068 -23.64875,-2.5675 z m -164.543753,32.21 c -1.32088,1.692946 -2.71094,3.341289 -4.065,5.0125 -3.17256,3.72974 -5.39671,7.29975 -6.60875,10.785 -1.04418,3.00253 -1.1933,4.18474 -1.01,8.045 0.13341,2.80941 0.47698,4.26305 1.11875,5.8875 0.16663,0.63948 0.32089,1.27148 0.53375,1.94125 0.29117,0.3868 0.63802,0.79647 0.94375,1.19 1.04436,1.82939 2.50076,3.9916 3.63875,5.25875 1.76796,1.96864 4.41524,4.27557 7.35375,6.654995 6.54651,6.01111 14.65491,11.79591 24.52,16.0075 1.41124,0.83344 2.32385,1.46731 2.3575,1.71375 -0.31701,0.0255 -1.04172,-0.11123 -1.8875,-0.285 -0.82452,-0.27314 -1.76023,-0.60579 -3.1375,-1.20125 -1.98293,-0.85731 -4.09358,-1.95946 -6.24375,-3.2 -0.17329,-0.10198 -0.35373,-0.19305 -0.52625,-0.29625 -1.6619,-0.97651 -3.35348,-2.11902 -5.03875,-3.26875 -6.39095,-4.43403 -12.31452,-9.69073 -18.11,-15.544995 -0.66644,-0.72577 -1.24351,-1.1261 -1.725,-1.17375 -0.10263,-0.0201 -0.20661,4.6e-4 -0.2975,0.0138 -0.0506,0.0153 -0.10518,0.0165 -0.1525,0.0438 -0.10824,0.0359 -0.2215,0.0274 -0.33375,0.0975 -0.25632,0.16008 -0.44253,0.16368 -0.64625,0.2175 l -1.74125,-0.54125 c -0.22379,-0.0996 -0.44706,-0.19757 -0.67,-0.295 -0.85239,-0.4733 -1.42771,-0.58322 -1.70875,-0.11875 -0.25607,0.2271 -0.43385,0.6506 -0.465,1.44 0.11452,0.58904 0.14982,1.21113 0.18375,1.83375 0.007,0.1864 -0.005,0.27343 0.004,0.47625 0.17864,3.933815 0.12286,4.489405 6.2775,8.244995 5.45483,3.62065 10.53343,6.50814 15.36,8.9625 6.45324,3.51049 11.34654,5.59786 17.85,7.485 7.05267,2.31496 13.35979,3.71372 18.995,4.83375 5.30603,1.0546 10.11691,1.952 14.727503,2.7725 9.85125,1.87408 20.18641,3.59676 32.025,5.29625 l 7.88,1.13125 1.50875,-1.44625 1.50875,-1.445 9.14625,1.33875 c 8.92504,1.30643 15.37768,1.96436 25.8025,2.63 1.48045,0.0945 1.75216,0.16537 2.69125,0.2575 l 2.34,0.2775 c 0.0342,-0.0151 0.0683,-0.0263 0.1025,-0.0412 -1.6e-4,0.0641 -0.24116,1.08331 -0.3275,1.52625 l -1.99125,7.43875 c -0.99488,0.5415 -3.90234,0.85956 -13.46,1.775 -2.32133,0.22234 -4.53114,0.37083 -6.745,0.51875 -6.73066,0.19884 -13.6308,0.0807 -20.70875,-0.35125 -12.18608,-0.74379 -24.91888,-2.44767 -38.2,-5.02625 -4.211973,-0.87476 -8.673873,-1.84695 -13.495003,-2.9425 -10.64223,-2.41835 -30.20014,-7.37282 -34.69125,-8.78875 -0.56067,-0.17676 -0.8839,-0.33509 -1.125,-0.545 -0.11891,-0.16672 -0.22676,-0.34698 -0.30625,-0.55875 -0.13459,-0.39557 -0.17765,-0.97541 -0.18,-1.9775 0.0307,-0.33493 0.0741,-0.68373 0.15625,-1.0775 -0.11945,-0.40424 -0.20674,-0.8045 -0.315,-1.2075 -0.0932,-0.71944 -0.21903,-1.32117 -0.36625,-1.59625 -1.04824,-1.95866 -6.51881,-4.78249 -10.30375,-5.62875 l -1.089,-0.5189 c -0.46107,-0.0311 -0.87743,0.0421 -1.26125,0.19125 -1.36735,0.0677 -1.60312,0.67595 -2.0925,4.85 l -1.0025,4.265 c -0.008,0.003 -0.0174,0.0216 -0.025,0.0225 l -0.2175,-0.87 c -0.002,-0.0643 -0.0156,-0.0535 -0.0162,-0.125 -0.004,-0.40612 -0.0992,-0.76085 -0.29875,-1.13625 l -0.0825,-0.32875 -0.38875,-0.2925 c -0.76392,-0.89396 -2.27204,-2.11854 -5.6,-4.63625 -2.65259,-2.00677 -4.61034,-3.29689 -5.6875,-3.875 l -1.0225,-0.77125 c -0.32104,1.12811 -0.61377,2.28458 -0.89125,3.45625 -0.75546,2.96459 -1.64855,7.14536 -2.06875,10.42125 -0.2283,1.77978 -0.47364,5.6278 -0.685,9.075 -0.0538,0.75505 -0.12485,1.49254 -0.17,2.25625 -0.011,0.2213 -0.0363,0.39413 -0.0463,0.61 l -0.35625,7.6825 0.0613,0.0312 c -10e-4,0.0649 -0.006,0.12633 -0.007,0.19125 0.69292,0.30131 1.39377,0.57862 2.08875,0.87375 l 4.11875,2.10625 c 3.44399,1.76134 6.69595,3.20697 7.22625,3.2125 0.53029,0.006 4.36274,1.12113 8.51625,2.47875 4.55406,1.48854 9.96859,3.01766 15.57625,4.50875 6.44188,1.78661 12.94544,3.38892 19.515,4.7925 0.76094,0.12714 1.50245,0.23053 2.26125,0.355 2.28323,0.47076 4.62233,0.9758 6.76875,1.36875 10.5896,1.93867 33.641383,4.92483 46.461253,6.08125 l -1.585,2.055 c -0.68012,-0.0447 -0.724,-0.0157 -1.58625,-0.0762 -4.24802,-0.29841 -12.57017,-0.88226 -18.49375,-1.29625 -1.40757,-0.0984 -2.37917,-0.19022 -3.86875,-0.3 -7.102343,-0.64566 -14.186993,-1.41421 -21.245003,-2.36125 -8.9424,-1.42988 -21.72344,-3.70823 -33.9975,-6.23125 -3.35891,-0.69044 -4.923,-1.04872 -6.02,-1.39375 -0.23439,-0.0599 -0.4707,-0.10698 -0.705,-0.1675 -1.00576,-0.3708 -1.11803,-0.70748 -1.19,-1.32625 -0.14163,-1.21774 -0.42261,-1.33994 -4.945,-2.14125 -1.04112,-0.18447 -1.30463,-0.18189 -1.95625,-0.28 l -2.31625,-0.4975 -0.335,0.26375 c -0.34558,0.0749 -0.58751,0.21049 -0.78,0.47375 -0.50759,0.69417 -0.90777,0.72733 -2.81875,0.2325 -4.09314,-1.05986 -11.19238,-3.64609 -14.9225,-5.355 -1.60379,-0.76272 -3.14916,-1.58433 -4.6012498,-2.49875 l -0.51,24.325 -0.2275,7.22625 0.0738,0.0462 -0.005,0.265 c 1.2554798,0.66467 2.5089298,1.28053 3.7624998,1.90875 4.84019,2.60758 13.72418,6.66124 19.1925,8.66 2.70972,0.99044 6.75798,2.23954 10.6025,3.35625 4.2693,1.34977 8.53248,2.57518 12.78875,3.6775 l 0.735,2.70625 0.29375,1.4825 0.96875,-1.1975 c 0.53325,-0.65854 1.14565,-1.51074 1.36,-1.89375 0.32716,-0.5846 1.5905,-0.49604 7.87,0.5525 10.41395,1.73888 17.0848,2.60612 31.275,4.06375 6.750133,0.69339 17.167493,1.93956 23.150003,2.76875 15.29065,2.11933 17.71817,2.41982 26.1325,3.235 4.10017,0.39722 7.56378,0.83004 7.69625,0.9625 0.0716,0.0716 -0.18261,0.87495 -0.30625,1.41125 l -1.5825,3.95625 0.6425,-0.39625 c -0.0172,0.0855 -0.12875,0.40708 -0.12875,0.445 0,0.23895 1.40574,-0.7024 3.12375,-2.0925 0.934,-0.75574 1.24622,-0.90955 1.89625,-1.37375 l 1.71815,-1.06245 c 0.28474,0.078 1.56606,0.99201 3.05375,2.20375 1.54963,1.26219 2.8944,2.21809 2.98875,2.12375 0.15926,-0.15926 -0.47494,-3.20913 -1.01,-5.33875 l -0.25375,-1.41625 c 1.8256,-0.058 3.72478,-0.0464 5.64375,-0.0175 l 0.19375,0.0187 c 6.05963,0.5722 19.49177,0.35425 25.33125,-0.41125 3.11695,-0.4086 8.92411,-1.43365 12.905,-2.2775 1.01139,-0.21439 2.69587,-0.45851 4.09875,-0.695 1.50039,-0.22919 3.0045,-0.47566 4.49,-0.63875 4.3842,-0.48132 8.67698,-1.05542 12.9225,-1.68 21.94389,-2.64318 47.53738,-9.65473 63.06875,-17.46375 l 2.4325,-1.2225 c 0.41636,-0.19637 0.85082,-0.36816 1.265,-0.5675 l 3.545,4.72625 c 0.56327,0.92893 1.36788,2.15624 1.3675,2.34125 -6.4e-4,0.31066 0.30791,0.8208 0.685,1.13375 0.55673,0.46205 1.06655,-0.35094 2.71375,-4.3225 0.24283,-0.5855 0.39239,-0.91336 0.58625,-1.37 l 1.66875,-3.19 c 0.58973,-0.71005 1.28,-1.10318 2.59625,-1.7775 0.83692,-0.42875 1.73275,-1.04229 2.53,-1.675 1.41321,-1.08369 2.45578,-2.32111 3.2475,-3.66375 l -0.89125,-33.645 c -0.0728,0.0371 -0.14227,0.0801 -0.215,0.1175 l -10e-4,-0.035 -0.66875,0.40125 c -3.00742,1.57918 -5.94787,3.29049 -8.93625,4.86125 -3.7235,1.7542 -7.61541,3.21691 -11.5075,4.40375 -2.51248,0.65912 -5.07447,1.28734 -7.625,1.92375 -0.37945,0.0733 -0.77477,0.19667 -1.15125,0.2625 -6.24194,1.0915 -25.58664,5.38872 -39.47,8.70875 -5.67418,1.08964 -11.35627,2.1196 -17.015,3.08625 -4.20275,0.71793 -8.12786,1.36922 -12.10875,2.03 -4.63223,0.67528 -8.53337,1.3304 -11.66,1.955 -0.39646,0.0674 -0.77977,0.12931 -1.17875,0.1975 l -0.98,0.2675 c -1.22808,0.27148 -2.77491,0.54064 -3.8025,0.8175 l -6.75,1.81875 -13.39,-0.79 -25.08,-1.73 -3.57125,1.25 c -0.45423,0.12839 -0.93111,0.21556 -1.39,0.28625 -3.19324,-0.14033 -6.38444,-0.29768 -9.575,-0.45625 -0.34993,-0.0813 -0.86875,-0.16788 -0.86875,-0.235 0,-0.45571 3.22567,-2.03462 9.22,-4.51375 l 3.9525,-1.635 c 0.0666,0.001 0.14069,0.006 0.2075,0.008 l 13.87375,0.7925 c 13.35001,0.76193 14.27391,0.75916 19.3475,-0.11875 5.69031,-0.50755 10.95641,-1.11468 16.87625,-0.0675 1.18409,0.11401 2.28795,0.13878 3.32625,0.0937 0.99658,0.0858 1.93016,-0.0792 2.99,-0.6325 0.16226,-0.0862 0.30873,-0.18985 0.4525,-0.29625 1.50731,-0.87808 3.45335,-2.39878 7.21375,-5.42375 l 5.0175,-4.03625 0.1525,-0.11375 2.29,2.08125 c 0.29394,0.20859 0.6151,0.38625 0.96,0.5375 0.77185,0.52356 1.5052,0.82 2.58875,0.82 0.18726,0 0.83398,-0.0968 1.13375,-0.12 5.55795,0.14883 13.45038,-2.33008 19.465,-2.695 2.30039,-0.72207 4.78783,-1.33961 7.04625,-2.085 1.1085,-0.31469 1.97704,-0.64977 2.7175,-1.05125 1.04212,-0.47643 1.98501,-1.00766 2.72625,-1.65125 l 2.165,-2.165 2.045,-1.76 2.865,0.28875 c 0.49591,0.0499 1.72575,0.22108 2.54125,0.31875 l 6.62125,1.0275 c 0.60437,0.0347 1.0685,0.0135 1.57125,0.008 3.1087,0.34416 3.74838,-0.18867 8.3675,-3.7875 0.84532,-0.6586 1.56105,-1.15364 2.085,-1.46875 l 0.12,-0.0787 c 0.46662,-0.27108 0.70939,-0.33581 0.6825,-0.17875 l -0.135,0.54 c -0.45721,1.33545 -0.84346,2.93567 -0.95875,3.82875 l -0.16125,0.6425 0.0625,-0.015 c 0.004,0.0182 -0.0351,0.16243 -0.0275,0.17 0.20011,0.20011 13.81604,-3.28383 17.16125,-4.39125 l 0.22375,-0.0737 1.61,-0.39875 0.001,-0.135 0.16875,-0.0562 v -11.54 c 0,-1.21565 -0.0149,-1.83326 -0.0175,-2.82625 l 0.0563,-5.4275 c -0.0532,-0.68199 -0.1908,-1.29967 -0.3225,-1.92125 -0.32111,-2.67716 -1.03052,-3.71341 -2.81125,-5.63125 l -1.2125,-1.30625 -17.29,5.77625 -17.29125,5.7775 -2.5963,3.6427 c -1.19445,1.67597 -2.06101,2.63729 -2.555,3.06875 l -0.51,0.59625 c -0.25853,0.009 -2.24815,-1.02625 -4.44,-2.31125 l -3.995,-2.3425 -17.84,2.89125 c -0.3394,0.055 -0.67065,0.10107 -1.0125,0.15625 -3.99148,0.53455 -8.12334,1.14676 -12.3325,1.90625 -16.47977,2.55676 -32.31965,4.88696 -32.515,4.67375 -0.0437,-0.0477 0.32426,-1.57134 0.53625,-2.55375 l 2.10125,-7.18625 c 0.27095,-0.13457 3.85562,0.21667 16.02625,1.5925 1.19874,0.13551 1.32068,0.10921 2.20125,0.20375 l 0.6675,0.0738 c 0.17929,0.002 0.35637,0.0279 0.535,0.0375 3.33203,0.32826 5.0679,0.36434 6.03125,-0.15125 0.59235,-0.20209 1.19146,-0.47859 1.805,-0.91375 1.73179,-0.90137 3.47421,-1.88675 5.21375,-2.8475 5.2184,-2.84057 10.31968,-5.61575 13.76375,-7.42 2.06644,-1.03713 4.12011,-1.97934 6.16125,-2.8225 1.3362,-0.4756 2.74891,-0.93143 3.945,-1.245 1.6861,-0.44203 4.09475,-1.14391 6.35875,-1.79375 l 1.89375,5.41125 2.1225,-6.56 4.1,-1.23375 -0.345,3.22375 -0.345,3.2225 3.9225,-1.78625 c 2.15754,-0.98214 4.59845,-2.17962 5.425,-2.6625 0.82656,-0.48288 4.28995,-2.18454 7.69625,-3.78125 3.1911,-1.49584 4.74897,-2.14377 5.67625,-2.34 0.78028,0.0648 1.27644,0.55924 1.6425,1.2525 0.29903,0.90025 0.60562,2.10028 0.81625,3.5475 0.32057,2.20266 0.63031,4.06281 0.6875,4.13375 0.0915,0.11349 12.78132,-5.81084 13.2,-6.1625 0.0899,-0.0755 -0.42395,-2.34657 -1.1425,-5.04625 -0.23682,-0.88976 -0.36885,-1.84761 -0.55125,-2.75375 -0.28094,-1.65773 -0.54345,-3.32083 -0.75375,-4.99875 -0.15485,-1.47532 -0.32049,-2.86469 -0.425,-4.733745 -0.18863,-3.37329 -0.43721,-5.47819 -0.77,-7.09875 -0.13959,-1.84304 -0.62966,-3.26586 -2.11625,-3.4925 -0.32767,-0.0913 -0.68444,-0.14606 -1.1,-0.14875 -0.38914,-0.003 -0.53996,-0.0879 -0.69625,-0.18375 -0.23541,-0.30433 -0.0937,-0.77664 -0.0613,-1.2 0.37569,-2.08685 0.52322,-3.97758 0.5175,-5.7375 0.31007,-4.77422 -0.54524,-8.05194 -3.23,-12.19625 -1.99315,-3.076699 -7.37241,-9.634736 -7.83125,-9.5675 -0.0387,-0.04781 -0.0802,-0.09332 -0.11875,-0.14125 0.0543,0.149184 0.087,0.293853 0.13875,0.4425 0.0106,0.306188 0.12155,0.886889 0.445,1.795 0.63302,1.777285 0.80343,4.312996 0.57875,6.33625 -0.0707,0.42347 -0.10973,0.8538 -0.23375,1.26625 -0.0141,0.0559 -0.0312,0.1035 -0.0462,0.1575 -0.14077,0.44138 -0.32236,0.8737 -0.53,1.30125 -1.73788,2.93331 -6.57547,6.00823 -13.215,8.84625 -10.05546,3.74871 -21.62471,6.72815 -34.02,9.27125 -0.0149,-0.01 -0.0377,-0.008 -0.0513,-0.02 l 0.3925,-6.99875 c 0.51859,-2.26321 1.71967,-2.51108 6.6325,-3.79375 1.05178,-0.2746 2.74171,-0.59089 4.175,-0.9225 l 11.7625,-2.51625 c 1.6784,-0.32285 3.12341,-0.63842 4.1475,-0.88875 0.42393,-0.0871 0.83217,-0.18806 1.20875,-0.3175 2.1667,-0.64875 3.05717,-1.33642 4.58,-2.8825 l 2.40875,-2.44625 -0.325,-0.10875 c 0.0129,-0.0134 0.0245,-0.0279 0.0375,-0.0413 -4.25295,-1.66191 -8.68824,-3.048561 -13.24125,-4.2125 -13.15404,-4.026108 -21.62905,-5.024416 -41.88875,-5.04125 -18.87715,-0.01568 -26.73376,0.562327 -41.32875,3.04 -10.19298,1.730381 -27.87775,6.21967 -29.6875,7.38625 -0.0971,0.0311 -0.21238,0.0614 -0.30875,0.0925 0.0737,0.007 0.14759,0.0147 0.22125,0.0212 -0.0482,0.0885 0.0102,0.15488 0.32,0.16625 1.84186,0.0676 6.01206,0.47104 9.95875,0.85 23.95402,2.60715 48.07852,6.91199 72.35375,12.73125 l 0.1375,3.8575 0.13125,3.695 c -7.28019,1.36614 -14.71018,2.69813 -22.1375,4.245 -1.63782,0.28521 -2.56171,0.45817 -4.1875,0.73625 -5.65923,0.96797 -10.93784,2.21427 -14.175,3.345 l -5.1575,1.801245 -4.73,-0.19125 c -5.49626,-0.4192 -10.99465,-0.56804 -16.46875,-1.316245 -4.08876,-0.55852 -8.76471,-1.31807 -16.32625,-2.66125 -6.1991,-1.10116 -14.65223,-2.58072 -18.785,-3.28875 -3.38001,-0.57907 -7.45414,-1.28346 -10.6525,-1.8375 -15.72948,-2.88941 -31.524623,-5.85151 -47.326253,-8.6475 -3.76947,-0.83369 -6.98026,-1.60813 -9.1475,-2.2825 -1.53317,-0.47707 -3.22994,-1.10051 -4.95,-1.7925 -2.25376,-1.16275 -4.50405,-2.3902 -7.06625,-3.25375 -0.26049,-0.1344 -0.5358,-0.27006 -0.78375,-0.4025 -3.85624,-2.29839 -5.85735,-4.45256 -6.77625,-6.525 -0.10309,-0.28368 -0.24854,-0.54696 -0.32375,-0.84375 -0.0693,-0.22207 -0.13869,-0.4446 -0.18625,-0.665 -0.14323,-0.811303 -0.14357,-1.688686 -0.0913,-2.59 0.1626,-1.830412 0.72538,-3.630127 1.20375,-5.43625 l 0.5975,-1.75125 -0.27875,0.3025 c 0.0404,-0.206229 0.10475,-0.410584 0.13625,-0.6175 z m 95.627503,19.1475 c -7.76436,-0.0204 -14.57967,0.59062 -20.5375,1.77125 -4.72808,1.25355 -2.88363,2.03009 0.0975,2.725 2.74521,0.67398 5.48939,1.33415 8.2325,1.985 15.35607,3.87865 39.19717,9.01219 49.1925,10.45 0.0639,0.009 1.28036,-0.34987 1.72375,-0.4575 l 21.4975,-5.14 c 2.80452,-0.58996 6.27303,-1.31154 6.165,-1.325 -0.019,-0.002 -1.19177,-0.26522 -1.34375,-0.2975 -12.15698,-3.01038 -23.20451,-5.28251 -33.21375,-6.865 -2.7975,-0.49125 -5.58551,-1.02211 -8.48375,-1.46875 -4.17513,-0.64342 -7.9216,-0.87576 -12.9575,-1.00125 -3.62766,-0.2387 -7.09089,-0.36762 -10.3725,-0.37625 z m 95.13125,3.40875 1.545,0.15125 1.545,0.15 -0.0337,0.945 -0.2675,5.12875 c -0.10902,1.68975 -0.23075,3.52183 -0.36375,3.68625 -0.109,0.0216 -0.21088,0.0473 -0.32,0.0687 -0.98734,0.19439 -2.01599,0.37479 -3.0125,0.565 -0.1372,-0.0924 -0.26125,-0.18848 -0.26125,-0.41625 0,-0.42249 0.26359,-2.90839 0.585,-5.52375 z m -43.1075,56.683745 c 0.84418,0.034 1.3625,0.25969 1.3625,0.67125 0,0.0446 -0.0572,0.28744 -0.0612,0.3475 l -2.14375,8.6225 c -0.33387,0.17987 -1.12628,0.42369 -2.15,0.59 l -2.1025,0.34125 0.55,-1.96125 2.66625,-7.75625 c 0.13497,-0.18573 0.27421,-0.34957 0.42,-0.46 0.48629,-0.14677 0.97246,-0.27948 1.45875,-0.395 z m -55.43,39.8325 c 0.0386,0.005 0.0781,0.009 0.10375,0.0112 1.19071,0.0977 1.4448,0.17057 2.02875,0.245 0.49357,0.0618 0.99014,0.12692 1.48375,0.18875 0.17914,0.0779 0.22469,0.17384 0.1725,0.30125 l -0.9425,0.85625 c -0.80469,0.40364 -2.22411,0.43635 -5.12625,0.27625 z m 178.57625,17.62375 -4.45625,2.89625 0.41875,94.8925 -0.001,5.78125 0.0275,0.15625 v 0.105 c 0.0403,0.1858 0.074,0.3717 0.11375,0.5575 l 1.11375,6.445 c 0.69004,3.99501 1.68698,12.67388 2.21625,19.28625 2.18347,27.27869 4.84923,53.06325 5.335,51.5975 0.0913,-0.27552 0.96492,-3.43202 1.94125,-7.01375 1.66041,-6.09132 3.20451,-13.14584 4.4925,-20.2525 l 1.05375,-4.275 c 0.41271,-2.09103 0.67662,-4.66582 0.81375,-7.6525 0.33313,-2.47079 0.6686,-4.95255 0.89875,-7.2575 0.4343,-4.34964 0.38307,-6.78445 -0.27125,-12.77375 -1.59252,-14.57739 -5.97537,-53.05724 -8.945,-78.53375 -1.4522,-12.45838 -4.305,-41.24125 -4.305,-43.435 0,-0.40023 -0.0778,-0.57538 -0.39625,-0.47375 -0.007,0.002 -0.0349,0.0249 -0.0425,0.0275 -0.002,-0.025 -0.005,-0.0525 -0.007,-0.0775 z m -298.246253,2.215 -12.5799998,110.0825 c -0.44052398,3.57602 -0.64860898,7.24288 -0.70499998,10.925 -0.410968,4.72905 -0.508968,7.8101 -0.165,11.41375 1.18658598,12.43155 3.42438698,24.64705 6.46624998,36.03375 1.46862,5.78183 2.64875,9.58625 2.64875,9.58625 0.005,-0.0519 0.009,-0.1043 0.0138,-0.15625 l 0.185,0.61625 0.3725,-2.96125 c 0.2049098,-1.62821 0.9478198,-10.87077 1.6512498,-20.53875 2.82054,-38.76529 3.61527,-51.69327 4.98875,-81.1975 0.9491,-20.3879 2.26375,-58.80977 2.26375,-66.13625 v -5.6125 l -2.37625,-0.945 c -1.30742,-0.51958 -2.51323,-1.00855 -2.67875,-1.08625 -3.2e-4,-1.5e-4 -9.3e-4,0.0101 -10e-4,0.01 z m 9.33875,3.99 -0.2725,6.60875 c -2.399,25.09647 -2.94717,49.6463 -2.235,72.8625 0.0959,18.81857 0.91514,36.62048 2.55125,49.955 1.46689,11.95534 3.83208,26.4519 6.51,40.51125 7.72692,45.49977 17.59983,74.3041 18.765,72.5175 -0.0336,-0.13001 -0.0586,-0.39002 -0.09,-0.55375 0.081,0.16325 0.32892,0.93734 0.35625,0.90625 0.0818,-0.0931 -0.17425,-5.12866 -0.56875,-11.19 -0.53834,-8.27125 -0.6356,-16.09042 -0.39,-31.345 l 0.3275,-20.32625 -2.055,-4.09625 -1.27625,-2.7275 c -0.73056,-1.55003 -1.57019,-3.30178 -1.555,-3.47875 l 0.94,0.47 c 0.57088,0.32686 1.03461,0.54816 2.13625,1.38 1.63104,1.23159 3.24041,2.24516 3.5775,2.2525 0.1001,0.002 -0.19592,-0.57106 -0.36125,-0.95625 l 0.295,0.1475 -6.15375,-10.8225 c -0.0453,-0.35952 -0.0192,-0.68644 0.0487,-1.04875 0.77837,-4.1491 1.85535,-18.01933 2.12625,-27.3825 0.15083,-5.2131 0.0309,-10.70826 -0.31625,-16.94 -0.56673,-15.29697 -1.93129,-25.58307 -2.46625,-29.14625 -1.45816,-15.52151 -3.12433,-34.94454 -3.905,-46.14125 -0.0793,-1.62514 -0.18999,-3.41493 -0.25125,-4.93625 -0.18683,-3.7104 -0.3095,-8.21032 -0.36375,-12.94875 -0.0806,-6.04815 -0.0106,-10.61442 0.0875,-13.94625 0.0522,-1.31401 0.0915,-2.88132 0.17375,-3.55625 0.1153,-0.94629 0.1362,-1.51067 0.065,-1.92 0.006,-0.0774 0.0375,-0.7725 0.0375,-0.7725 l -0.68,0.20125 c -0.55954,-0.0603 -1.46067,0.13697 -3.21,0.6025 l -2.635,0.7 -8.84875,-4.84625 c -0.006,0.0514 -0.009,0.10233 -0.015,0.15375 z m 270.191253,2.93 -0.73625,0.3375 c -0.8348,0.23426 -2.02777,0.70248 -3.46375,1.4675 l -1.6975,0.90375 -2.3475,1.07875 0.3625,5.65 -10e-4,1.175 c -0.008,12.11505 1.80551,45.61181 3.76375,69.54625 0.91209,11.148 1.88742,21.59035 2.72375,30.5575 l 0.0588,0.91375 c 0.0154,0.0681 0.026,0.13211 0.0412,0.2 0.27268,2.90134 0.80119,9.305 0.92625,10.39625 0.26908,2.34795 0.49024,5.72455 0.4925,7.5025 0.002,1.77168 -0.56564,7.64951 -1.16375,13.24125 -0.71191,4.44804 -1.53351,8.92216 -2.20125,13.67875 -0.32034,-0.34737 -0.77384,-1.27848 -1.38625,-2.91125 -3.63207,-9.68357 -7.27849,-18.96247 -8.34375,-21.23 l -1.1775,-2.505 -0.0362,1.19125 -0.0738,-0.17875 c -0.44982,8.75682 -0.86577,17.55989 -1.40875,26.1925 -0.3796,5.01964 -0.75403,10.07994 -1.2325,15.16875 l -0.56625,6.02 c -0.36888,3.20909 -0.76841,6.37578 -1.24875,9.43625 0.24441,0.46309 0.48986,1.09028 0.73625,1.80375 l 0.81625,4.07375 c 3.14051,15.68845 5.53694,31.93387 6.36,43.1075 0.32937,4.47143 0.68088,8.04787 0.78125,7.9475 0.10037,-0.10037 0.85744,-2.51929 1.6825,-5.375 0.21956,-0.75996 0.39168,-1.53631 0.6075,-2.2975 13.46178,-45.18374 18.31517,-89.27188 18.9425,-126.94 0.8675,-27.69331 -0.29353,-53.56715 -3.5525,-73.325 -0.67474,-4.0907 -1.39743,-7.61295 -2.12625,-11.605 -1.58621,-9.95981 -3.12369,-17.27278 -4.195,-21.32625 -0.12435,-0.51585 -0.18232,-0.62472 -0.29125,-1.04125 -0.32919,-1.15931 -0.6444,-2.24546 -0.825,-2.6125 -0.008,-0.006 -0.0343,-0.12607 -0.0412,-0.12875 -0.007,-0.003 -0.0473,0.0158 -0.055,0.0138 -0.0442,-0.0555 -0.0977,-0.15439 -0.12375,-0.1275 z m -55.41,11.4725 -0.52875,0.06 -1.3625,0.007 c -1.06331,0.005 -4.18731,0.33581 -6.9425,0.735 -2.75518,0.39918 -5.20458,0.73251 -5.4425,0.74125 -0.0162,6.1e-4 -0.0131,0.0816 -0.0275,0.0913 l -0.17875,0.02 c 0.0763,3.61642 -0.24632,6.97599 -2.36125,9.17875 -0.0743,0.0729 -0.14554,0.14827 -0.2225,0.2175 -0.2963,0.28115 -0.62323,0.5427 -0.9875,0.78 -0.71899,0.4364 -1.50642,0.76217 -2.34875,0.9475 -3.1932,0.42854 -5.93265,-0.18102 -8.15875,-1.96875 -0.35242,-0.3044 -0.69004,-0.62489 -0.97625,-0.98875 l -1.01,-1.285 -5.04875,2.82 c -0.56014,0.31287 -0.93424,0.57726 -1.43875,0.88125 l -2.75875,1.55625 c -0.23188,0.24666 -0.45085,0.49668 -0.55875,0.78625 -0.0421,0.0576 -0.29125,0.21816 -0.29125,0.25375 0,0.0827 0.19667,0.27115 0.255,0.38625 0.0853,0.35008 0.34313,0.75914 0.87125,1.2625 0.44445,0.34501 0.89339,0.6873 1.34625,1.0275 1.67465,1.36007 3.8995,2.882 5.92375,3.92375 l 3.375,1.7375 1.75875,-0.0513 c 4.56957,0.19174 8.68464,0.0327 12.3525,-0.53 2.05398,-0.19193 3.65294,-0.44827 4.925,-0.85875 0.58838,-0.18986 1.42694,-0.57749 2.28625,-0.99125 2.4213,-0.93604 4.56171,-2.15603 6.425,-3.6875 0.92499,-0.63466 1.63663,-1.18855 1.83375,-1.5075 0.028,-0.0453 -0.17527,0.0369 -0.21375,0.0275 0.0184,-0.0187 0.0379,-0.0362 0.0562,-0.055 -0.053,0.0231 -0.10579,0.0457 -0.15875,0.0687 -0.33148,0.0332 -1.1493,0.33838 -2.4575,0.99875 -0.54816,0.27671 -1.22153,0.50612 -1.86625,0.75 -0.75563,0.26816 -1.51062,0.51417 -2.26625,0.71125 -0.327,0.0812 -0.65543,0.17092 -0.94125,0.22 -0.32404,0.0685 -0.64846,0.12896 -0.9725,0.17875 l -1.5975,0.16 c -0.17855,0.008 -0.3577,0.0143 -0.53625,0.015 l 2.62,-1.3675 c 4.08738,-2.13379 7.13437,-7.67106 7.46375,-13.56375 l 0.2025,-3.63125 h -0.045 c 0.001,-0.0192 0.003,-0.0383 0.004,-0.0575 z m -150.982503,0.0575 0.0125,0.1925 -0.0712,-0.009 c 0.10593,1.77956 0.24876,3.5503 0.545,5.27875 0.0896,0.55066 0.19768,1.08328 0.3325,1.60625 0.62507,2.61996 1.70556,5.11732 3.69375,7.37125 -0.001,0.0292 0.0307,0.0834 0.025,0.10875 -0.0815,0.3632 1.09215,1.42967 2.6075,2.37 l 0.555,0.345 c 0.67099,0.47192 1.40316,0.92687 2.2,1.365 l -2.86375,-0.2125 c -0.21471,-0.0159 -0.37762,-0.0852 -0.58125,-0.10875 -1.58578,-0.38837 -3.17172,-0.97235 -4.7575,-1.625 -0.0602,-0.0356 -0.11028,-0.0443 -0.17125,-0.0812 l -2.6475,-1.60375 1.095,0.95625 c -0.19457,-0.0843 -0.38918,-0.16772 -0.58375,-0.2525 3.51561,3.59993 8.23048,5.80623 14.170003,6.88375 0.42862,0.0822 0.87367,0.14998 1.31625,0.21875 0.32265,0.0482 0.65298,0.0892 0.9825,0.13125 0.66552,0.0868 1.3489,0.1606 2.04625,0.21875 3.32318,0.2877 6.95874,0.30327 10.9325,0.065 1.18236,-0.50093 2.28458,-1.04868 3.335,-1.625 0.25926,-0.12311 0.3953,-0.13499 0.68625,-0.27875 3.34613,-1.65335 8.36992,-5.66433 8.33625,-6.655 -0.007,-0.21127 -2.3866,-1.68161 -5.28875,-3.2675 l -5.2775,-2.8825 -1.21625,1.445 c -2.65874,3.15973 -8.07715,4.09251 -11.27125,1.94 -1.26197,-0.85044 -2.1723,-1.8573 -2.7725,-3.05875 -0.0301,-0.0707 -0.0629,-0.13942 -0.0913,-0.21125 -0.15612,-0.33875 -0.2458,-0.72172 -0.35375,-1.0925 -0.13162,-0.49513 -0.23363,-1.00967 -0.30875,-1.54125 -0.0581,-0.519 -0.13201,-1.02581 -0.11875,-1.6025 0.0172,-0.74671 -0.0436,-0.99774 -0.0712,-1.42 -0.002,-0.375 -0.009,-0.74703 -0.001,-1.12875 l -0.12625,-0.015 c -0.15149,-0.32158 -0.39048,-0.47169 -0.81375,-0.565 -1.471263,-0.32432 -10.490943,-1.26 -12.146253,-1.26 z m -34.00625,2.97875 c -0.46377,0.0859 -0.84083,0.98465 -1.08625,3.10125 -0.5449,2.22223 -0.70668,4.57037 -0.60375,7.005 -0.0109,5.11637 1.17884,11.23255 3.8125,19.3025 l 1.00625,3.08125 8.03125,5.30875 8.0325,5.30875 h 3.625 c 2.18233,0.0544 4.23869,0.041 6.16625,-0.0437 5.92102,-0.0272 7.61271,-0.19164 12.11125,-1.48875 0.19569,-0.0564 0.71427,-0.24028 0.92875,-0.30375 2.6679,-0.63238 5.13503,-1.36811 7.466253,-2.16375 2.26916,-0.77446 4.44358,-1.6008 6.615,-2.4475 8.5553,-2.90104 16.60873,-5.73752 16.40625,-5.94 -0.0173,-0.0173 -0.80805,0.0586 -0.945,0.0537 0.14061,-0.0484 0.26935,-0.0966 0.41125,-0.145 -0.42489,0.0714 -0.80151,0.12352 -1.21375,0.19 -1.02475,0.0229 -2.00863,0.0303 -4.28875,0.2425 -11.42359,1.06308 -15.52175,0.75318 -21.936253,-1.66125 -6.63711,-2.49822 -17.29397,-8.33657 -22.13,-11.89875 -0.71947,-0.61472 -1.40555,-1.26936 -2.00125,-1.965 -0.51669,-0.60338 -0.97664,-1.23308 -1.3875,-1.87375 -0.49904,-0.99776 -0.97515,-2.10159 -1.28125,-3.12125 l -0.97625,-3.25125 -0.085,0.26125 c -0.003,-0.0249 -0.009,-0.0514 -0.0125,-0.0763 l -2.5725,7.975 3.955,7.52875 0.02,0.0525 c -7.67729,-5.4506 -11.18312,-13.15695 -15.9375,-20.1875 -0.79319,-1.72083 -1.53372,-2.95421 -2.13,-2.84375 z m 219.862503,3.5 c -0.0189,-0.008 -0.0517,0.0526 -0.0712,0.05 -0.12029,0.0191 -0.26962,0.12489 -0.45,0.31875 -0.0782,0.0934 -0.17574,0.20203 -0.27125,0.3475 -0.23567,0.31692 -0.49951,0.71781 -0.83625,1.32875 -1.6843,2.28332 -2.97146,4.68894 -4.44375,7.0375 -1.54465,2.18373 -3.04273,4.09969 -4.21125,5.45625 -0.78804,0.78434 -1.67784,1.5376 -2.67125,2.25875 -2.67789,1.67636 -6.84648,3.77375 -7.8275,3.77375 -0.40754,0 0.14676,-1.20354 1.41,-3.06375 0.14566,-0.21449 0.14288,-0.27249 0.26875,-0.4625 0.20441,-0.28047 0.40645,-0.55924 0.62375,-0.85 0.16602,-0.306 0.30356,-0.62478 0.4225,-0.9525 0.4562,-0.95919 0.64823,-1.76657 0.51375,-2.87 -0.13879,-1.13867 -0.52028,-2.74594 -0.8475,-3.5725 l -0.595,-1.50375 -0.31,0.44125 c -0.031,-0.0551 -0.0517,-0.10568 -0.0838,-0.16125 -0.66256,0.95851 -1.33906,1.87145 -2.0275,2.7475 -3.49133,3.97792 -10.63851,9.74577 -15.12875,12.0825 -4.42601,1.95751 -9.34418,3.11093 -14.88125,3.5825 -1.84192,0.0233 -3.61749,0.0314 -7.31875,-0.08 -5.78582,-0.17418 -11.42167,-0.44555 -12.52375,-0.6025 -2.00444,-0.28547 1.12894,1.05129 13.6725,5.83375 0.66477,0.25345 1.44348,0.50676 2.145,0.7625 5.84427,2.40715 12.23631,4.69846 19.09,5.9 1.6051,0.38244 3.03148,0.68757 3.91625,0.78125 1.33965,0.14184 4.17359,0.14016 6.83125,0.14875 5.0284,0.14042 10.12532,0.15533 15.385,-0.4975 l 2.78875,-0.2125 0.08,-0.20875 c 0.0209,-0.004 0.0416,-0.005 0.0625,-0.009 1.55785,-3.4874 3.06574,-7.02402 4.9525,-10.1825 0.0705,-0.0914 0.14701,-0.24249 0.21625,-0.3275 1.22677,-1.50614 2.40341,-3.3535 2.61375,-4.105 0.0561,-0.20054 0.0752,-1.1376 0.11875,-1.6125 l 0.0738,-0.2375 -0.005,-0.70625 c 0.27329,-4.57921 0.20957,-13.94283 -0.12125,-18.0275 l -0.002,-0.4325 c -0.0489,-0.59146 -0.0939,-1.19335 -0.2025,-1.61125 -0.008,-0.019 -0.0109,-0.17303 -0.0188,-0.18625 -0.0213,-0.0358 -0.0407,-0.0361 -0.0612,-0.0675 -0.0591,-0.13221 -0.13224,-0.22319 -0.22625,-0.25375 -0.0163,-0.0102 -0.0322,-0.0484 -0.0488,-0.055 z m -111.99875,12.67875 c -1.03668,0.0296 -1.96276,0.12828 -2.9475,0.1975 l -1.8775,-0.0437 c -1.58329,-0.0109 -3.06175,0.32458 -4.4625,0.9175 -0.0438,0.0128 -0.13025,0.0182 -0.1725,0.0312 -1.30177,0.40167 -2.30015,1.02722 -3.74,2.3775 -4.2149,3.38573 -7.83953,8.72269 -11.8,12.95 l 0.009,0.001 -0.2025,0.2275 2.40875,0.3325 c 1.3249,0.18251 4.43783,0.37399 6.9175,0.42625 1.08809,0.0229 1.78128,0.0474 2.36375,0.085 l 0.68625,0.0637 c 0.15458,0.0305 0.26138,0.0682 0.25375,0.11875 l -34.61875,8.50875 c -0.34212,0.0821 -0.66298,0.15742 -0.99625,0.2375 -11.60527,2.7885 -16.888933,4.09364 -20.535003,4.6975 -2.65403,0.29711 -5.39295,0.3446 -8.24,0.0775 -1.13127,-0.1661 -2.10089,-0.30575 -3.78625,-0.55 l -0.21375,-0.0312 c -0.50593,-0.0955 -1.00745,-0.17891 -1.52,-0.29375 0.0565,0.0333 0.11345,0.0643 0.17,0.0975 l -0.18875,-0.0275 2.355,1.50625 c 6.00448,3.8379 23.443123,12.19555 31.992503,15.42375 1.09049,0.46834 2.17822,0.95285 3.27,1.41375 l -2.26875,0.12375 c -3.41445,-0.16234 -6.72171,-0.48876 -9.92625,-0.97 -10.759723,-2.01915 -26.649853,-7.01271 -43.832503,-13.94375 -1.15919,-0.46759 -1.93033,-0.64743 -2.2375,-0.565 -0.006,-0.002 -0.0117,-0.004 -0.0175,-0.006 l 0.0138,0.0175 c -0.28174,0.0891 -0.13785,0.41808 0.54375,0.98375 0.28128,0.23344 2.12842,2.59557 3.81,4.75125 l 5.54375,7.30125 -3.80875,5.935 c 5.62334,8.92165 12.54645,16.03861 20.56,21.6425 0.25743,0.18332 0.58882,0.48369 0.83125,0.645 0.4878,0.32457 1.34626,0.79684 2.00125,1.1925 3.43542,2.18607 7.05056,4.12381 10.8425,5.815 0.8244,0.41686 1.59633,0.84904 2.222503,1.22 1.99405,1.40768 3.74699,2.88726 5.395,4.39875 0.33064,0.32794 0.57077,0.54664 0.95,0.92875 2.43285,2.4513 3.62585,3.62205 3.8375,4.29625 -0.0611,0.30996 -0.26879,0.57667 -0.60125,0.80625 -0.43205,0.15362 -1.03846,0.28289 -1.87875,0.47125 -0.0645,0.0145 -0.11392,0.003 -0.175,0.0138 -0.46508,-0.0507 -1.02861,-0.18775 -2.4475,-1.08 -0.47287,-0.37233 -0.92919,-0.7826 -1.39,-1.1825 -0.3785,-0.35545 -0.5024,-0.40014 -0.99625,-0.88125 -3.432463,-3.34394 -3.681483,-3.48643 -7.557503,-4.3125 -2.20414,-0.46976 -6.97434,-1.49131 -10.60125,-2.27125 l -6.595,-1.41875 0.255,0.4175 -0.0713,-0.015 0.7175,1.07 1.095,1.78875 c 1.09769,1.79343 3.24457,5.04251 4.77125,7.22125 l 2.7375,3.905 -0.095,2.8275 -0.225,4.64125 -0.35875,7.4125 2.87375,5.8425 c 0.33235,0.67568 0.61616,1.13 0.93875,1.735 l 1.26875,2.6 c 0.30706,0.3301 0.49454,0.48336 0.715,0.685 0.2138,0.2738 0.54591,0.8225 0.63625,0.8225 0.37702,0 0.68625,-0.22002 0.68625,-0.49 0,-0.0473 -0.30705,-0.81168 -0.36,-0.9875 -0.0451,-0.24618 -0.0695,-0.44444 -0.1425,-0.75875 l -1.0525,-2.5175 c -0.24062,-0.62587 -0.22595,-0.68337 -0.50125,-1.3725 l -2.055,-5.14375 0.19875,-6.1175 c 0.10935,-3.36429 0.3505,-6.26799 0.535,-6.4525 0.026,-0.026 0.61711,0.27536 0.78875,0.3325 l 16.835003,9.065 h 12.885 c 0.97302,0.0106 1.97914,-0.0925 3.00125,-0.25375 1.97577,-0.16423 3.26187,-0.49801 5.17125,-1.36375 1.13451,-0.51441 3.14601,-1.22008 5.2825,-1.915 l 9.7725,-2.74 c -0.0227,-0.0172 -0.0485,-0.0329 -0.0712,-0.05 l 0.32125,-0.0875 -2.08875,-1.14375 c -1.47105,-0.95304 -3.09355,-1.82736 -4.8975,-2.60875 -3.65476,-1.8442 -6.16349,-2.48505 -15.5125,-4.205 -2.9864,-0.54941 -4.2967,-0.84489 -5.44625,-1.185 -1.09844,-0.47206 -2.12807,-1.03547 -3.08,-1.705 -0.15154,-0.16049 -0.27848,-0.26416 -0.455,-0.45875 -1.98289,-2.18592 -3.5909,-4.43356 -3.59625,-5.025 -0.002,-0.20073 0.50383,-0.14773 1.12375,0.1175 1.15302,0.49331 6.16347,1.87381 10.9625,3.1225 1.76929,0.53504 3.55464,1.01617 5.38375,1.34875 0.37138,0.0841 1.09337,0.28762 1.395,0.35 2.2254,0.46022 4.65655,0.65689 5.8175,0.47125 1.76314,-0.28194 2.36336,-0.078 5.1825,1.75875 l 3.18875,2.0775 8.64375,-0.34375 c 4.75385,-0.18939 11.56087,-0.53914 15.1275,-0.7775 l 6.485,-0.43375 7.6575,-3.8675 c 5.60806,-2.59922 11.30921,-5.05926 17.01875,-7.50625 l 5.6875,-2.0575 0.41125,1.26125 0.0888,0.74375 c 0.13776,1.15272 0.39401,2.09625 0.57,2.09625 0.17599,0 1.38931,-1.29872 2.69625,-2.88625 2.30587,-2.80093 4.95431,-4.9344 8.84875,-7.29375 1.54847,-0.79486 3.17214,-1.43429 4.895,-1.9125 0.67434,-0.11918 1.25156,-0.26405 2.15,-0.34 2.0641,-0.17448 4.5752,-0.45664 5.7775,-0.64125 0.67092,-0.004 1.3094,-0.0485 2.01,-0.015 l -0.2725,3.5475 -0.13125,0.955 1.2775,-1.20125 c 0.70283,-0.66028 1.88861,-2.16547 2.63375,-3.345 l 1.35375,-2.14375 3.5075,-0.01 c 0.10479,-2.9e-4 0.20782,-0.0137 0.3125,-0.015 5.79392,-0.0225 11.27773,-1.43398 16.365,-4.62625 1.94306,-1.16041 3.78332,-2.50486 5.46125,-4.065 2.85907,-2.65836 5.1544,-5.44794 5.52,-6.615 0.028,-0.039 0.0571,-0.0734 0.085,-0.1125 l -0.035,-0.006 c 0.0139,-0.0608 0.0937,-0.17731 0.0937,-0.22625 0,-0.15219 -1.46538,-0.43446 -3.25625,-0.62625 -1.62172,-0.17367 -2.70729,-0.35351 -2.94875,-0.45125 1.67582,-1.51559 3.01816,-3.05916 4.1125,-4.625 1.53636,-1.64734 2.45958,-2.97376 3.29125,-5.2175 1.13677,-3.06684 2.51792,-9.29395 3.2275,-14.10375 0.0904,-0.34053 0.16273,-0.68267 0.26125,-1.0225 0.41295,-1.31366 0.40254,-1.97124 0.0962,-2.17125 -0.11046,-0.62184 -0.74531,-0.21074 -3.03125,1.32375 -0.61563,0.41326 -1.33782,0.81909 -1.98875,1.21875 -3.48761,1.9332 -7.15768,3.75209 -10.88375,5.53625 -4.8362,2.25546 -10.63081,4.8718 -21.44125,9.62625 -2.20989,0.97192 -9.70264,6.28055 -10.8525,7.68875 -0.83488,1.02246 -4.00865,12.20222 -4.435,15.62375 -0.19785,1.58788 -0.53711,2.99659 -0.755,3.13125 -0.46068,0.28472 -2.97202,-1.67151 -4.99,-3.6775 -1.26543,-1.461 -2.44915,-2.94915 -3.26125,-4.56125 -8.85183,-1.33798 -17.47288,-3.29114 -26.1125,-5.195 -2.34505,-0.56729 -4.89228,-1.13146 -6.91125,-1.66625 -8.8915,-2.35522 -14.92667,-3.25208 -22.58375,-3.355 l -6.51125,-0.0875 -0.28625,0.14 c -0.10906,-0.004 -0.21437,-0.005 -0.32375,-0.009 -0.54878,0.33 -1.35586,0.77038 -1.99125,1.1375 l -1.30125,0.635 -3.9025,1.9025 -10.625,-0.0512 c -5.15195,-0.0253 -9.36647,-0.21514 -11.355,-0.40875 -1.22518,-0.1263 -2.44206,-0.27697 -3.645,-0.47 l 1.87,-0.0613 c 8.03774,-0.26336 21.68508,-3.46017 27.05125,-6.3375 1.06565,-0.57139 2.22535,-1.12028 3.25875,-1.565 1.24292,-0.42201 2.50481,-0.765 3.7775,-1.01625 2.1211,-0.11601 5.52081,0.26403 9.8225,1.03875 l 18.65,4.40875 c 1.1123,0.30535 2.08689,0.5329 3.2375,0.86125 8.47187,2.41761 13.5023,3.39682 15.01375,2.9775 0.82596,-0.0161 1.20349,-0.25166 0.1525,-1.18625 -0.0636,-0.0397 -0.0829,-0.0675 -0.13375,-0.10375 -0.0146,-0.015 -0.0123,-0.0235 -0.0275,-0.0387 -0.2099,-0.2099 -0.33376,-0.3614 -0.30875,-0.44875 0.001,-0.002 0.004,-0.004 0.005,-0.006 0.0993,-0.2536 1.61109,0.0989 6.555,1.34875 2.87665,0.72721 4.40437,1.16125 5.71625,1.65125 0.32328,0.12428 0.65271,0.23971 0.97,0.3725 1.13352,0.50264 2.09453,1.08456 3.5425,2.0725 l 2.1025,1.435 2.0075,-3.4375 c 3.43293,-5.04215 9.15139,-10.31326 18.9,-15.99 1.84661,-1.03388 3.63983,-2.07376 5.71,-3.08125 l 9.09,-4.42375 -6.9325,-0.28125 c -2.48608,-0.10094 -4.15273,-0.2466 -5.75,-0.45 -4.03497,-0.79226 -7.9767,-1.77189 -11.7775,-3.0325 l -39.66125,-11.3125 c -4.94249,-1.36698 -9.18947,-2.60702 -9.385,-2.75625 l 9.92875,0.13875 2.625,0.10625 -1.53875,-1.41625 c -0.80781,-0.7432 -4.09091,-3.67383 -7.3,-6.52 -1.59885,-1.50945 -2.87202,-2.72291 -6.03875,-5.65 l -0.4175,-0.0738 -4.125,-0.78375 c -2.54032,-0.48246 -6.4897,-0.64746 -10.29875,-0.53875 z m 95.72375,71.46 -1.1925,0.25375 c -4.68078,0.99292 -9.70308,2.21184 -13.87375,3.31 l -2.7625,0.645 c -0.91802,0.28455 -1.81245,0.62436 -2.69625,0.98875 -0.53025,0.17913 -1.91266,0.52497 -2.14875,0.6425 -1.23983,0.61723 -4.71054,2.61276 -7.7125,4.435 -0.87181,0.52921 -1.57177,0.90014 -2.3475,1.33625 l -3.6675,1.8125 c -0.008,-2.8e-4 -0.072,0.0351 -0.0788,0.0337 -0.34983,-0.0717 -1.8562,0.91987 -3.34625,2.2025 l -1.76875,1.5225 -0.95875,0.7125 -0.28875,-0.475 -0.61125,-1.13375 c -0.1921,-0.35671 -0.28958,-0.3741 -0.47375,-0.64875 l -0.6862,-1.12745 c -0.026,0.0272 -0.0515,0.0552 -0.0775,0.0825 -0.001,-8e-5 -0.007,-0.0125 -0.009,-0.0125 -0.18032,0 -0.80539,0.64597 -1.38875,1.435 -0.56586,0.54283 -1.15738,1.02953 -1.8425,1.31 -0.43645,0.13426 -1.18585,0.22721 -1.95125,0.3175 -2.05333,0.19077 -4.12249,0.42441 -6.2175,0.735 -4.15098,0.52914 -7.02697,1.17059 -9.70125,2.15125 -2.52521,0.76682 -5.1128,1.71184 -7.805,2.95875 -6.44841,2.06292 -13.51516,3.50726 -20.45625,5.0775 -0.66847,0.10893 -1.27184,0.29804 -1.84375,0.525 -1.46501,0.46475 -2.41873,1.0187 -3.6275,2.3275 l -1.1525,1.2475 c -0.24407,0.2536 -0.49226,0.50228 -0.735,0.7575 -2.9784,0.59323 -5.92802,1.24393 -8.8725,1.905 l -2.64,0.515 c -6.24884,1.22001 -12.9451,2.69001 -14.88,3.26625 -0.044,0.0131 -0.12806,0.0256 -0.17375,0.0387 -3.69617,0.70558 -7.43218,1.33022 -11.25625,1.78 -0.64832,0.0929 -1.04539,0.20097 -1.26625,0.32 -0.0131,0.007 -0.1924,0.0224 -0.19875,0.0288 -0.0268,0.0268 0.0549,0.0723 0.0462,0.1025 -0.26315,0.32549 0.48529,0.71306 1.12375,1.09375 l 1.4275,0.2275 c 0.89777,0.27731 1.81448,0.58211 2.7725,0.69375 3.66495,0.42711 41.15108,6.24437 41.78125,6.48375 0.27551,0.10467 6.02362,0.2051 12.77375,0.22375 l 8.07,0.0225 4.3325,0.075 6.83875,-4.3075 4.52625,-2.7575 h 1.27375 c 0.81751,0.034 1.62704,0.0383 2.425,0 h 0.39875 c 4.06784,0 4.14366,-0.0242 10.78375,-3.39625 3.67803,-1.86779 10.63218,-5.64286 15.45375,-8.39 6.49847,-3.7026 9.03552,-5.43118 11.7175,-7.955 1.36358,-1.13316 2.69118,-2.34571 3.975,-3.655 0.0747,-0.0562 0.51813,-0.49445 0.5325,-0.49 0.11519,0.20591 0.20486,0.42624 0.30625,0.64 0.13186,0.3435 0.22801,0.567 0.42625,1.15375 0.77574,2.29604 0.71494,5.24725 -0.17625,8.5675 -0.26872,1.00114 -0.26439,1.35229 -0.38,1.97125 -0.067,0.19929 -0.11725,0.38871 -0.19,0.59125 0.009,0.0814 0.0232,0.1383 0.0337,0.21375 -0.11869,1.11234 0.0282,1.73125 0.7525,1.73125 0.60657,0 0.93005,-0.31658 1.25,-1.32375 0.008,-0.0123 0.0156,-0.0201 0.0238,-0.0325 0.85665,-2.32512 1.29113,-4.78057 1.305,-7.365 0.13068,-1.36569 0.027,-2.79687 -0.3875,-4.47375 -0.0372,-0.20998 -0.0774,-0.42087 -0.12,-0.6325 -0.0228,-0.088 -0.0135,-0.10668 -0.0375,-0.19875 -0.41899,-1.60494 -0.62462,-2.85218 -0.7675,-3.835 -0.10651,-1.6759 0.35891,-2.62916 0.8225,-3.58625 0.0442,-0.0875 0.10566,-0.19757 0.1525,-0.28875 l 5.79375,-9.79125 c 0.21226,-0.33034 0.35351,-0.60398 0.56875,-0.93375 z m -23.91,35.11875 c -0.0288,0 -0.88064,0.52067 -1.1,0.63875 -6.95119,3.69997 -14.00612,7.38488 -21.37625,11.025 -0.61521,0.28982 -1.12086,0.51705 -1.72125,0.79625 -2.41191,0.87161 -4.70126,1.95624 -6.9025,3.19375 -0.23688,0.10171 -0.6484,0.30915 -0.8725,0.40375 -1.56382,0.66013 -4.14173,2.4574 -6.76125,4.59125 -2.13049,1.55097 -4.22501,3.1652 -6.31875,4.78 -0.07,0.0376 -0.23042,0.15854 -0.28375,0.18125 l -29.305,3.59875 c 0.10093,0.0208 0.20271,0.0394 0.30375,0.06 -0.0411,0.0142 -0.47282,0.0497 -0.4625,0.06 0.29829,0.2983 12.75235,2.18571 17.67625,2.67875 2.75518,0.27588 8.05301,0.654 11.7725,0.84 l 6.7625,0.3375 0.10375,-0.08 c 0.0158,0.001 0.0317,0.003 0.0475,0.004 l 9.81625,-7.425 c 0.87319,-0.5893 1.57628,-1.03122 1.6425,-0.965 0.14977,0.14978 0.37519,1.69383 0.5,3.43125 0.0692,0.96346 -0.016,1.6382 -0.085,2.3675 -0.0935,0.64571 -0.22373,1.3351 -0.39,2.06375 -0.25293,0.89184 -0.49793,1.73212 -1.08625,3.205 -1.36348,3.41377 -1.63848,4.57168 -1.15875,4.87625 0.34604,0.21969 0.75986,0.40328 0.92,0.4075 0.0224,5.6e-4 0.2613,-0.60256 0.315,-0.68375 0.0645,-0.0684 0.12435,-0.12511 0.19625,-0.21375 0.83168,-1.92949 1.76979,-3.69323 2.435,-5.88 1.22047,-3.37526 1.32824,-5.07345 0.74,-9.245 l -0.165,-1.165 c -0.0241,-0.18896 -0.0401,-0.36597 -0.0675,-0.56 1.6331,-0.28074 3.43053,-1.05162 5.38625,-2.295 1.92998,-0.97575 3.4552,-2.20233 6.3175,-4.95375 2.46161,-2.36625 5.63599,-5.76663 7.05375,-7.5575 3.01954,-3.81421 5.94602,-7.93006 5.9225,-8.285 0.0401,-0.0557 0.0786,-0.10661 0.11875,-0.1625 -0.008,0.004 -0.0166,0.009 -0.025,0.0138 -0.003,-0.002 0.0559,-0.0825 0.0512,-0.0825 z m -132.677503,4.44875 0.17375,0.18625 -0.19625,-0.0775 6.563753,7.0325 c 1.6941,1.87399 3.57155,3.93155 4.53375,5.06875 1.0378,1.22655 1.99408,2.13044 2.71125,2.695 l 0.61375,0.6575 3.69375,0.89125 c 1.23293,0.33598 1.74267,0.45365 3.35875,0.91375 3.15204,0.89739 6.55057,1.64962 9.88375,2.28 l 1.975,0.47625 c 0.70352,0.0649 1.4024,0.11572 2.1025,0.17125 1.0108,0.14889 2.13842,0.38705 3.07,0.48875 2.13543,0.23314 8.10942,0.19565 14.64125,0.0425 0.25707,-0.004 0.51344,-0.009 0.77,-0.0138 8.57455,-0.21519 18.08415,-0.65005 22.58625,-1.1725 3.51678,-0.4081 5.15907,-0.66051 6.45,-0.8675 0.62772,-0.0653 1.26587,-0.12787 1.89,-0.19375 l 0.0613,-0.0687 c 0.002,-0.001 0.1132,-0.0138 0.11375,-0.015 0.0411,-0.0913 0.90797,-1.06466 1.92625,-2.1625 l 1.8525,-1.99625 -4.785,-0.0575 -20.1738,-0.46625 c -0.87715,-0.0571 -1.30387,-0.14663 -1.95125,-0.21875 l -6.46,-1.0525 c -7.63902,-1.5284 -22.66018,-3.96348 -30.3975,-4.94625 l -2.5875,-0.42125 c -4.32558,-0.53075 -8.40346,-1.88664 -12.5175,-3.1225 -0.0938,-0.0333 -0.18502,-0.0653 -0.27875,-0.0987 l -7.525,-2.99875 z m 17.212503,18.885 c -0.67981,0.0216 -0.91595,0.64776 -0.9725,1.38625 -0.37682,2.32701 -0.33253,4.40313 -0.0125,6.315 0.0299,0.18493 0.0694,0.42226 0.11125,0.61125 0.63344,3.14637 2.00118,5.85522 3.4325,8.52625 0.0387,0.0339 0.072,0.0601 0.10875,0.0913 0.55871,0.80097 1.00505,0.96245 1.46125,0.50625 0.16863,-0.16863 -0.46457,-2.46154 -1.40625,-5.09625 -1.55701,-4.35631 -1.68333,-5.12297 -1.40125,-8.46 l 0.31,-3.67 h -0.4225 l -0.665,-0.12255 c -0.20736,-0.0655 -0.38687,-0.0925 -0.54375,-0.0875 z m 4.84,2.85875 c 0.0284,0.03 0.0566,0.0599 0.085,0.09 -0.20785,0.11511 0.19296,0.56134 1.5675,1.81875 0.24763,0.22652 0.47425,0.38074 0.7125,0.585 0.30488,0.30212 0.6172,0.59997 0.94625,0.89 0.11106,0.0597 0.23723,0.11911 0.3525,0.17875 2.13353,1.5486 4.37266,2.42738 8.6425,3.55375 2.61989,0.69112 5.59223,1.29948 8.69125,1.8625 6.70707,1.35856 14.319,2.31246 21.85625,2.53625 0.1262,0.007 0.25263,0.0222 0.37875,0.0288 0.11197,0.006 0.36672,-0.006 0.48875,-10e-4 1.696,0.0376 3.38381,0.0331 5.05625,-0.009 2.83416,-0.0666 5.90867,-0.19625 8.6025,-0.41125 2.79757,-0.22329 7.58113,-1.22512 7.28125,-1.525 -0.002,-0.002 -0.12604,-0.0131 -0.13,-0.015 0.025,-0.006 0.0513,-0.0111 0.0763,-0.0175 -14.51143,-1.47119 -28.93494,-3.72648 -43.3475,-6.0875 -1.69728,-0.32069 -2.97068,-0.48739 -4.77625,-0.8425 -4.71241,-0.9268 -9.92064,-1.83008 -11.57375,-2.0075 -1.65311,-0.17741 -3.56995,-0.42559 -4.25875,-0.55125 -0.18819,-0.0343 -0.28723,-0.0319 -0.4,-0.035 -0.0838,-0.0134 -0.16746,-0.0279 -0.25125,-0.0412 z" /><defs
     id="defs1" /><sodipodi:namedview
     id="namedview1"
     pagecolor="#ffffff"
     bordercolor="#000000"
     borderopacity="0.25"
     inkscape:showpageshadow="2"
     inkscape:pageopacity="0.0"
     inkscape:pagecheckerboard="0"
     inkscape:deskcolor="#d1d1d1"
     inkscape:zoom="1.5384523"
     inkscape:cx="305.50183"
     inkscape:cy="248.62649"
     inkscape:window-width="3840"
     inkscape:window-height="2066"
     inkscape:window-x="-11"
     inkscape:window-y="-11"
     inkscape:window-maximized="1"
     inkscape:current-layer="svg1" /></svg>
