<?xml version="1.0" encoding="UTF-8" standalone="no"?>
<svg
   width="800"
   height="800"
   viewBox="0 0 512 512"
   version="1.1"
   id="svg1"
   sodipodi:docname="equippedframe5.svg"
   xml:space="preserve"
   inkscape:version="1.3.2 (091e20e, 2023-11-25, custom)"
   inkscape:export-filename="body2essai.png"
   inkscape:export-xdpi="96"
   inkscape:export-ydpi="96"
   xmlns:inkscape="http://www.inkscape.org/namespaces/inkscape"
   xmlns:sodipodi="http://sodipodi.sourceforge.net/DTD/sodipodi-0.dtd"
   xmlns="http://www.w3.org/2000/svg"
   xmlns:svg="http://www.w3.org/2000/svg"><defs
     id="defs1" /><sodipodi:namedview
     id="namedview1"
     pagecolor="#ffffff"
     bordercolor="#000000"
     borderopacity="0.25"
     inkscape:showpageshadow="2"
     inkscape:pageopacity="0.0"
     inkscape:pagecheckerboard="0"
     inkscape:deskcolor="#d1d1d1"
     inkscape:zoom="1.0762344"
     inkscape:cx="-73.404082"
     inkscape:cy="171.43105"
     inkscape:window-width="3840"
     inkscape:window-height="2066"
     inkscape:window-x="-11"
     inkscape:window-y="-11"
     inkscape:window-maximized="1"
     inkscape:current-layer="svg1" /><path
     id="path2"
     style="display:inline;fill:#000000;fill-opacity:1;stroke:none;stroke-width:3.02727"
     d="m 257.42875,84.670021 c -0.46259,0.0028 -0.96351,0.05344 -1.44125,0.075 -0.47025,-0.0222 -0.96169,-0.07106 -1.41625,-0.07375 v 0.08125 c -23.72453,0.467401 -62.18245,19.006909 -84.67875,40.962499 -6.81797,6.6541 -10.94719,13.82037 -19.9075,34.55125 -14.0941,32.60851 -42.57548,87.88627 -66.883751,129.80875 -29.75315,51.3129 -30.2725,52.52797 -30.1775,70.645 0.14629,27.8753 11.602038,44.43459 40.46375,58.49 18.842201,9.17601 21.974241,9.90676 23.660001,5.51375 2.57379,-6.70707 -1.20004,-12.02996 -12.985,-18.31125 -25.942743,-13.82735 -45.835305,-30.41644 -38.086251,-55.17375 2.266806,-7.2421 5.858936,-15.06749 8.66375,-19.48375 l 13.00375,-20.47625 c 10.616458,-14.32609 29.003251,-37.81699 40.858751,-52.2025 11.85547,-14.38548 22.54121,-27.90004 23.74625,-30.03125 2.00679,-3.54909 0.7428,-1.93229 0.79,3.39125 0.0283,3.1968 -0.51174,11.96344 -2.0875,21.55375 -3.88667,23.65535 -2.92685,32.72085 1.8775,43.88875 5.28462,12.28457 14.84558,19.65974 26.99875,20.8275 13.12508,1.2612 25.8946,-6.18787 42.91375,-25.03625 12.73104,-14.09946 22.35688,-21.1519 32.40875,-21.2675 0.25156,0.009 0.50182,0.057 0.7525,0.09 v 0.0225 c 0.0309,-0.002 0.0617,-0.008 0.0925,-0.0112 0.0342,0.004 0.0683,0.01 0.1025,0.0125 v -0.025 c 0.25068,-0.033 0.50094,-0.0813 0.7525,-0.09 10.05187,0.1156 19.67771,7.16804 32.40875,21.2675 17.01915,18.84838 29.78867,26.29745 42.91375,25.03625 12.15317,-1.16776 21.71413,-8.54293 26.99875,-20.8275 4.80435,-11.1679 5.76417,-20.2334 1.8775,-43.88875 -1.57576,-9.59031 -2.11583,-18.35695 -2.0875,-21.55375 0.0472,-5.32354 -1.21679,-6.94034 0.79,-3.39125 1.20504,2.13121 11.89078,15.64577 23.74625,30.03125 11.8555,14.38551 30.24229,37.87641 40.85875,52.2025 l 13.00375,20.4762 c 2.80482,4.41626 6.39694,12.24165 8.66375,19.48375 7.74905,24.75731 -12.14352,41.3464 -38.08625,55.17375 -11.78497,6.28129 -15.55879,11.60418 -12.985,18.31125 1.68576,4.39301 4.8178,3.66226 23.66,-5.51375 28.86171,-14.05541 40.31746,-30.6147 40.46375,-58.49 0.095,-18.11703 -0.42435,-19.3321 -30.1775,-70.645 C 404.59048,248.15129 376.1091,192.87354 362.015,160.26502 353.05469,139.53414 348.92547,132.36787 342.1075,125.71377 319.6112,103.75818 281.15328,85.218672 257.42875,84.751271 Z m -34.8525,45.873749 c 1.05515,-0.058 1.10771,0.68796 -0.4875,2.69125 0,0 -31.71344,39.00629 -59.0175,57.66125 0,0 -10.51519,10.68395 -5.93625,-3.73125 0,0 5.9365,-14.0766 10.685,-25.60875 0,0 1.69555,-6.95314 8.64875,-11.3625 0,0 24.7602,-17.46784 20.18125,-9.3275 0,0 -1.69614,6.44526 5.59625,0.34 0,0 16.5616,-10.45548 20.33,-10.6625 z m 34.195,41.9975 v 0.004 c 8.40316,0.21497 17.47225,3.15289 32.0025,9.86625 10.22811,4.72571 27.25266,14.37512 40.70875,23.08 -14.73285,0.30406 -49.05323,2.12135 -56.385,3.17875 -6.33152,0.91315 -10.93633,1.3103 -15.66875,1.21375 v -0.0488 c -0.43844,0.0133 -0.89049,-0.0253 -1.33125,-0.0337 v -0.004 c -0.0238,-1.9e-4 -0.0487,0.001 -0.0725,0.001 -0.0404,-4.2e-4 -0.0824,-0.003 -0.1225,-0.002 v 0.006 c -0.44076,0.008 -0.89281,0.047 -1.33125,0.0337 v 0.0488 c -4.73242,0.0966 -9.33723,-0.3006 -15.66875,-1.21375 -7.33177,-1.0574 -41.65215,-2.87469 -56.385,-3.17875 13.45609,-8.70488 30.48064,-18.35429 40.70875,-23.08 14.53025,-6.71335 23.59934,-9.65128 32.0025,-9.86625 v -0.004 c 0.21721,0.009 0.44848,0.0512 0.67375,0.08 v 0.0225 c 0.03,-0.002 0.062,-0.008 0.0925,-0.0112 0.0339,0.003 0.0692,0.0104 0.1025,0.0125 v -0.025 c 0.22527,-0.0288 0.45654,-0.0708 0.67375,-0.08 z M 309.75,216.47002 c 13.4447,-0.36486 28.33314,2.9988 39.41875,7.72875 l 1.27125,25.1875 c 0.726,14.38551 0.75808,28.92768 0.0713,32.31625 -2.30965,11.39489 -12.85501,17.35679 -25.31125,14.31 h -10e-4 c -15.39131,-3.7661 -34.12649,-21.9225 -46.0675,-44.64625 -6.12072,-11.64788 -5.51643,-15.96157 -3.88875,-19.68125 2.72155,-6.22298 11.14859,-9.90543 21.73875,-13.52 3.96641,-1.03771 8.28718,-1.57338 12.76875,-1.695 z m -107.50125,0.001 h 0.001 c 4.48111,0.12169 8.80147,0.65739 12.7675,1.695 10.59016,3.61457 19.0172,7.29702 21.73875,13.52 1.62768,3.71968 2.23197,8.03337 -3.88875,19.68125 -11.94101,22.72375 -30.67619,40.88015 -46.0675,44.64625 -12.45624,3.04679 -23.0016,-2.91511 -25.31125,-14.31 -0.68678,-3.38857 -0.65475,-17.93074 0.0713,-32.31625 l 1.27125,-25.1875 c 11.08527,-4.7298 25.97313,-8.09337 39.4175,-7.72875 z m 55.18,74.00625 c -0.178,0.0193 -0.35592,0.0397 -0.53375,0.0612 -0.0412,-0.005 -0.0825,-0.009 -0.12375,-0.0137 v 0.0288 c -0.26025,0.0132 -0.51705,0.069 -0.77625,0.0962 -0.2558,-0.0276 -0.50936,-0.082 -0.76625,-0.095 v -0.0285 c -0.0412,0.005 -0.0825,0.009 -0.12375,0.0138 -0.17783,-0.0215 -0.35575,-0.0419 -0.53375,-0.0613 v 0.12375 c -4.07741,0.20675 -8.12237,1.00408 -12.055,2.37625 -9.80555,2.63838 -17.56377,8.24772 -23.29,17.03875 -1.57579,2.41918 -3.89993,5.1661 -6.3875,7.71625 -6.88316,4.72512 -23.48369,16.38373 -28.09375,22.14625 0,0 -1.53453,1.4807 -2.31875,3.89625 -0.44245,0.76374 -0.74375,1.44879 -0.74375,1.95875 0,0.15566 0.22375,0.78028 0.30375,1.105 0.0487,1.48163 0.47014,3.13553 1.5475,4.91 l 0.7825,1.71125 c 1.83648,4.63128 4.42771,10.71309 7.3775,17.18375 3.06852,6.73112 5.22876,11.07016 7.13,14.525 l 1.66625,3.6425 c 0,0 0.7228,0.98346 1.98375,2.26125 0.0998,0.12147 0.19495,0.19371 0.29375,0.3075 0.0238,0.0233 0.0371,0.0403 0.0613,0.0637 0.97632,1.11053 1.92427,1.89055 2.92125,2.42625 1.29305,0.91726 2.81018,1.78283 4.5175,2.45 2.60871,1.96216 5.4008,5.10065 7.62625,8.785 2.8853,4.77683 10.8909,12.12298 14.69684,14.26206 17.99669,9.00768 38.75203,5.86627 49.12598,-0.57092 3.80594,-2.13908 9.50438,-8.91531 12.38968,-13.69214 2.22545,-3.68435 5.01754,-6.82284 7.62625,-8.785 1.70732,-0.66717 3.22445,-1.53274 4.5175,-2.45 0.99698,-0.5357 1.94493,-1.31572 2.92125,-2.42625 0.0242,-0.0234 0.0374,-0.0405 0.0612,-0.0638 0.0988,-0.11379 0.19395,-0.18603 0.29375,-0.3075 1.26095,-1.27779 1.98375,-2.26125 1.98375,-2.26125 l 1.66625,-3.6425 c 1.90124,-3.45484 4.06148,-7.79388 7.13,-14.525 2.94979,-6.47066 5.54102,-12.55247 7.3775,-17.18375 l 0.7825,-1.71125 c 1.07736,-1.77447 1.49877,-3.42837 1.5475,-4.91 0.08,-0.32472 0.30375,-0.94934 0.30375,-1.105 0,-0.50996 -0.3013,-1.19501 -0.74375,-1.95875 -0.78422,-2.41555 -2.31875,-3.89625 -2.31875,-3.89625 -4.61006,-5.76252 -21.21059,-17.42113 -28.09375,-22.14625 -2.48757,-2.55015 -4.81171,-5.29707 -6.3875,-7.71625 -5.72623,-8.79103 -13.48445,-14.40037 -23.29,-17.03875 -3.93263,-1.37217 -7.97759,-2.1695 -12.055,-2.37625 z m -0.6575,15.455 v 0.0375 c 0.13564,0.004 0.27191,-0.015 0.4075,-0.01 4.24343,0.15769 8.46091,1.01481 12.59375,2.58625 10.44351,3.971 25.44096,17.57846 33.375,29.385 1.10198,2.65028 1.98452,5.38655 2.63875,8.18125 1.40295,7.90012 1.46518,14.50558 0.75625,20.19375 -1.77408,10.95998 -6.98069,21.07427 -14.87,28.88625 -10.93696,9.79325 -22.48486,14.67113 -34.24375,14.68 v -0.0225 c -0.44486,0.007 -0.88751,-0.0334 -1.33125,-0.0512 v -0.006 c -0.0271,5.8e-4 -0.0541,0.003 -0.0813,0.004 -0.0379,-10e-4 -0.0758,-0.004 -0.11375,-0.005 v 0.009 c -0.44374,0.018 -0.88639,0.0582 -1.33125,0.0512 v 0.0225 c -11.75889,-0.009 -23.30679,-4.88675 -34.24375,-14.68 -7.88931,-7.81198 -13.09592,-17.92627 -14.87,-28.88625 -0.70893,-5.68817 -0.6467,-12.29363 0.75625,-20.19375 0.65423,-2.7947 1.53677,-5.53097 2.63875,-8.18125 7.93404,-11.80654 22.93149,-25.414 33.375,-29.385 4.13284,-1.57144 8.35032,-2.42856 12.59375,-2.58625 0.13559,-0.005 0.27186,0.014 0.4075,0.01 v -0.0375 c 0.22551,0.01 0.44929,0.0536 0.67375,0.0838 v 0.0237 c 0.0309,-0.002 0.0616,-0.008 0.0925,-0.0112 0.0342,0.004 0.0682,0.0102 0.1025,0.0125 v -0.0268 c 0.22446,-0.0302 0.44824,-0.0739 0.67375,-0.0838 z m 0.6575,15.1875 c -0.18639,0.0178 -0.37264,0.037 -0.55875,0.0575 -0.0329,-0.003 -0.0658,-0.007 -0.0988,-0.01 v 0.02 c -0.26082,0.007 -0.51782,0.0582 -0.7775,0.08 -0.25541,-0.0225 -0.50837,-0.0717 -0.765,-0.0788 v -0.02 c -0.033,0.003 -0.0658,0.007 -0.0987,0.01 -0.18611,-0.0205 -0.37236,-0.0397 -0.55875,-0.0575 v 0.115 c -1.95749,0.0522 -3.90814,0.25363 -5.835,0.6025 -6.76277,1.06781 -13.28321,3.76159 -18.7525,8.36375 -6.43485,5.41455 -12.22981,15.60671 -14.28125,25.115 -2.94966,13.67139 7.62238,31.86973 22.775,39.205 5.58547,2.7039 11.25282,3.88245 16.75125,3.90625 v -0.085 c 0.51657,-0.0681 1.02563,-0.0351 1.5425,-0.001 v 0.085 c 5.49843,-0.0238 11.16578,-1.20235 16.75125,-3.90625 15.15262,-7.33527 25.72466,-25.53361 22.775,-39.205 -2.05144,-9.50829 -7.8464,-19.70045 -14.28125,-25.115 -5.46929,-4.60216 -11.98973,-7.29594 -18.7525,-8.36375 -1.92686,-0.34887 -3.87751,-0.55029 -5.835,-0.6025 z m -0.44125,9.04125 h 10e-4 c 15.28813,1.1008 27.38878,13.3694 28.27875,28.67125 l 0.002,0.05 c 0.6905,16.34436 -11.62773,30.32704 -27.92875,31.7025 -0.90554,-0.18878 -1.7729,-0.0927 -2.6825,0.002 -16.30027,-1.37556 -28.6185,-15.35824 -27.928,-31.7026 l 0.002,-0.05 c 0.88997,-15.30185 12.99062,-27.57045 28.27875,-28.67125 h 0.001 c 0.30558,0.0242 0.59355,0.10057 0.89,0.1525 v 0.0325 c 0.0319,-0.004 0.0622,-0.0116 0.0937,-0.0163 0.034,0.005 0.0668,0.0135 0.10125,0.0175 v -0.035 c 0.29645,-0.0519 0.58442,-0.12828 0.89,-0.1525 z m 95.14125,8.0125 c -0.76778,-0.0298 -1.52795,0.0266 -2.2625,0.17625 -3.35701,0.684 -32.28469,59.37481 -33.4375,67.8375 -0.48877,3.58776 0.81912,5.56899 5.485,8.3125 l 6.12625,3.6025 15.04875,-29.19125 c 8.27679,-16.05539 13.53529,-26.51464 14.9425,-27.6825 4.62188,-3.83581 5.57946,-0.61961 -2.30875,16.32125 -12.81671,27.52528 -17.93767,40.74004 -16.8675,43.52875 1.16996,3.04892 12.04969,3.59485 18.99625,0.95375 3.33713,-1.26876 8.02437,-8.93615 17.73,-29.005 14.51031,-30.00385 15.21771,-35.35875 5.66875,-42.87 -6.26107,-4.92495 -7.97703,-4.88394 -13.51125,0.315 l -4.48375,4.2125 v -6.10625 c 0,-5.79224 -5.75182,-10.19647 -11.12625,-10.405 z m -192.2575,10e-4 c -5.37443,0.20853 -11.12625,4.61276 -11.12625,10.405 v 6.10675 l -4.48375,-4.2125 c -5.53422,-5.19894 -7.25018,-5.23995 -13.51125,-0.315 -9.54896,7.51125 -8.84156,12.86615 5.66875,42.87 9.70563,20.06885 14.39287,27.73624 17.73,29.005 6.94656,2.6411 17.82629,2.09517 18.99625,-0.95375 1.07017,-2.78871 -4.05079,-16.00347 -16.8675,-43.52875 -7.88821,-16.94086 -6.93063,-20.15706 -2.30875,-16.32125 1.40721,1.16786 6.66571,11.62711 14.9425,27.6825 l 15.04875,29.19125 6.12625,-3.6025 c 4.66588,-2.74351 5.97377,-4.72474 5.485,-8.3125 -1.15281,-8.46269 -30.08049,-67.1535 -33.4375,-67.8375 -0.73455,-0.14965 -1.49472,-0.20605 -2.2625,-0.17625 z"
     sodipodi:nodetypes="ccccssscssssccsssccsscccccccsscssssccssssssssccscccccccsccscscccccccccscccccccccccccccccscccccsccccsscsccccccccccccscccscccscccccccsscscccccccscccscccsccccccscccccccccccccccccssccccccccccccccccccccsssccccsssccccsccccccsscccccccssscccssssssccsscsccsssssscccsscc" /><path
     id="rect1"
     style="display:inline;fill:#000000;stroke-width:0.598962;fill-opacity:1;stroke:none"
     d="M 12.23125,0 C 5.45519,0 0,5.45519 0,12.23125 V 148.8825 c 0,6.77606 5.45519,12.23125 12.23125,12.23125 6.77606,0 12.23125,-5.45519 12.23125,-12.23125 V 24.70875 H 148.96 c 6.77606,0 12.23125,-5.45519 12.23125,-12.23125 0,-6.77606 -5.45519,-12.23125 -12.23125,-12.23125 H 14.6925 C 13.89751,0.08499 13.07522,0 12.23125,0 Z" /><path
     id="rect1-2"
     style="display:inline;fill:#000000;stroke-width:0.598962;fill-opacity:1;stroke:none"
     d="M 499.76875,0 C 506.54481,0 512,5.45519 512,12.23125 V 148.8825 c 0,6.77606 -5.45519,12.23125 -12.23125,12.23125 -6.77606,0 -12.23125,-5.45519 -12.23125,-12.23125 V 24.70875 H 363.04 c -6.77606,0 -12.23125,-5.45519 -12.23125,-12.23125 0,-6.77606 5.45519,-12.23125 12.23125,-12.23125 H 497.3075 C 498.10249,0.08499 498.92478,0 499.76875,0 Z" /><path
     id="rect1-3"
     style="display:inline;fill:#000000;stroke-width:0.598962;fill-opacity:1;stroke:none"
     d="M 499.76875,512 C 506.54481,512 512,506.54481 512,499.76875 V 363.1175 c 0,-6.77606 -5.45519,-12.23125 -12.23125,-12.23125 -6.77606,0 -12.23125,5.45519 -12.23125,12.23125 V 487.29125 H 363.04 c -6.77606,0 -12.23125,5.45519 -12.23125,12.23125 0,6.77606 5.45519,12.23125 12.23125,12.23125 h 134.2675 c 0.79499,0.16126 1.61728,0.24625 2.46125,0.24625 z" /><path
     id="rect1-5"
     style="display:inline;fill:#000000;stroke-width:0.598962;fill-opacity:1;stroke:none"
     d="M 12.23125,512 C 5.45519,512 0,506.54481 0,499.76875 V 363.1175 c 0,-6.77606 5.45519,-12.23125 12.23125,-12.23125 6.77607,0 12.23125,5.45519 12.23125,12.23125 V 487.29125 H 148.96 c 6.77606,0 12.23125,5.45519 12.23125,12.23125 0,6.77606 -5.45519,12.23125 -12.23125,12.23125 H 14.6925 C 13.89751,511.91501 13.07522,512 12.23125,512 Z" /></svg>
