<?xml version="1.0" encoding="UTF-8" standalone="no"?>
<!-- Uploaded to: SVG Repo, www.svgrepo.com, Generator: SVG Repo Mixer Tools -->

<svg
   width="800px"
   height="800px"
   viewBox="0 0 512 512"
   version="1.1"
   id="svg1"
   sodipodi:docname="discomfort0.svg"
   xml:space="preserve"
   inkscape:version="1.3.2 (091e20e, 2023-11-25, custom)"
   xmlns:inkscape="http://www.inkscape.org/namespaces/inkscape"
   xmlns:sodipodi="http://sodipodi.sourceforge.net/DTD/sodipodi-0.dtd"
   xmlns="http://www.w3.org/2000/svg"
   xmlns:svg="http://www.w3.org/2000/svg"><defs
     id="defs1"><inkscape:path-effect
       effect="clone_original"
       linkeditem="#text115"
       id="path-effect103"
       is_visible="true"
       lpeversion="1"
       method="d"
       attributes=""
       css_properties=""
       allow_transforms="true" /><rect
       x="491.41104"
       y="219.6319"
       width="122.69939"
       height="22.699387"
       id="rect115" /><rect
       x="376.72414"
       y="159.05172"
       width="204.31034"
       height="28.232759"
       id="rect110" /><inkscape:path-effect
       effect="clone_original"
       linkeditem="#text1"
       id="path-effect58"
       is_visible="true"
       lpeversion="1"
       method="d"
       attributes=""
       css_properties=""
       allow_transforms="true" /><inkscape:path-effect
       effect="clone_original"
       linkeditem=""
       id="path-effect102"
       is_visible="true"
       lpeversion="1"
       method="d"
       attributes=""
       css_properties=""
       allow_transforms="true" /><rect
       x="89.090909"
       y="604.24242"
       width="153.93939"
       height="37.575758"
       id="rect63" /><inkscape:path-effect
       effect="perspective-envelope"
       up_left_point="178.4183,360.77716"
       up_right_point="226.46388,359.22951"
       down_left_point="180.10251,371.90573"
       down_right_point="229.55919,374.13617"
       id="path-effect5"
       is_visible="true"
       lpeversion="1"
       deform_type="perspective"
       horizontal_mirror="false"
       vertical_mirror="false"
       overflow_perspective="false" /><inkscape:path-effect
       effect="clone_original"
       linkeditem=""
       id="path-effect4"
       is_visible="true"
       lpeversion="1"
       method="d"
       attributes=""
       css_properties=""
       allow_transforms="true" /><inkscape:path-effect
       effect="perspective-envelope"
       up_left_point="114.56014,69.140036"
       up_right_point="288.99512,69.140036"
       down_left_point="114.56014,102.59042"
       down_right_point="288.99512,102.59042"
       id="path-effect3"
       is_visible="true"
       lpeversion="1"
       deform_type="perspective"
       horizontal_mirror="false"
       vertical_mirror="false"
       overflow_perspective="false" /><inkscape:path-effect
       effect="clone_original"
       linkeditem=""
       id="path-effect2"
       is_visible="true"
       lpeversion="1"
       method="d"
       attributes=""
       css_properties=""
       allow_transforms="true" /></defs><sodipodi:namedview
     id="namedview1"
     pagecolor="#ffffff"
     bordercolor="#000000"
     borderopacity="0.25"
     inkscape:showpageshadow="2"
     inkscape:pageopacity="0.0"
     inkscape:pagecheckerboard="0"
     inkscape:deskcolor="#d1d1d1"
     inkscape:zoom="0.3"
     inkscape:cx="428.33333"
     inkscape:cy="501.66667"
     inkscape:window-width="2661"
     inkscape:window-height="2044"
     inkscape:window-x="388"
     inkscape:window-y="0"
     inkscape:window-maximized="0"
     inkscape:current-layer="svg1"
     showguides="true" /><rect
     style="display:none;fill:#0a0a0a;fill-opacity:1;stroke:#ffffff;stroke-width:0.947738;stroke-opacity:1"
     id="rect10"
     width="526.99432"
     height="524.43433"
     x="-8.0457144"
     y="-5.851429"
     ry="0.9799872" /><g
     id="g18-3"
     inkscape:label="level2"
     style="display:none"
     transform="translate(-17.153425,18.172741)"><path
       style="display:inline;fill:#000000;fill-opacity:1;stroke:#ffffff;stroke-width:6.08345;stroke-opacity:1"
       d="m 269.75964,241.17241 c 0,0 -10.55172,-20.89655 -35.31034,-8.62069 0,0 -15.37931,6.55173 -23.86207,-6.27586 0,0 -57.24138,-16.27586 -42.89655,29.51724 0,0 1.41496,9.07633 -13.13677,5.55909 0,0 -6.03565,22.16505 9.20573,33.88919 0,0 0.24657,18.03652 1.86207,20.27586 0,0 6.34483,17.24138 16.13793,20.62069 0,0 5.71242,12.84336 11.51725,16.13793 0,0 12.27586,11.17242 18.68965,12.13793 0,0 10.52018,10.63647 15.51724,12 0,0 11.62723,5.77553 28.48276,1.65518 0,0 14.2069,-1.10345 14.41379,-16.55173 z"
       id="path10-9"
       sodipodi:nodetypes="cccccccccccccc"
       inkscape:label="path10-9" /><path
       style="fill:#ffffff;fill-opacity:1;stroke:none;stroke-width:0.262707;stroke-opacity:1"
       d="m 266.9838,261.70545 0.36022,9.1257 c 0,0 -11.78475,-12.49482 -17.41088,-12.24765 0,0 9.72608,-1.32082 17.05066,3.12195 z"
       id="path27"
       sodipodi:nodetypes="cccc" /><path
       style="fill:#ffffff;fill-opacity:1;stroke:none;stroke-width:0.262707;stroke-opacity:1"
       d="m 267.61988,305.41276 c 0,0 -15.60975,-11.64727 -22.33396,-15.12945 0,0 -9.24577,-15.12946 -17.7711,-18.01126 0,0 -7.32458,-9.84615 -5.16323,-18.97186 0,0 -3.67367,5.52838 -3.48217,14.64916 0,0 -13.82908,3.17293 -33.98124,-25.09569 0,0 2.64165,13.32833 15.48968,24.25516 0,0 -9.24578,6.12383 -7.80488,12.84803 0,0 17.41761,-25.79828 46.47578,8.42311 0,0 -18.85852,0.46245 -18.37822,7.78703 0,0 26.17636,-11.04691 46.94934,19.33208 z"
       id="path28"
       sodipodi:nodetypes="cccccccccccc" /><path
       style="display:inline;fill:#ffffff;fill-opacity:1;stroke:none;stroke-width:0.262707;stroke-opacity:1"
       d="m 267.16698,326.2439 c 0,0 -12.96811,10.80676 -24.97561,6.00375 0,0 14.64916,9.60601 24.97561,1.56098 z"
       id="path29"
       transform="translate(0.12347398,0.64443573)" /><path
       style="display:inline;fill:#ffffff;fill-opacity:1;stroke:none;stroke-width:0.262707;stroke-opacity:1"
       d="m 267.30832,341.3817 c 0,0 -4.20263,18.85179 -27.73734,18.01126 0,0 14.04878,8.28518 27.85741,-3.96248 z"
       id="path30" /><path
       style="display:inline;fill:#ffffff;fill-opacity:1;stroke:none;stroke-width:0.262707;stroke-opacity:1"
       d="m 256.12008,368.27017 c 0,0 -18.78217,0.84544 -27.7878,-6.71929 0,0 -8.9632,-8.22178 -14.00635,-7.50133 0,0 -12.47978,-9.67432 -14.88128,-13.87694 0,0 5.16323,14.28893 12.24766,17.17073 0,0 13.32833,5.64353 17.65103,10.5666 0,0 20.53284,5.52346 26.77674,0.36023 z"
       id="path31"
       transform="translate(0.12347398,0.64443573)"
       sodipodi:nodetypes="ccccccc" /><path
       style="display:inline;fill:#ffffff;fill-opacity:1;stroke:none;stroke-width:0.262707;stroke-opacity:1"
       d="m 209.41088,301.98874 c 0,0 -3.3621,19.93246 20.17261,21.49344 0,0 -1.68105,10.5666 -1.56098,14.76923 0,0 -17.88005,7.3326 -21.73358,-14.76923 0,0 -2.52158,2.76172 -2.76173,7.92495 0,0 -22.81425,1.68105 -27.97748,-27.85741 0,0 -8.06288,27.29585 31.56188,31.97878 0,0 3.96248,9.62696 25.95407,8.24636 0,0 -1.56098,-19.09193 7.92495,-25.45591 0,0 -24.60426,10.32826 -31.57974,-16.33021 z"
       id="path32"
       transform="translate(0.12347398,0.64443573)"
       sodipodi:nodetypes="cccccccccc" /><path
       style="display:inline;fill:#ffffff;fill-opacity:1;stroke:none;stroke-width:0.262707;stroke-opacity:1"
       d="m 190.91932,317.23827 c 0,0 -2.1158,-13.58633 0.9606,-15.60975 0,0 -21.41036,-11.47855 -15.72983,-35.42214 0,0 2.76173,44.06754 37.34334,23.41463 0,0 -18.13134,9.24577 -22.57411,27.61726 z"
       id="path33"
       transform="translate(0.12347398,0.64443573)"
       sodipodi:nodetypes="ccccc" /></g><g
     id="g17-2"
     inkscape:label="rightfront"
     style="display:inline"
     transform="matrix(-1,0,0,1,531.19413,15.863699)"><path
       style="fill:#ffffff;fill-opacity:1;stroke:#000000;stroke-width:6.08345;stroke-opacity:1"
       d="m 269.63636,239.27273 c 0,0 -11.81818,-16.72728 -32.54545,-7.81818 0,0 -17.92904,8.77161 -25.45455,-5.45455 0,0 -57.45454,-15.27273 -43.27272,29.27273 0,0 4.15203,8.31073 -14.02979,5.9471 0,0 -1.42476,-21.03801 3.1207,-28.31074 0,0 6.54545,-17.81818 6.36363,-30.36364 0,0 1.77384,-12.47449 7.45455,-15.45454 0,0 4.11973,-12.29268 5.16186,-15.09091 0,0 4.11086,-9.81818 7.74723,-12.36364 0,0 6.4745,-7.09091 6.4745,-11.09091 0,0 2.61641,-16 12.98004,-17.81818 0,0 7.81819,-10.54545 13.63637,-11.81818 0,0 13.63636,-4.18182 16.54545,-8.18182 0,0 37.45455,-19.636361 36.18182,18.72728 l -0.14202,84.88912 z"
       id="path1-0"
       sodipodi:nodetypes="ccccccccccccccccc" /><path
       style="fill:#000000;fill-opacity:1;stroke:#000000;stroke-width:0.865541;stroke-opacity:1"
       d="m 166.13793,207.10345 -0.96551,6.82758 c 0,0 13.51724,-6.48275 16.41379,-1.31034 0,0 8.89655,2 4.48276,-4.2069 0,0 -5.72414,-7.24137 -19.93104,-1.31034 z"
       id="path2-9" /><path
       style="fill:#000000;fill-opacity:1;stroke:#000000;stroke-width:0.865541;stroke-opacity:1"
       d="m 193.51724,206.48276 c 0,0 4.62069,3.65517 5.44828,-2.41379 0,0 -13.65518,-23.17242 0.62069,-19.10345 0,0 8,0.55172 2.96551,-5.51724 0,0 -7.65517,-4.62069 -12.41379,0.96551 0,0 -5.37931,-14.41379 12.13793,-22.20689 0,0 7.03448,-4.27587 -1.93103,-5.72414 0,0 -19.17242,8.55172 -16.75862,28.34483 0,0 1.17241,14.96552 9.93103,25.65517 z"
       id="path3-5" /><path
       style="fill:#000000;fill-opacity:1;stroke:#000000;stroke-width:0.865541;stroke-opacity:1"
       d="m 209.10345,222.13793 8.62069,7.03449 c 0,0 -11.17242,-22.68966 7.31034,-35.93104 0,0 2.89655,-6.75862 -4.48276,-4.75862 0,0 -16.75861,13.44827 -11.44827,33.65517 z"
       id="path4-5" /><path
       style="fill:#000000;fill-opacity:1;stroke:#000000;stroke-width:0.865541;stroke-opacity:1"
       d="m 267.93103,210.2069 -0.13793,-8.13793 c 0,0 -7.86207,-6.75863 -24.89655,-1.31035 0,0 -4.34483,6.41379 1.93104,5.7931 0,0 14.34481,-6.96551 23.10344,3.65518 z"
       id="path5-3" /><path
       style="fill:#000000;fill-opacity:1;stroke:#000000;stroke-width:0.865541;stroke-opacity:1"
       d="m 267.37931,186.96552 -0.34483,-7.10345 c 0,0 -28.89655,-15.03449 -14.89655,-34.89655 0,0 0.62069,-6.13793 -5.72414,-2.2069 0,0 -8.82758,16 -0.62069,25.24138 0,0 -10.55172,0.55172 -15.03448,4.06897 0,0 -2.68965,6.62069 2.96552,5.5862 0,0 8.55172,-5.10345 17.51724,-3.37931 0,0 8.82758,8.68966 16.13793,12.68966 z"
       id="path6-1" /><path
       style="display:inline;fill:#000000;fill-opacity:1;stroke:#000000;stroke-width:0.865541;stroke-opacity:1"
       d="m 212.96552,175.03448 c 0,0 -5.03449,3.31035 -5.03449,-2.2069 0,0 5.58621,-10.55172 11.72414,-11.65517 0,0 -6.68965,-6.89655 -3.5862,-14.13793 0,0 4,-5.10345 5.51724,0.34483 0,0 -3.51724,9.37931 9.10345,11.44828 0,0 3.86206,4.27586 -0.75863,5.37931 0,0 -10.20689,0.96551 -16.96551,10.82758 z"
       id="path7-1" /><path
       style="fill:#000000;fill-opacity:1;stroke:#000000;stroke-width:0.865541;stroke-opacity:1"
       d="m 212,135.10345 c 6.27586,0.68965 2.68966,-5.17242 2.68966,-5.17242 0,0 -4,-1.86206 -5.51725,-1.5862 l -7.10344,6 c 0,0 8.06896,-1.10345 9.93103,0.75862 z"
       id="path8-2" /><path
       style="display:inline;fill:#000000;fill-opacity:1;stroke:#000000;stroke-width:0.865541;stroke-opacity:1"
       d="m 237.93649,125.972 c 0,0 -8.75861,1.58621 -11.24137,3.24138 0,0 -3.24138,6.34483 3.10345,5.93104 0,0 26.06896,-12.82759 37.44827,7.65517 l 0.069,-10.27586 c 0,0 -10.55173,-8.2069 -20.27587,-7.72414 0,0 0.89653,-3.17242 8.27584,-2.82759 0,0 6.55172,-2.48276 0.41379,-6 0,0 -12.75863,-0.55173 -17.79311,10 z"
       id="path9-2" /></g><g
     id="g18-3-4"
     inkscape:label="level3"
     style="display:none"
     transform="matrix(-1,0,0,1,531.85779,14.860988)"><path
       style="display:inline;fill:#000000;fill-opacity:1;stroke:#ffffff;stroke-width:6.08345;stroke-opacity:1"
       d="m 270.26718,242.97548 c 0,0 -11.05926,-22.69962 -35.81788,-10.42376 0,0 -14.65886,6.43165 -23.14162,-6.39594 0,0 -57.96183,-16.15578 -43.617,29.63732 0,0 0.96552,8.89655 -13.58621,5.37931 0,0 -5.58621,22.34483 9.65517,34.06897 0,0 0.24657,18.03652 1.86207,20.27586 0,0 6.34483,17.24138 16.13793,20.62069 0,0 5.71242,12.84336 11.51725,16.13793 0,0 12.27586,11.17242 18.68965,12.13793 0,0 10.52018,10.63647 15.51724,12 0,0 11.62723,5.77553 28.48276,1.65518 0,0 14.2069,-1.10345 14.41379,-16.55173 z"
       id="path10-9-1"
       sodipodi:nodetypes="cccccccccccccc" /><path
       style="display:inline;fill:#ffffff;fill-opacity:1;stroke:none;stroke-width:0.262707;stroke-opacity:1"
       d="m 267.63032,263.97609 0.36022,9.1257 c 0,0 -11.78475,-11.97973 -17.41088,-12.24765 0,0 9.72608,-1.32082 17.05066,3.12195 z"
       id="path27-9"
       sodipodi:nodetypes="cccc" /><path
       style="display:inline;fill:#ffffff;fill-opacity:1;stroke:none;stroke-width:0.262707;stroke-opacity:1"
       d="m 268.32314,308.2113 c 0,0 -15.60975,-11.64727 -22.33396,-15.12945 0,0 -9.24577,-15.12946 -17.7711,-18.01126 0,0 -7.32458,-9.84615 -5.16323,-18.97186 0,0 -3.67367,5.52838 -3.48217,14.64916 0,0 -13.82908,3.17293 -33.98124,-25.09569 0,0 2.64165,13.32833 15.48968,24.25516 0,0 -9.24578,6.12383 -7.80488,12.84803 0,0 17.41761,-25.79828 46.47578,8.42311 0,0 -18.85852,0.46245 -18.37822,7.78703 0,0 26.17636,-11.04691 46.94934,19.33208 z"
       id="path28-4"
       sodipodi:nodetypes="cccccccccccc" /><path
       style="display:inline;fill:#ffffff;fill-opacity:1;stroke:none;stroke-width:0.262707;stroke-opacity:1"
       d="m 267.71335,328.10916 c 0,0 -12.96811,10.80676 -24.97561,6.00375 0,0 14.64916,9.60601 24.97561,1.56098 z"
       id="path29-7" /><path
       style="display:inline;fill:#ffffff;fill-opacity:1;stroke:none;stroke-width:0.262707;stroke-opacity:1"
       d="m 268.16701,342.53038 c 0,0 -4.20263,18.85179 -27.73734,18.01126 0,0 14.04878,8.28518 27.85741,-3.96248 z"
       id="path30-9" /><path
       style="display:inline;fill:#ffffff;fill-opacity:1;stroke:none;stroke-width:0.262707;stroke-opacity:1"
       d="m 292.37996,368.65005 c 0,0 18.78217,0.84544 27.7878,-6.71929 0,0 8.9632,-8.22178 14.00635,-7.50133 0,0 12.47978,-9.67432 14.88128,-13.87694 0,0 -5.16323,14.28893 -12.24766,17.17073 0,0 -13.32833,5.64353 -17.65103,10.5666 0,0 -20.53284,5.52346 -26.77674,0.36023 z"
       id="path31-9"
       sodipodi:nodetypes="ccccccc"
       transform="matrix(-1,0,0,1,548.24699,1.2689324)" /><path
       style="display:inline;fill:#ffffff;fill-opacity:1;stroke:none;stroke-width:0.262707;stroke-opacity:1"
       d="m 339.08916,302.36862 c 0,0 3.3621,19.93246 -20.17261,21.49344 0,0 1.68105,10.5666 1.56098,14.76923 0,0 17.88005,7.3326 21.73358,-14.76923 0,0 2.52158,2.76172 2.76173,7.92495 0,0 22.81425,1.68105 27.97748,-27.85741 0,0 8.06288,27.29585 -31.56188,31.97878 0,0 -3.96248,9.62696 -25.95407,8.24636 0,0 1.56098,-19.09193 -7.92495,-25.45591 0,0 24.60426,10.32826 31.57974,-16.33021 z"
       id="path32-1"
       sodipodi:nodetypes="cccccccccc"
       transform="matrix(-1,0,0,1,548.24699,1.2689324)" /><path
       style="display:inline;fill:#ffffff;fill-opacity:1;stroke:none;stroke-width:0.262707;stroke-opacity:1"
       d="m 357.58072,317.61815 c 0,0 2.1158,-13.58633 -0.9606,-15.60975 0,0 21.41036,-11.47855 15.72983,-35.42214 0,0 -2.76173,44.06754 -37.34334,23.41463 0,0 18.13134,9.24577 22.57411,27.61726 z"
       id="path33-0"
       sodipodi:nodetypes="ccccc"
       transform="matrix(-1,0,0,1,548.24699,1.2689324)" /></g><g
     id="g18-6"
     inkscape:label="rightback"
     style="display:inline"
     transform="translate(109.21743,-34.41079)"><path
       style="display:inline;fill:#ffffff;fill-opacity:1;stroke:#000000;stroke-width:6.08345;stroke-opacity:1"
       d="m 152.4703,293.42908 c 0,0 10.67046,-21.01529 35.42908,-8.73943 0,0 15.37931,6.55173 23.86207,-6.27586 0,0 57.24138,-16.27586 42.89655,29.51724 0,0 -0.96552,8.89655 13.58621,5.37931 0,0 5.58621,22.34483 -9.65517,34.06897 0,0 -0.24657,18.03652 -1.86207,20.27586 0,0 -6.34483,17.24138 -16.13793,20.62069 0,0 -5.71242,12.84336 -11.51725,16.13793 0,0 -12.27586,11.17242 -18.68965,12.13793 0,0 -10.52018,10.63647 -15.51724,12 0,0 -11.62723,5.77553 -28.48276,1.65518 0,0 -14.2069,-1.10345 -14.41379,-16.55173 z"
       id="path10-4"
       sodipodi:nodetypes="cccccccccccccc" /><path
       style="display:inline;fill:#000000;fill-opacity:1;stroke:#000000;stroke-width:0.834984;stroke-opacity:1"
       d="m 155.1073,314.75862 c 0,0 8.06896,-7.10345 13.86207,-8 0,0 6.55172,1.93103 2.06897,5.51724 0,0 -14,5.10345 -16.55173,11.58621 z"
       id="path11-6" /><path
       style="display:inline;fill:#000000;fill-opacity:1;stroke:#000000;stroke-width:0.834984;stroke-opacity:1"
       d="m 154.83895,358.43428 c 0,0 17.31034,-13.65517 23.24138,-15.93103 0,0 6.55172,-10.48276 13.24138,-14.48276 0,0 6.27586,-1.93104 7.03448,-11.79311 l -0.13793,-6.68965 c 0,0 2.55172,-8.2069 6.34483,-0.68966 0,0 0.20689,8.2069 -0.75863,11.79311 0,0 20.89656,-7.65517 28.75863,-22.82759 0,0 7.51724,-6.48276 5.86206,1.58621 0,0 -4.62069,11.17241 -16.48275,19.44827 0,0 8.75862,5.58621 9.31034,9.72414 0,0 -0.27586,6 -5.17241,3.37931 0,0 -6.55173,-14.55172 -18.68966,-6.06896 0,0 -15.24138,6.96551 -20.13793,14.89655 0,0 11.7931,0.62069 13.72414,3.03448 0,0 3.24138,6.34483 -2.62069,5.24138 0,0 -6,-2.41379 -10.68966,-2.27586 0,0 -4.68965,-1.44828 -11.86207,4.27586 0,0 -18,10.68966 -20.75862,16.82759 z"
       id="path12-0" /><path
       style="display:inline;fill:#000000;fill-opacity:1;stroke:#000000;stroke-width:0.834984;stroke-opacity:1"
       d="m 155.54909,379.86207 -0.27586,6.75862 c 0,0 13.86207,7.65517 23.24138,2 0,0 3.72414,-5.72414 -2.48276,-5.37931 0,0 -10.62069,3.31035 -20.48276,-3.37931 z"
       id="path13-6" /><path
       style="display:inline;fill:#000000;fill-opacity:1;stroke:#000000;stroke-width:0.834984;stroke-opacity:1"
       d="m 154.25377,391.91054 -0.2069,13.93104 c 0,0 9.03448,14.41379 26.68965,9.31035 0,0 5.24138,-4.34483 -1.10345,-5.86208 0,0 -21.93102,3.86206 -25.3793,-17.37931 z"
       id="path14-2" /><path
       style="display:inline;fill:#000000;fill-opacity:1;stroke:#000000;stroke-width:0.834984;stroke-opacity:1"
       d="m 167.1073,420.41379 c 0,0 -5.24138,3.31035 -0.13793,5.51724 0,0 16.68965,1.44828 25.51724,-5.72413 0,0 10.27586,-8.68966 17.72414,-10.62069 0,0 13.44827,-9.03449 13.7931,-14.82759 0,0 -1.7931,-4.41379 -5.10345,-1.17241 0,0 -6.06896,10.41379 -11.7931,10.82758 0,0 -13.31034,6.06897 -18.55172,11.51724 0,0 -12.27587,7.03448 -21.44828,4.48276 z"
       id="path15-7" /><path
       style="display:inline;fill:#000000;fill-opacity:1;stroke:#000000;stroke-width:0.834984;stroke-opacity:1"
       d="m 214.9004,358.06896 c 0,0 -2.48275,-6.41379 -5.65517,-0.75861 0,0 -3.10345,11.93103 -12.96552,12.13792 l -11.10344,-0.41379 c 0,0 -5.31035,0.82759 -3.37931,4.55173 0,0 7.5862,8.13793 5.7931,13.72413 0,0 -2.41379,8.48276 4.13793,9.37931 0,0 12.41379,4.34483 17.31035,0.55173 0,0 5.86206,-4.55173 6.06896,-6.68966 0,0 21.86207,-2.62069 26.41379,-9.93103 0,0 10.34483,-15.03448 8.48276,-21.93104 0,0 -4.13793,-4.62069 -5.65517,0.34483 0,0 0.82759,23.37931 -26.41379,25.65517 l 1.31034,-5.65517 c 0,0 -3.31034,-5.58621 -5.86207,-0.68965 0,0 -2.68965,11.10344 -6.27586,12.82758 0,0 -5.37931,4 -13.58621,-0.34482 0,0 1.31035,-11.37932 -2.75862,-14.62069 0,0 23.03448,1.3793 24.13793,-18.13794 z"
       id="path16-4" /><path
       style="display:inline;fill:#000000;fill-opacity:1;stroke:#000000;stroke-width:0.834984;stroke-opacity:1"
       d="m 212.48661,341.31035 c 0,0 -5.86207,-0.069 -3.44827,4.20689 0,0 20.13793,10.13793 18.34482,21.44828 0,0 3.44828,6.75862 5.86207,0.069 0,0 1.37931,-8.00004 -3.51724,-12.75866 0,0 13.7931,-2.41379 18.48276,-15.51724 0,0 1.7931,-10.2069 0.82759,-16.75862 0,0 -4.68966,-5.65517 -6.2069,-0.069 0,0 3.37931,40.82763 -30.34483,19.37935 z"
       id="path17-3" /></g><g
     id="g17"
     inkscape:label="leftfront"
     style="display:inline"
     transform="translate(-16.849621,16.135654)"><path
       style="fill:#ffffff;fill-opacity:1;stroke:#000000;stroke-width:6.08345;stroke-opacity:1"
       d="m 269.63636,239.27273 c 0,0 -11.81818,-16.72728 -32.54545,-7.81818 0,0 -17.92904,8.77161 -25.45455,-5.45455 0,0 -57.45454,-15.27273 -43.27272,29.27273 0,0 5.09091,8.54545 -13.09091,6.18182 0,0 -2.36364,-21.27273 2.18182,-28.54546 0,0 6.54545,-17.81818 6.36363,-30.36364 0,0 1.77384,-12.47449 7.45455,-15.45454 0,0 4.11973,-12.29268 5.16186,-15.09091 0,0 4.11086,-9.81818 7.74723,-12.36364 0,0 6.4745,-7.09091 6.4745,-11.09091 0,0 2.61641,-16 12.98004,-17.81818 0,0 7.81819,-10.54545 13.63637,-11.81818 0,0 13.63636,-4.18182 16.54545,-8.18182 0,0 37.45455,-19.636361 36.18182,18.72728 l -0.14202,84.88912 z"
       id="path1"
       sodipodi:nodetypes="ccccccccccccccccc" /><path
       style="fill:#000000;fill-opacity:1;stroke:#000000;stroke-width:0.865541;stroke-opacity:1"
       d="m 166.13793,207.10345 -0.96551,6.82758 c 0,0 13.51724,-6.48275 16.41379,-1.31034 0,0 8.89655,2 4.48276,-4.2069 0,0 -5.72414,-7.24137 -19.93104,-1.31034 z"
       id="path2" /><path
       style="fill:#000000;fill-opacity:1;stroke:#000000;stroke-width:0.865541;stroke-opacity:1"
       d="m 193.51724,206.48276 c 0,0 4.62069,3.65517 5.44828,-2.41379 0,0 -13.65518,-23.17242 0.62069,-19.10345 0,0 8,0.55172 2.96551,-5.51724 0,0 -7.65517,-4.62069 -12.41379,0.96551 0,0 -5.37931,-14.41379 12.13793,-22.20689 0,0 7.03448,-4.27587 -1.93103,-5.72414 0,0 -19.17242,8.55172 -16.75862,28.34483 0,0 1.17241,14.96552 9.93103,25.65517 z"
       id="path3" /><path
       style="fill:#000000;fill-opacity:1;stroke:#000000;stroke-width:0.865541;stroke-opacity:1"
       d="m 209.10345,222.13793 8.62069,7.03449 c 0,0 -11.17242,-22.68966 7.31034,-35.93104 0,0 2.89655,-6.75862 -4.48276,-4.75862 0,0 -16.75861,13.44827 -11.44827,33.65517 z"
       id="path4" /><path
       style="fill:#000000;fill-opacity:1;stroke:#000000;stroke-width:0.865541;stroke-opacity:1"
       d="m 267.93103,210.2069 -0.13793,-8.13793 c 0,0 -7.86207,-6.75863 -24.89655,-1.31035 0,0 -4.34483,6.41379 1.93104,5.7931 0,0 14.34481,-6.96551 23.10344,3.65518 z"
       id="path5" /><path
       style="fill:#000000;fill-opacity:1;stroke:#000000;stroke-width:0.865541;stroke-opacity:1"
       d="m 267.37931,186.96552 -0.34483,-7.10345 c 0,0 -28.89655,-15.03449 -14.89655,-34.89655 0,0 0.62069,-6.13793 -5.72414,-2.2069 0,0 -8.82758,16 -0.62069,25.24138 0,0 -10.55172,0.55172 -15.03448,4.06897 0,0 -2.68965,6.62069 2.96552,5.5862 0,0 8.55172,-5.10345 17.51724,-3.37931 0,0 8.82758,8.68966 16.13793,12.68966 z"
       id="path6" /><path
       style="display:inline;fill:#000000;fill-opacity:1;stroke:#000000;stroke-width:0.865541;stroke-opacity:1"
       d="m 212.96552,175.03448 c 0,0 -5.03449,3.31035 -5.03449,-2.2069 0,0 5.58621,-10.55172 11.72414,-11.65517 0,0 -6.68965,-6.89655 -3.5862,-14.13793 0,0 4,-5.10345 5.51724,0.34483 0,0 -3.51724,9.37931 9.10345,11.44828 0,0 3.86206,4.27586 -0.75863,5.37931 0,0 -10.20689,0.96551 -16.96551,10.82758 z"
       id="path7" /><path
       style="display:inline;fill:#000000;fill-opacity:1;stroke:#000000;stroke-width:0.865541;stroke-opacity:1"
       d="m 212,135.10345 c 6.27586,0.68965 2.68966,-5.17242 2.68966,-5.17242 0,0 -4,-1.86206 -5.51725,-1.5862 l -7.10344,6 c 0,0 8.06896,-1.10345 9.93103,0.75862 z"
       id="path8" /><path
       style="display:inline;fill:#000000;fill-opacity:1;stroke:#000000;stroke-width:0.865541;stroke-opacity:1"
       d="m 237.93649,125.972 c 0,0 -8.75861,1.58621 -11.24137,3.24138 0,0 -3.24138,6.34483 3.10345,5.93104 0,0 26.06896,-12.82759 37.44827,7.65517 l 0.069,-10.27586 c 0,0 -10.55173,-8.2069 -20.27587,-7.72414 0,0 0.89653,-3.17242 8.27584,-2.82759 0,0 6.55172,-2.48276 0.41379,-6 0,0 -12.75863,-0.55173 -17.79311,10 z"
       id="path9" /></g><g
     id="g17-6"
     inkscape:label="level1"
     transform="translate(-16.893033,19.017419)"
     style="display:none"><path
       style="display:inline;fill:#000000;fill-opacity:1;stroke:#ffffff;stroke-width:6.08345;stroke-opacity:1"
       d="m 269.63636,239.27273 c 0,0 -11.81818,-16.72728 -32.54545,-7.81818 0,0 -17.92904,8.77161 -25.45455,-5.45455 0,0 -57.45454,-15.27273 -43.27272,29.27273 0,0 5.09091,8.54545 -13.09091,6.18182 0,0 -2.36364,-21.27273 2.18182,-28.54546 0,0 6.54545,-17.81818 6.36363,-30.36364 0,0 1.77384,-12.47449 7.45455,-15.45454 0,0 4.11973,-12.29268 5.16186,-15.09091 0,0 4.11086,-9.81818 7.74723,-12.36364 0,0 6.4745,-7.09091 6.4745,-11.09091 0,0 2.61641,-16 12.98004,-17.81818 0,0 7.81819,-10.54545 13.63637,-11.81818 0,0 13.63636,-4.18182 16.54545,-8.18182 0,0 37.45455,-19.636361 36.18182,18.72728 l -0.14202,84.88912 z"
       id="path1-3"
       sodipodi:nodetypes="ccccccccccccccccc" /><path
       style="display:inline;fill:#ffffff;fill-opacity:1;stroke:none;stroke-width:0.262707;stroke-opacity:1"
       d="m 267.20425,200.99735 v 8.3183 c 0,0 -4.58356,-11.03449 -25.29443,-3.90451 0,0 13.5809,-6.28116 25.29443,-4.41379 z"
       id="path18"
       transform="translate(0.04341278,0.00111802)" /><path
       style="fill:#ffffff;fill-opacity:1;stroke:none;stroke-width:0.262707;stroke-opacity:1"
       d="m 217.63395,229.17773 -9.33687,-6.45094 c 0,0 1.52785,-27.84084 16.80637,-33.27321 0,0 -15.95757,21.89922 -7.4695,39.72415 z"
       id="path19"
       transform="translate(0.04341278,0.00111802)" /><path
       style="fill:#ffffff;fill-opacity:1;stroke:none;stroke-width:0.262707;stroke-opacity:1"
       d="m 166.36605,206.09019 -0.67905,8.3183 c 0,0 6.28117,-11.88329 19.18303,-1.52786 0,0 -9.84615,-10.35542 -18.50398,-6.79044 z"
       id="path20"
       transform="translate(0.04341278,0.00111802)" /><path
       style="fill:#ffffff;fill-opacity:1;stroke:none;stroke-width:0.262707;stroke-opacity:1"
       d="m 196.41379,207.44828 c 0,0 -30.38726,-37.68701 6.96021,-54.49337 0,0 -17.65517,13.5809 -13.07161,26.14323 0,0 13.24138,-4.24403 13.5809,4.24404 0,0 -5.88161,-4.16329 -10.91855,-0.68319 0,0 -4.35997,4.24818 3.44905,24.78929 z"
       id="path21"
       sodipodi:nodetypes="cccccc"
       transform="translate(0.04341278,0.00111802)" /><path
       style="display:inline;fill:#ffffff;fill-opacity:1;stroke:none;stroke-width:0.262707;stroke-opacity:1"
       d="m 208.6366,175.53316 c 0,0 1.86738,-11.37401 10.01592,-14.59947 0,0 -5.43236,-11.71353 2.03714,-15.95756 0,0 -2.88595,12.56233 11.20424,15.61803 0,0 -18.84351,1.3581 -23.2573,14.939 z"
       id="path22"
       transform="translate(0.04341278,0.00111802)" /><path
       style="display:inline;fill:#ffffff;fill-opacity:1;stroke:none;stroke-width:0.262707;stroke-opacity:1"
       d="m 201.1671,135.12997 7.4695,-6.28117 c 0,0 4.92308,2.88595 4.07427,7.97879 0,0 -6.11141,-5.94165 -11.54377,-1.69762 z"
       id="path23"
       transform="translate(0.04341278,0.00111802)" /><path
       style="display:inline;fill:#ffffff;fill-opacity:1;stroke:none;stroke-width:0.262707;stroke-opacity:1"
       d="m 226.29178,132.41379 c 0,0 5.60212,-7.80902 12.22282,-7.12997 0,0 16.97612,-13.41114 20.03182,-7.12997 0,0 -10.5252,2.03713 -9.84615,5.94164 0,0 16.29708,3.56499 18.67374,7.80902 l 0.16976,11.03448 c 0,0 -6.79045,-24.44563 -41.25199,-10.5252 z"
       id="path24"
       transform="translate(0.04341278,0.00111802)" /><path
       style="display:inline;fill:#ffffff;fill-opacity:1;stroke:none;stroke-width:0.262707;stroke-opacity:1"
       d="m 252.26526,142.09018 c 0,0 -13.92043,12.05305 -6.62069,25.29443 0,0 -14.59947,1.35809 -14.42971,10.01592 0,0 12.90185,-8.65783 20.71087,-3.22546 0,0 11.88329,12.90185 15.27852,12.90185 l -0.16976,-7.97878 c 0,0 -26.48275,-12.7321 -14.76923,-37.00796 z"
       id="path25"
       transform="translate(0.04341278,0.00111802)" /></g><g
     id="g18"
     inkscape:label="leftback"
     style="display:inline"
     transform="translate(-16.751008,18.3293)"><path
       style="display:inline;fill:#ffffff;fill-opacity:1;stroke:#000000;stroke-width:6.08345;stroke-opacity:1"
       d="m 269.40342,241.64736 c 0,0 -10.1955,-21.3715 -34.95412,-9.09564 0,0 -15.37931,6.55173 -23.86207,-6.27586 0,0 -57.24138,-16.27586 -42.89655,29.51724 0,0 0.96552,8.89655 -13.58621,5.37931 0,0 -5.58621,22.34483 9.65517,34.06897 0,0 0.24657,18.03652 1.86207,20.27586 0,0 6.34483,17.24138 16.13793,20.62069 0,0 5.71242,12.84336 11.51725,16.13793 0,0 12.27586,11.17242 18.68965,12.13793 0,0 10.52018,10.63647 15.51724,12 0,0 11.62723,5.77553 28.48276,1.65518 0,0 14.2069,-1.10345 14.41379,-16.55173 z"
       id="path10"
       sodipodi:nodetypes="cccccccccccccc" /><path
       style="display:inline;fill:#000000;fill-opacity:1;stroke:#000000;stroke-width:0.834984;stroke-opacity:1"
       d="m 267.24138,262.62069 c 0,0 -8.06896,-7.10345 -13.86207,-8 0,0 -6.55172,1.93103 -2.06897,5.51724 0,0 14,5.10345 16.55173,11.58621 z"
       id="path11" /><path
       style="display:inline;fill:#000000;fill-opacity:1;stroke:#000000;stroke-width:0.834984;stroke-opacity:1"
       d="m 267.50973,306.29635 c 0,0 -17.31034,-13.65517 -23.24138,-15.93103 0,0 -6.55172,-10.48276 -13.24138,-14.48276 0,0 -6.27586,-1.93104 -7.03448,-11.79311 l 0.13793,-6.68965 c 0,0 -2.55172,-8.2069 -6.34483,-0.68966 0,0 -0.20689,8.2069 0.75863,11.79311 0,0 -20.89656,-7.65517 -28.75863,-22.82759 0,0 -7.51724,-6.48276 -5.86206,1.58621 0,0 4.62069,11.17241 16.48275,19.44827 0,0 -8.75862,5.58621 -9.31034,9.72414 0,0 0.27586,6 5.17241,3.37931 0,0 6.55173,-14.55172 18.68966,-6.06896 0,0 15.24138,6.96551 20.13793,14.89655 0,0 -11.7931,0.62069 -13.72414,3.03448 0,0 -3.24138,6.34483 2.62069,5.24138 0,0 6,-2.41379 10.68966,-2.27586 0,0 4.68965,-1.44828 11.86207,4.27586 0,0 18,10.68966 20.75862,16.82759 z"
       id="path12" /><path
       style="display:inline;fill:#000000;fill-opacity:1;stroke:#000000;stroke-width:0.834984;stroke-opacity:1"
       d="m 266.79959,327.72414 0.27586,6.75862 c 0,0 -13.86207,7.65517 -23.24138,2 0,0 -3.72414,-5.72414 2.48276,-5.37931 0,0 10.62069,3.31035 20.48276,-3.37931 z"
       id="path13" /><path
       style="display:inline;fill:#000000;fill-opacity:1;stroke:#000000;stroke-width:0.834984;stroke-opacity:1"
       d="m 268.09491,339.77261 0.2069,13.93104 c 0,0 -9.03448,14.41379 -26.68965,9.31035 0,0 -5.24138,-4.34483 1.10345,-5.86208 0,0 21.93102,3.86206 25.3793,-17.37931 z"
       id="path14" /><path
       style="display:inline;fill:#000000;fill-opacity:1;stroke:#000000;stroke-width:0.834984;stroke-opacity:1"
       d="m 255.24138,368.27586 c 0,0 5.24138,3.31035 0.13793,5.51724 0,0 -16.68965,1.44828 -25.51724,-5.72413 0,0 -10.27586,-8.68966 -17.72414,-10.62069 0,0 -13.44827,-9.03449 -13.7931,-14.82759 0,0 1.7931,-4.41379 5.10345,-1.17241 0,0 6.06896,10.41379 11.7931,10.82758 0,0 13.31034,6.06897 18.55172,11.51724 0,0 12.27587,7.03448 21.44828,4.48276 z"
       id="path15" /><path
       style="display:inline;fill:#000000;fill-opacity:1;stroke:#000000;stroke-width:0.834984;stroke-opacity:1"
       d="m 207.44828,305.93103 c 0,0 2.48275,-6.41379 5.65517,-0.75861 0,0 3.10345,11.93103 12.96552,12.13792 l 11.10344,-0.41379 c 0,0 5.31035,0.82759 3.37931,4.55173 0,0 -7.5862,8.13793 -5.7931,13.72413 0,0 2.41379,8.48276 -4.13793,9.37931 0,0 -12.41379,4.34483 -17.31035,0.55173 0,0 -5.86206,-4.55173 -6.06896,-6.68966 0,0 -21.86207,-2.62069 -26.41379,-9.93103 0,0 -10.34483,-15.03448 -8.48276,-21.93104 0,0 4.13793,-4.62069 5.65517,0.34483 0,0 -0.82759,23.37931 26.41379,25.65517 l -1.31034,-5.65517 c 0,0 3.31034,-5.58621 5.86207,-0.68965 0,0 2.68965,11.10344 6.27586,12.82758 0,0 5.37931,4 13.58621,-0.34482 0,0 -1.31035,-11.37932 2.75862,-14.62069 0,0 -23.03448,1.3793 -24.13793,-18.13794 z"
       id="path16" /><path
       style="display:inline;fill:#000000;fill-opacity:1;stroke:#000000;stroke-width:0.834984;stroke-opacity:1"
       d="m 209.86207,289.17242 c 0,0 5.86207,-0.069 3.44827,4.20689 0,0 -20.13793,10.13793 -18.34482,21.44828 0,0 -3.44828,6.75862 -5.86207,0.069 0,0 -1.37931,-8.00004 3.51724,-12.75866 0,0 -13.7931,-2.41379 -18.48276,-15.51724 0,0 -1.7931,-10.2069 -0.82759,-16.75862 0,0 4.68966,-5.65517 6.2069,-0.069 0,0 -3.37931,40.82763 30.34483,19.37935 z"
       id="path17" /></g><g
     id="g17-6-7"
     inkscape:label="level4"
     transform="matrix(-1,0,0,1,531.91265,18.267488)"
     style="display:none"><path
       style="display:inline;fill:#000000;fill-opacity:1;stroke:#ffffff;stroke-width:6.08345;stroke-opacity:1"
       d="m 270.25572,237.62112 c 0,0 -12.43754,-15.07567 -33.16481,-6.16657 0,0 -17.92904,8.77161 -25.45455,-5.45455 0,0 -57.45454,-15.27273 -43.27272,29.27273 0,0 4.25212,8.37769 -13.9297,6.01406 0,0 -1.52485,-21.10497 3.02061,-28.3777 0,0 6.54545,-17.81818 6.36363,-30.36364 0,0 1.77384,-12.47449 7.45455,-15.45454 0,0 4.11973,-12.29268 5.16186,-15.09091 0,0 4.11086,-9.81818 7.74723,-12.36364 0,0 6.4745,-7.09091 6.4745,-11.09091 0,0 2.61641,-16 12.98004,-17.81818 0,0 7.81819,-10.54545 13.63637,-11.81818 0,0 13.63636,-4.18182 16.54545,-8.18182 0,0 37.45455,-19.636361 36.18182,18.72728 l -0.14202,84.88912 z"
       id="path1-3-1"
       sodipodi:nodetypes="ccccccccccccccccc" /><path
       style="display:inline;fill:#ffffff;fill-opacity:1;stroke:none;stroke-width:0.262707;stroke-opacity:1"
       d="m 267.11356,201.31704 v 8.3183 c 0,0 -4.58356,-11.03449 -25.29443,-3.90451 0,0 13.5809,-6.28116 25.29443,-4.41379 z"
       id="path18-9" /><path
       style="display:inline;fill:#ffffff;fill-opacity:1;stroke:none;stroke-width:0.262707;stroke-opacity:1"
       d="m 217.20374,229.49742 -9.33687,-6.45094 c 0,0 1.52785,-27.84084 16.80637,-33.27321 0,0 -15.95757,21.89922 -7.4695,39.72415 z"
       id="path19-8" /><path
       style="display:inline;fill:#ffffff;fill-opacity:1;stroke:none;stroke-width:0.262707;stroke-opacity:1"
       d="m 165.93584,206.40988 -0.67905,8.3183 c 0,0 6.28117,-11.88329 19.18303,-1.52786 0,0 -9.84615,-10.35542 -18.50398,-6.79044 z"
       id="path20-8" /><path
       style="display:inline;fill:#ffffff;fill-opacity:1;stroke:none;stroke-width:0.262707;stroke-opacity:1"
       d="m 195.98358,207.76797 c 0,0 -30.38726,-37.68701 6.96021,-54.49337 0,0 -17.65517,13.5809 -13.07161,26.14323 0,0 13.24138,-4.24403 13.5809,4.24404 0,0 -5.88161,-4.16329 -10.91855,-0.68319 0,0 -4.35997,4.24818 3.44905,24.78929 z"
       id="path21-0"
       sodipodi:nodetypes="cccccc" /><path
       style="display:inline;fill:#ffffff;fill-opacity:1;stroke:none;stroke-width:0.262707;stroke-opacity:1"
       d="m 208.20639,175.85285 c 0,0 1.86738,-11.37401 10.01592,-14.59947 0,0 -5.43236,-11.71353 2.03714,-15.95756 0,0 -2.88595,12.56233 11.20424,15.61803 0,0 -18.84351,1.3581 -23.2573,14.939 z"
       id="path22-3" /><path
       style="display:inline;fill:#ffffff;fill-opacity:1;stroke:none;stroke-width:0.262707;stroke-opacity:1"
       d="m 200.73689,135.44966 7.4695,-6.28117 c 0,0 4.92308,2.88595 4.07427,7.97879 0,0 -6.11141,-5.94165 -11.54377,-1.69762 z"
       id="path23-7" /><path
       style="display:inline;fill:#ffffff;fill-opacity:1;stroke:none;stroke-width:0.262707;stroke-opacity:1"
       d="m 226.37085,133.24276 c 0,0 5.60212,-7.80902 12.22282,-7.12997 0,0 16.97612,-13.41114 20.03182,-7.12997 0,0 -10.5252,2.03713 -9.84615,5.94164 0,0 16.29708,3.56499 18.67374,7.80902 l 0.16976,11.03448 c 0,0 -6.79045,-24.44563 -41.25199,-10.5252 z"
       id="path24-8" /><path
       style="display:inline;fill:#ffffff;fill-opacity:1;stroke:none;stroke-width:0.262707;stroke-opacity:1"
       d="m 252.34433,143.25868 c 0,0 -13.92043,12.05305 -6.62069,25.29443 0,0 -14.59947,1.35809 -14.42971,10.01592 0,0 12.90185,-8.65783 20.71087,-3.22546 0,0 11.88329,12.90185 15.27852,12.90185 l -0.16976,-7.97878 c 0,0 -26.48275,-12.7321 -14.76923,-37.00796 z"
       id="path25-0" /></g></svg>
