<svg>
    <g style="display:inline">
        <path style="display:inline;fill:#000;fill-opacity:1;stroke:#fff;stroke-width:6.36819;stroke-opacity:1" d="M94.244 262.83s-7.901 7.176 0 15.219c0 0 64 60.292 130.927 76.878 0 0 49.212 15.117 104.78-13.073 0 0 45.464-17.952 93.659-61.074 0 0 12.292-8.585.39-19.902 0 0-48.39-48-105.17-67.707 0 0-56.976-21.073-111.22-2.147 0 0-50.537 13.464-113.366 71.805z"/>
        <path style="display:inline;fill:#fff;fill-opacity:1;stroke:#000;stroke-width:6.36819;stroke-opacity:1" d="M124.098 262.049s-11.903 8.39-.196 15.22c0 0 38.244 34.146 76.098 48.194 0 0 51.122 25.561 117.268.78 0 0 43.903-16.194 77.269-47.414 0 0 15.22-4.878-.196-19.512 0 0-37.853-29.854-73.17-44.878 0 0-62.83-25.56-112.586-3.122 0 0-46.244 15.024-84.487 50.732z"/>
        <path style="display:inline;fill:#fff;fill-opacity:1;stroke:#000;stroke-width:6.36819;stroke-opacity:1" d="M325.205 266.32a64.683 64.683 0 0 1-61.742 67.47 64.683 64.683 0 0 1-67.495-61.715 64.683 64.683 0 0 1 61.687-67.52 64.683 64.683 0 0 1 67.546 61.659"/>
        <path style="display:inline;fill:#000;fill-opacity:1;stroke:#000;stroke-width:6.36819;stroke-opacity:1" d="M284.465 268.711a23.707 23.707 0 0 1-22.63 24.729 23.707 23.707 0 0 1-24.738-22.62 23.707 23.707 0 0 1 22.61-24.747 23.707 23.707 0 0 1 24.756 22.6"/>
        <path style="fill:#000;fill-opacity:1;stroke:#000;stroke-width:1.923;stroke-opacity:1" d="M213.284 249.497s1.626 9.164 5.912 2.66c0 0 5.026-13.894 16.555-20.988 0 0 7.094-7.39-3.843-5.765 0 0-18.033 10.938-18.624 24.093zM305.656 292.36s-1.1-9.242-5.75-2.994c0 0-5.812 13.584-17.728 20.008 0 0-7.505 6.973 3.508 5.975 0 0 18.628-9.89 19.97-22.989z"/>
        <path style="display:inline;fill:none;stroke:#fff;stroke-width:6.19509;stroke-opacity:1" d="M121.325 270.135s127.374 143.321 277.754.008"/>
        <path style="display:inline;fill:none;stroke:#fff;stroke-width:6.19509;stroke-opacity:1" d="M104.126 284.547s145.29-183.174 312.17 1.145"/>
    </g>
</svg>