<svg width="800" height="800" viewBox="0 0 512 512" xml:space="preserve" xmlns="http://www.w3.org/2000/svg">
    <g style="display:inline">
        <path style="display:inline;fill:#000;fill-opacity:1;stroke:#fff;stroke-width:6.36819;stroke-opacity:1" d="M95.418 262.37s-7.9 7.177 0 15.22c0 0 64 60.292 130.927 76.877 0 0 49.212 15.117 104.78-13.073 0 0 45.464-17.951 93.659-61.073 0 0 12.293-8.585.39-19.903 0 0-48.39-48-105.17-67.707 0 0-56.976-21.073-111.22-2.146 0 0-50.537 13.463-113.366 71.805z" transform="translate(5.44 -1.314)"/>
        <path style="display:inline;fill:#fff;fill-opacity:1;stroke:#000;stroke-width:3.91754;stroke-opacity:1" d="M122.924 263.87s-12.006 3.147-.197 5.71c0 0 38.574 12.81 76.755 18.082 0 0 51.563 9.59 118.281.293 0 0 44.282-6.077 77.936-17.79 0 0 15.351-1.83-.197-7.32 0 0-38.18-11.202-73.803-16.839 0 0-63.372-8.63-113.558-.21 0 0-46.643 4.676-85.217 18.073z" transform="translate(5.44 -1.314)"/>
        <path style="display:inline;fill:#fff;fill-opacity:1;stroke:#000;stroke-width:6.36819;stroke-opacity:1" d="M325.205 266.32a64.683 64.683 0 0 1-61.742 67.47 64.683 64.683 0 0 1-67.495-61.715 64.683 64.683 0 0 1 61.687-67.52 64.683 64.683 0 0 1 67.546 61.659" transform="translate(5.44 -1.314)"/>
        <path style="display:inline;fill:#000;fill-opacity:1;stroke:#000;stroke-width:6.36819;stroke-opacity:1" d="M284.465 268.711a23.707 23.707 0 0 1-22.63 24.729 23.707 23.707 0 0 1-24.738-22.62 23.707 23.707 0 0 1 22.61-24.747 23.707 23.707 0 0 1 24.756 22.6" transform="translate(5.44 -1.314)"/>
        <path style="fill:#000;fill-opacity:1;stroke:#000;stroke-width:1.923;stroke-opacity:1" d="M213.284 249.497s1.626 9.164 5.912 2.66c0 0 5.026-13.894 16.555-20.988 0 0 7.094-7.39-3.843-5.765 0 0-18.033 10.938-18.624 24.093zM305.656 292.36s-1.1-9.242-5.75-2.994c0 0-5.812 13.584-17.728 20.008 0 0-7.505 6.973 3.508 5.975 0 0 18.628-9.89 19.97-22.989z" transform="translate(5.44 -1.314)"/>
        <path style="fill:#000;fill-opacity:1;stroke:#000;stroke-width:1.97234;stroke-opacity:1" d="M193.117 251.639s74.727-15.341 127.606-.334l-8.866-42.355-59.529-8.337-51.612 20.01z" transform="translate(5.44 -1.314)"/>
        <path style="fill:#000;fill-opacity:1;stroke:#000;stroke-width:2.11782;stroke-opacity:1" d="M197.555 287.007s51.857 22.333 126.482-.77l-14.862 41.2-74.94 9.626z" transform="translate(5.44 -1.314)"/>
        <path style="display:inline;fill:none;stroke:#fff;stroke-width:6.19509;stroke-opacity:1" d="M125.836 265.215s126.836 60.898 279.066.082"/>
        <path style="display:inline;fill:none;stroke:#fff;stroke-width:6.19509;stroke-opacity:1" d="M99.84 273.103s165.076-60.739 333.46 1.562"/>
    </g>
</svg>
