<svg width="800" height="800" viewBox="0 0 512 512" xml:space="preserve" xmlns="http://www.w3.org/2000/svg">
    <g style="display:inline">
        <path style="display:inline;fill:#000;fill-opacity:1;stroke:#fff;stroke-width:6.36819;stroke-opacity:1" d="M94.037 263.131s-7.9 7.177 0 15.22c0 0 64 60.292 130.927 76.878 0 0 49.212 15.117 104.78-13.073 0 0 45.464-17.952 93.66-61.073 0 0 12.292-8.586.39-19.903 0 0-48.39-48-105.171-67.707 0 0-56.976-21.073-111.22-2.147 0 0-50.536 13.464-113.366 71.805z" transform="translate(4.964 -3.906)"/>
        <path style="display:inline;fill:#fff;fill-opacity:1;stroke:#000;stroke-width:4.84134;stroke-opacity:1" d="M123.367 264.59s-11.966 4.823-.196 8.749c0 0 38.45 19.63 76.507 27.706 0 0 51.396 14.694 117.898.449 0 0 44.139-9.31 77.684-27.258 0 0 15.301-2.804-.196-11.217 0 0-38.057-17.162-73.564-25.799 0 0-63.167-14.694-113.19-1.794 0 0-46.493 8.637-84.943 29.164z" transform="translate(4.964 -3.906)"/>
        <path style="display:inline;fill:#fff;fill-opacity:1;stroke:#000;stroke-width:6.36819;stroke-opacity:1" d="M325.205 266.32a64.683 64.683 0 0 1-61.742 67.47 64.683 64.683 0 0 1-67.495-61.715 64.683 64.683 0 0 1 61.687-67.52 64.683 64.683 0 0 1 67.546 61.659" transform="translate(4.964 -3.906)"/>
        <path style="display:inline;fill:#000;fill-opacity:1;stroke:#000;stroke-width:6.36819;stroke-opacity:1" d="M284.465 268.711a23.707 23.707 0 0 1-22.63 24.729 23.707 23.707 0 0 1-24.738-22.62 23.707 23.707 0 0 1 22.61-24.747 23.707 23.707 0 0 1 24.756 22.6" transform="translate(4.964 -3.906)"/>
        <path style="fill:#000;fill-opacity:1;stroke:#000;stroke-width:1.923;stroke-opacity:1" d="M213.284 249.497s1.626 9.164 5.912 2.66c0 0 5.026-13.894 16.555-20.988 0 0 7.094-7.39-3.843-5.765 0 0-18.033 10.938-18.624 24.093zM305.656 292.36s-1.1-9.242-5.75-2.994c0 0-5.812 13.584-17.728 20.008 0 0-7.505 6.973 3.508 5.975 0 0 18.628-9.89 19.97-22.989z" transform="translate(4.964 -3.906)"/>
        <path style="fill:#000;fill-opacity:1;stroke:#000;stroke-width:1.76492;stroke-opacity:1" d="M197.15 237.421s74.88-12.259 127.867-.266l-8.884-33.845-59.65-6.663-51.718 15.99z" transform="translate(4.964 -3.906)"/>
        <path style="fill:#000;fill-opacity:1;stroke:#000;stroke-width:1.8381;stroke-opacity:1" d="M197.378 299.572s52.001 16.776 126.832-.579l-14.902 30.95-75.148 7.231z" transform="translate(4.964 -3.906)"/>
        <path style="display:inline;fill:none;stroke:#fff;stroke-width:6.19509;stroke-opacity:1" d="M125.644 264.245s125.303 85.038 280.002-.164"/>
        <path style="display:inline;fill:none;stroke:#fff;stroke-width:6.19509;stroke-opacity:1" d="M103.142 276.68s138.829-110.156 325.01-.9"/>
    </g>
</svg>
