<svg width="48" height="48" viewBox="0 0 512 512">
    <g style="display:inline">
        <path style="display:inline;fill:#000;fill-opacity:1;stroke:#fff;stroke-width:6.36819;stroke-opacity:1" d="M92.782 263.395s-7.901 7.177 0 15.22c0 0 64 60.292 130.927 76.878 0 0 49.212 15.117 104.78-13.073 0 0 45.464-17.952 93.659-61.073 0 0 12.292-8.586.39-19.903 0 0-48.39-48-105.17-67.707 0 0-56.976-21.073-111.22-2.147 0 0-50.537 13.464-113.366 71.805z" transform="translate(4.337 -2.81)"/>
        <path style="display:inline;fill:#fff;fill-opacity:1;stroke:#000;stroke-width:2.39967;stroke-opacity:1" d="M122.197 267.061s-12.069 1.175-.198 2.132c0 0 38.78 4.781 77.162 6.749 0 0 51.837 3.58 118.908.109 0 0 44.517-2.268 78.35-6.64 0 0 15.432-.683-.199-2.732 0 0-38.383-4.18-74.194-6.285 0 0-63.708-3.579-114.16-.437 0 0-46.89 2.104-85.669 7.104z" transform="translate(4.337 -2.81)"/>
        <path style="display:inline;fill:#fff;fill-opacity:1;stroke:#000;stroke-width:6.36819;stroke-opacity:1" d="M325.205 266.32a64.683 64.683 0 0 1-61.742 67.47 64.683 64.683 0 0 1-67.495-61.715 64.683 64.683 0 0 1 61.687-67.52 64.683 64.683 0 0 1 67.546 61.659" transform="translate(4.337 -2.81)"/>
        <path style="display:inline;fill:#000;fill-opacity:1;stroke:#000;stroke-width:6.36819;stroke-opacity:1" d="M284.465 268.711a23.707 23.707 0 0 1-22.63 24.729 23.707 23.707 0 0 1-24.738-22.62 23.707 23.707 0 0 1 22.61-24.747 23.707 23.707 0 0 1 24.756 22.6" transform="translate(4.337 -2.81)"/>
        <path style="fill:#000;fill-opacity:1;stroke:#000;stroke-width:1.923;stroke-opacity:1" d="M213.284 249.497s1.626 9.164 5.912 2.66c0 0 5.026-13.894 16.555-20.988 0 0 7.094-7.39-3.843-5.765 0 0-18.033 10.938-18.624 24.093zM305.656 292.36s-1.1-9.242-5.75-2.994c0 0-5.812 13.584-17.728 20.008 0 0-7.505 6.973 3.508 5.975 0 0 18.628-9.89 19.97-22.989z" transform="translate(4.337 -2.81)"/>
        <path style="fill:#000;fill-opacity:1;stroke:#000;stroke-width:2.19714;stroke-opacity:1" d="M196.972 260.607s72.663-4.505 127.327 1.486l-8.846-52.675-59.398-10.37-51.5 24.887z" transform="translate(4.337 -2.81)"/>
        <path style="fill:#000;fill-opacity:1;stroke:#000;stroke-width:2.33045;stroke-opacity:1" d="M196.154 275.927s56.458 5.26 127.695-.619l-14.818 50.035-87.394 13.592z" transform="translate(4.337 -2.81)"/>
        <path style="display:inline;fill:none;stroke:#fff;stroke-width:6.19509;stroke-opacity:1" d="M125.654 264.442s132.244 25.842 278.077-.286"/>
        <path style="display:inline;fill:none;stroke:#fff;stroke-width:6.19508;stroke-opacity:1" d="M95.552 269.959s126.156-31.722 335.132-2.245"/>
    </g>
</svg>
