<svg width="800" height="800" viewBox="0 0 512 512" xml:space="preserve" xmlns="http://www.w3.org/2000/svg">
    <g style="display:inline">
        <path style="display:inline;fill:#000;fill-opacity:1;stroke:#fff;stroke-width:6.36819;stroke-opacity:1" d="M93.858 262.383s-7.901 7.176 0 15.22c0 0 64 60.292 130.927 76.877 0 0 49.212 15.117 104.78-13.073 0 0 45.463-17.951 93.659-61.073 0 0 12.292-8.586.39-19.903 0 0-48.39-48-105.17-67.707 0 0-56.977-21.073-111.22-2.146 0 0-50.537 13.463-113.366 71.805z" transform="translate(.592 -.32)"/>
        <path style="display:inline;fill:#fff;fill-opacity:1;stroke:#000;stroke-width:5.51662;stroke-opacity:1" d="M123.69 263.292s-11.938 6.278-.196 11.387c0 0 38.359 25.548 76.326 36.06 0 0 51.275 19.124 117.62.584 0 0 44.034-12.118 77.5-35.476 0 0 15.265-3.65-.195-14.599 0 0-37.968-22.336-73.39-33.577 0 0-63.018-19.124-112.924-2.336 0 0-46.382 11.241-84.74 37.957z" transform="translate(.592 -.32)"/>
        <path style="display:inline;fill:#fff;fill-opacity:1;stroke:#000;stroke-width:6.36819;stroke-opacity:1" d="M325.205 266.32a64.683 64.683 0 0 1-61.742 67.47 64.683 64.683 0 0 1-67.495-61.715 64.683 64.683 0 0 1 61.687-67.52 64.683 64.683 0 0 1 67.546 61.659" transform="translate(.592 -.32)"/>
        <path style="display:inline;fill:#000;fill-opacity:1;stroke:#000;stroke-width:6.36819;stroke-opacity:1" d="M284.465 268.711a23.707 23.707 0 0 1-22.63 24.729 23.707 23.707 0 0 1-24.738-22.62 23.707 23.707 0 0 1 22.61-24.747 23.707 23.707 0 0 1 24.756 22.6" transform="translate(.592 -.32)"/>
        <path style="fill:#000;fill-opacity:1;stroke:#000;stroke-width:1.923;stroke-opacity:1" d="M213.284 249.497s1.626 9.164 5.912 2.66c0 0 5.026-13.894 16.555-20.988 0 0 7.094-7.39-3.843-5.765 0 0-18.033 10.938-18.624 24.093zM305.656 292.36s-1.1-9.242-5.75-2.994c0 0-5.812 13.584-17.728 20.008 0 0-7.505 6.973 3.508 5.975 0 0 18.628-9.89 19.97-22.989z" transform="translate(.592 -.32)"/>
        <path style="fill:#000;fill-opacity:1;stroke:#000;stroke-width:1.54415;stroke-opacity:1" d="M196.971 225.62s75.049-9.364 128.155-.204l-8.904-25.85-59.784-5.088-51.835 12.212z" transform="translate(.592 -.32)"/>
        <path style="fill:#000;fill-opacity:1;stroke:#000;stroke-width:1.54172;stroke-opacity:1" d="M197.187 310.905s52.157 11.767 127.21-.406l-14.947 21.708-75.372 5.073z" transform="translate(.592 -.32)"/>
        <path style="display:inline;fill:none;stroke:#fff;stroke-width:6.19509;stroke-opacity:1" d="M120.933 269.35s131.926 104.049 277.987.392"/>
        <path style="display:inline;fill:none;stroke:#fff;stroke-width:6.19509;stroke-opacity:1" d="M101.977 281.578s145.93-137.177 316.89 1.446"/>
    </g>
</svg>
