<?xml version="1.0" encoding="UTF-8" standalone="no"?><!DOCTYPE svg PUBLIC "-//W3C//DTD SVG 1.1//EN" "http://www.w3.org/Graphics/SVG/1.1/DTD/svg11.dtd"><svg width="100%" height="100%" viewBox="0 0 256 257" version="1.1" xmlns="http://www.w3.org/2000/svg" xmlns:xlink="http://www.w3.org/1999/xlink" xml:space="preserve" xmlns:serif="http://www.serif.com/" style="fill-rule:evenodd;clip-rule:evenodd;stroke-linejoin:round;stroke-miterlimit:2;"><g transform="matrix(1,0,0,1,0,-821)"><g id="actors" transform="matrix(1,0,0,1,0,821.315)"><rect x="0" y="0" width="256" height="256" style="fill:none;"/><g transform="matrix(0.267666,0,0,0.267666,-2802.95,-1289.5)"><path d="M11107.9,5375.43c76.853,21.208 149.348,57.373 213.081,106.984c27.775,21.135 44.255,53.988 44.585,88.893c-0,0.049 0,0.098 0,0.147l0,59.307c0,30.973 -25.487,56.46 -56.46,56.46l-718.149,0c-30.973,0 -56.46,-25.487 -56.46,-56.46l0,-67.427c0,-0.034 0,-0.069 0,-0.103c0.238,-35.687 17.432,-69.213 46.273,-90.228c60.672,-44.925 128.78,-77.896 200.676,-97.714c-61.208,-48.538 -100.747,-123.457 -100.747,-206.887c0,-144.86 119.202,-264.062 264.063,-264.062c144.86,-0 264.062,119.202 264.062,264.062c0,83.511 -39.615,158.494 -100.924,207.028Zm-163.43,57.035l-0.007,2.421c-113.492,-0.342 -224.107,36.028 -315.251,103.654c-0.058,0.043 -0.115,0.085 -0.174,0.127c-7.999,5.766 -12.833,14.972 -13.04,24.826c0,0 0,42.303 0,42.303l668.067,0c0,0 0,-34.1 -0.002,-34.188c-0.243,-9.675 -4.945,-18.72 -12.734,-24.477c-0.113,-0.083 -0.225,-0.168 -0.335,-0.254c-93.167,-72.839 -208.178,-112.269 -326.438,-111.916l-0.008,-2.496c-0.026,-0 -0.052,-0 -0.078,-0Zm0.309,-446.624l-0.017,-0c-100.106,0.124 -182.443,82.464 -182.562,182.57c0.005,100.147 82.414,182.553 182.562,182.553c100.15,0 182.561,-82.411 182.561,-182.562c0,-100.144 -82.401,-182.551 -182.544,-182.561Z" /></g></g></g></svg>