<?xml version="1.0" encoding="UTF-8" standalone="no"?><!DOCTYPE svg PUBLIC "-//W3C//DTD SVG 1.1//EN" "http://www.w3.org/Graphics/SVG/1.1/DTD/svg11.dtd"><svg width="100%" height="100%" viewBox="0 0 256 256" version="1.1" xmlns="http://www.w3.org/2000/svg" xmlns:xlink="http://www.w3.org/1999/xlink" xml:space="preserve" xmlns:serif="http://www.serif.com/" style="fill-rule:evenodd;clip-rule:evenodd;stroke-linejoin:round;stroke-miterlimit:2;"><rect id="chat" x="0" y="0" width="256" height="256" style="fill:none;"/><g id="chat1" serif:id="chat"><g transform="matrix(10.4383,0,0,10.4383,2.74062,2.74062)"><path d="M22.245,15c0,1.78 -1.465,3.245 -3.245,3.245l-11.484,0l-3.635,3.636c-0.357,0.356 -0.892,0.462 -1.358,0.27c-0.465,-0.193 -0.768,-0.647 -0.768,-1.151l-0,-16c-0,-1.78 1.465,-3.245 3.245,-3.245l14,-0c1.78,-0 3.245,1.465 3.245,3.245l0,10Zm-2.49,0l-0,-10c-0,-0.414 -0.341,-0.755 -0.755,-0.755l-14,0c-0.414,0 -0.755,0.341 -0.755,0.755l0,12.993l1.874,-1.874c0.234,-0.233 0.551,-0.364 0.881,-0.364l12,-0c0.414,-0 0.755,-0.341 0.755,-0.755Z" style=""/></g></g></svg>