<?xml version="1.0" encoding="UTF-8" standalone="no"?><!DOCTYPE svg PUBLIC "-//W3C//DTD SVG 1.1//EN" "http://www.w3.org/Graphics/SVG/1.1/DTD/svg11.dtd"><svg width="100%" height="100%" viewBox="0 0 256 257" version="1.1" xmlns="http://www.w3.org/2000/svg" xmlns:xlink="http://www.w3.org/1999/xlink" xml:space="preserve" xmlns:serif="http://www.serif.com/" style="fill-rule:evenodd;clip-rule:evenodd;stroke-linejoin:round;stroke-miterlimit:2;"><g transform="matrix(1,0,0,1,0,-2233)"><g id="compendiums" transform="matrix(1,0,0,1,8.52651e-14,2233.56)"><rect x="0" y="0" width="256" height="256" style="fill:none;"/><g transform="matrix(0.33283,0,0,0.295605,-5.13188,9.75787)"><path d="M68.476,273.333c-0,-46.904 2.318,-70.013 11.446,-87.928c9.571,-18.784 24.698,-34.239 43.482,-43.809c16.931,-8.627 38.934,-10.424 83.263,-10.424l115.817,0c19.652,0 29.46,0.403 38.707,2.623c9.798,2.353 19.165,6.251 27.762,11.518l0.005,0.003c8.298,5.085 15.664,11.832 29.886,26.055l4.18,4.182c8.839,8.839 13.002,13.619 18.159,16.78c3.334,2.043 6.975,3.532 10.775,4.445c6.099,1.464 12.597,1.061 25.559,1.061l115.816,0c44.329,0 66.334,1.797 83.265,10.424c18.782,9.57 33.911,25.026 43.48,43.809c9.128,17.915 11.446,41.025 11.446,87.928l0,186.667c0,46.903 -2.318,70.014 -11.446,87.929c-9.569,18.782 -24.698,34.239 -43.481,43.808c-16.931,8.627 -38.935,10.424 -83.264,10.424l-386.666,-0c-44.329,-0 -66.331,-1.797 -83.263,-10.424c-18.784,-9.569 -33.911,-25.025 -43.482,-43.808c-9.128,-17.914 -11.446,-41.025 -11.446,-87.929l-0,-253.334Zm63.048,0l0,253.334c0,17.281 -0.065,30.244 0.776,40.535c0.409,5.003 0.675,8.859 2.31,12.068c3.212,6.304 8.483,11.248 14.787,14.459c11.597,5.91 26.905,4.11 57.27,4.11l386.666,0c30.364,0 45.673,1.8 57.27,-4.11c6.303,-3.211 11.575,-8.155 14.786,-14.458c1.635,-3.208 1.902,-7.066 2.311,-12.069c0.841,-10.291 0.776,-23.254 0.776,-40.535l-0,-186.667c-0,-17.281 0.065,-30.244 -0.776,-40.535c-0.409,-5.003 -0.676,-8.861 -2.312,-12.07c-3.211,-6.304 -8.482,-11.247 -14.786,-14.458c-11.597,-5.91 -26.905,-4.109 -57.269,-4.109l-115.816,-0c-19.653,-0 -29.461,-0.403 -38.708,-2.623c-9.798,-2.353 -19.165,-6.251 -27.762,-11.518l-0.005,-0.003c-8.298,-5.085 -15.664,-11.832 -29.886,-26.055l-4.18,-4.182c-8.839,-8.839 -13.002,-13.619 -18.159,-16.78c-3.334,-2.043 -6.975,-3.532 -10.775,-4.445c-6.099,-1.464 -12.597,-1.061 -25.558,-1.061l-115.817,-0c-30.365,-0 -45.672,-1.8 -57.269,4.109c-6.305,3.212 -11.575,8.155 -14.787,14.46c-1.635,3.209 -1.902,7.065 -2.311,12.068c-0.841,10.291 -0.776,23.254 -0.776,40.535Z" style=""/></g></g></g></svg>