<?xml version="1.0" encoding="UTF-8" standalone="no"?><!DOCTYPE svg PUBLIC "-//W3C//DTD SVG 1.1//EN" "http://www.w3.org/Graphics/SVG/1.1/DTD/svg11.dtd"><svg width="100%" height="100%" viewBox="0 0 256 257" version="1.1" xmlns="http://www.w3.org/2000/svg" xmlns:xlink="http://www.w3.org/1999/xlink" xml:space="preserve" xmlns:serif="http://www.serif.com/" style="fill-rule:evenodd;clip-rule:evenodd;stroke-linejoin:round;stroke-miterlimit:2;"><g transform="matrix(1,0,0,1,0,-2517)"><g id="playlists" transform="matrix(1,0,0,1,8.52651e-14,2517.73)"><rect x="0" y="0" width="256" height="256" style="fill:none;"/><g transform="matrix(0.313148,0,0,0.313148,2.74062,2.74062)"><path d="M660.083,233.333c-0,-22.031 17.886,-39.917 39.917,-39.917c22.031,0 39.917,17.886 39.917,39.917l0,400c0,58.867 -47.717,106.584 -106.584,106.584l-400,0c-22.031,0 -39.917,-17.886 -39.917,-39.917c0,-22.031 17.886,-39.917 39.917,-39.917l400,-0c14.774,-0 26.75,-11.976 26.75,-26.75l-0,-400Zm-53.499,266.667c-0,58.866 -47.718,106.584 -106.584,106.584l-333.333,-0c-58.865,-0 -106.584,-47.718 -106.584,-106.584l-0,-333.333c-0,-58.865 47.719,-106.584 106.584,-106.584l333.333,-0c58.866,-0 106.584,47.719 106.584,106.584l-0,333.333Zm-79.835,0l0,-333.333c0,-14.774 -11.975,-26.75 -26.749,-26.75l-333.333,0c-14.774,0 -26.75,11.976 -26.75,26.75l0,333.333c0,14.774 11.976,26.749 26.75,26.749l333.333,0c14.774,0 26.749,-11.975 26.749,-26.749Z" style=""/></g><g transform="matrix(7.27955e-17,1.18884,-1.01717,6.22835e-17,2787.64,-6.56843)"><path d="M103.869,2598.06l26.984,53.968c1.437,2.872 1.448,6.423 0.032,9.309c-1.417,2.885 -4.046,4.665 -6.893,4.665l-53.968,-0c-2.846,-0 -5.475,-1.78 -6.892,-4.665c-1.417,-2.886 -1.405,-6.437 0.031,-9.309l26.984,-53.968c1.425,-2.85 4.037,-4.602 6.861,-4.602c2.824,0 5.436,1.752 6.861,4.602Zm-6.861,23.094l-13.135,26.272l26.271,0l-13.136,-26.272Z" style=""/></g></g></g></svg>