<?xml version="1.0" encoding="UTF-8" standalone="no"?><!DOCTYPE svg PUBLIC "-//W3C//DTD SVG 1.1//EN" "http://www.w3.org/Graphics/SVG/1.1/DTD/svg11.dtd"><svg width="100%" height="100%" viewBox="0 0 256 257" version="1.1" xmlns="http://www.w3.org/2000/svg" xmlns:xlink="http://www.w3.org/1999/xlink" xml:space="preserve" xmlns:serif="http://www.serif.com/" style="fill-rule:evenodd;clip-rule:evenodd;stroke-linejoin:round;stroke-miterlimit:2;"><g transform="matrix(1,0,0,1,0,-2819)"><g id="settings" transform="matrix(1,0,0,1,8.52651e-14,2819.92)"><rect x="0" y="0" width="256" height="256" style="fill:none;"/><g transform="matrix(0.34398,0,0,0.34398,-9.59204,-7.61077)"><path d="M117.988,278.862l-66.609,-0l-0,-57.243l66.609,0c13.449,-72.832 77.288,-128 154.012,-128c76.723,0 140.563,55.168 154.012,128l322.609,0l0,57.243l-322.609,-0c-13.45,72.83 -77.289,127.999 -154.012,127.999c-76.724,0 -140.563,-55.169 -154.012,-127.999Zm253.391,-28.622c-0,-54.885 -44.495,-99.378 -99.379,-99.378c-54.885,-0 -99.379,44.493 -99.379,99.378c0,54.884 44.494,99.379 99.379,99.379c54.884,-0 99.379,-44.495 99.379,-99.379Zm2.609,316.621l-322.609,0l-0,-57.242l322.609,-0c13.45,-72.831 77.289,-128 154.012,-128c76.723,-0 140.562,55.169 154.012,128l66.609,-0l0,57.242l-66.609,0c-13.45,72.831 -77.289,128 -154.012,128c-76.723,0 -140.562,-55.169 -154.012,-128Zm253.391,-28.621c-0,-54.884 -44.495,-99.379 -99.379,-99.379c-54.884,0 -99.379,44.495 -99.379,99.379c0,54.884 44.495,99.379 99.379,99.379c54.884,-0 99.379,-44.495 99.379,-99.379Z" style=""/></g></g></g></svg>