<?xml version="1.0" encoding="UTF-8" standalone="no"?>
<!-- Uploaded to: SVG Repo, www.svgrepo.com, Generator: SVG Repo Mixer Tools -->

<svg
   width="800px"
   height="800px"
   viewBox="0 0 512 512"
   version="1.1"
   id="svg1"
   sodipodi:docname="vision0.svg"
   xml:space="preserve"
   inkscape:version="1.3.2 (091e20e, 2023-11-25, custom)"
   xmlns:inkscape="http://www.inkscape.org/namespaces/inkscape"
   xmlns:sodipodi="http://sodipodi.sourceforge.net/DTD/sodipodi-0.dtd"
   xmlns="http://www.w3.org/2000/svg"
   xmlns:svg="http://www.w3.org/2000/svg"><defs
     id="defs1"><inkscape:path-effect
       effect="clone_original"
       linkeditem="#text115"
       id="path-effect103"
       is_visible="true"
       lpeversion="1"
       method="d"
       attributes=""
       css_properties=""
       allow_transforms="true" /><rect
       x="491.41104"
       y="219.6319"
       width="122.69939"
       height="22.699387"
       id="rect115" /><rect
       x="376.72414"
       y="159.05172"
       width="204.31034"
       height="28.232759"
       id="rect110" /><inkscape:path-effect
       effect="clone_original"
       linkeditem="#text1"
       id="path-effect58"
       is_visible="true"
       lpeversion="1"
       method="d"
       attributes=""
       css_properties=""
       allow_transforms="true" /><inkscape:path-effect
       effect="clone_original"
       linkeditem=""
       id="path-effect102"
       is_visible="true"
       lpeversion="1"
       method="d"
       attributes=""
       css_properties=""
       allow_transforms="true" /><rect
       x="89.090909"
       y="604.24242"
       width="153.93939"
       height="37.575758"
       id="rect63" /><inkscape:path-effect
       effect="perspective-envelope"
       up_left_point="178.4183,360.77716"
       up_right_point="226.46388,359.22951"
       down_left_point="180.10251,371.90573"
       down_right_point="229.55919,374.13617"
       id="path-effect5"
       is_visible="true"
       lpeversion="1"
       deform_type="perspective"
       horizontal_mirror="false"
       vertical_mirror="false"
       overflow_perspective="false" /><inkscape:path-effect
       effect="clone_original"
       linkeditem=""
       id="path-effect4"
       is_visible="true"
       lpeversion="1"
       method="d"
       attributes=""
       css_properties=""
       allow_transforms="true" /><inkscape:path-effect
       effect="perspective-envelope"
       up_left_point="114.56014,69.140036"
       up_right_point="288.99512,69.140036"
       down_left_point="114.56014,102.59042"
       down_right_point="288.99512,102.59042"
       id="path-effect3"
       is_visible="true"
       lpeversion="1"
       deform_type="perspective"
       horizontal_mirror="false"
       vertical_mirror="false"
       overflow_perspective="false" /><inkscape:path-effect
       effect="clone_original"
       linkeditem=""
       id="path-effect2"
       is_visible="true"
       lpeversion="1"
       method="d"
       attributes=""
       css_properties=""
       allow_transforms="true" /></defs><sodipodi:namedview
     id="namedview1"
     pagecolor="#ffffff"
     bordercolor="#000000"
     borderopacity="0.25"
     inkscape:showpageshadow="2"
     inkscape:pageopacity="0.0"
     inkscape:pagecheckerboard="0"
     inkscape:deskcolor="#d1d1d1"
     inkscape:zoom="0.78"
     inkscape:cx="419.23077"
     inkscape:cy="401.92308"
     inkscape:window-width="2622"
     inkscape:window-height="2044"
     inkscape:window-x="0"
     inkscape:window-y="0"
     inkscape:window-maximized="0"
     inkscape:current-layer="svg1"
     showguides="true" /><rect
     style="display:none;fill:#0a0a0a;fill-opacity:1;stroke:#ffffff;stroke-width:0.947738;stroke-opacity:1"
     id="rect10"
     width="526.99432"
     height="524.43433"
     x="-11.943922"
     y="-3.5607169"
     ry="0.9799872" /><g
     id="g5"
     inkscape:label="level0"
     style="display:inline"><path
       style="display:inline;fill:#000000;fill-opacity:1;stroke:#ffffff;stroke-width:6.36819;stroke-opacity:1"
       d="m 94.243904,262.82927 c 0,0 -7.900871,7.17685 0,15.21951 0,0 63.999996,60.29268 130.926826,76.87805 0,0 49.21214,15.11724 104.78049,-13.07317 0,0 45.46341,-17.95122 93.65854,-61.07317 0,0 12.29268,-8.58537 0.39024,-19.90244 0,0 -48.39024,-48 -105.17073,-67.70732 0,0 -56.97561,-21.07317 -111.21951,-2.14634 0,0 -50.53659,13.46342 -113.365856,71.80488 z"
       id="path1"
       sodipodi:nodetypes="ccccccccc" /><path
       style="display:inline;fill:#ffffff;fill-opacity:1;stroke:#000000;stroke-width:6.36819;stroke-opacity:1"
       d="m 124.09756,262.04878 c 0,0 -11.90244,8.39025 -0.19512,15.21951 0,0 38.2439,34.14634 76.09756,48.19512 0,0 51.12195,25.56098 117.26829,0.78049 0,0 43.90244,-16.19512 77.2683,-47.41463 0,0 15.21951,-4.87805 -0.19513,-19.5122 0,0 -37.85366,-29.85366 -73.17073,-44.87805 0,0 -62.82927,-25.56097 -112.58536,-3.12195 0,0 -46.24391,15.02439 -84.48781,50.73171 z"
       id="path2" /><path
       style="display:inline;fill:#ffffff;fill-opacity:1;stroke:#000000;stroke-width:6.36819;stroke-opacity:1"
       id="path3"
       sodipodi:type="arc"
       sodipodi:cx="260.58536"
       sodipodi:cy="269.17075"
       sodipodi:rx="64.682922"
       sodipodi:ry="64.682922"
       sodipodi:start="6.2390891"
       sodipodi:end="6.2374553"
       sodipodi:open="true"
       sodipodi:arc-type="arc"
       d="m 325.2054,266.3194 a 64.682922,64.682922 0 0 1 -61.7423,67.47022 64.682922,64.682922 0 0 1 -67.49544,-61.71474 64.682922,64.682922 0 0 1 61.68717,-67.52064 64.682922,64.682922 0 0 1 67.54583,61.65959" /><path
       style="display:inline;fill:#000000;fill-opacity:1;stroke:#000000;stroke-width:6.36819;stroke-opacity:1"
       id="path4"
       sodipodi:type="arc"
       sodipodi:cx="260.78049"
       sodipodi:cy="269.7561"
       sodipodi:rx="23.707317"
       sodipodi:ry="23.707317"
       sodipodi:start="6.2390891"
       sodipodi:end="6.2374553"
       sodipodi:open="true"
       sodipodi:arc-type="arc"
       d="m 284.46476,268.71104 a 23.707317,23.707317 0 0 1 -22.62954,24.72891 23.707317,23.707317 0 0 1 -24.73814,-22.61944 23.707317,23.707317 0 0 1 22.60932,-24.74738 23.707317,23.707317 0 0 1 24.75662,22.59922" /><path
       style="fill:#000000;fill-opacity:1;stroke:#000000;stroke-width:1.923;stroke-opacity:1"
       d="m 213.28406,249.49654 c 0,0 1.62587,9.16397 5.91225,2.6605 0,0 5.0254,-13.89376 16.55427,-20.98845 0,0 7.09469,-7.3903 -3.84296,-5.76443 0,0 -18.03234,10.93765 -18.62356,24.09238 z"
       id="path5" /><path
       style="fill:#000000;fill-opacity:1;stroke:#000000;stroke-width:1.923;stroke-opacity:1"
       d="m 305.65596,292.3604 c 0,0 -1.09933,-9.24193 -5.75049,-2.99414 0,0 -5.81146,13.58375 -17.72706,20.00775 0,0 -7.50558,6.97263 3.50713,5.9747 0,0 18.62813,-9.88889 19.97042,-22.98831 z"
       id="path5-5" /><path
       style="display:inline;fill:none;stroke:#ffffff;stroke-width:6.19509;stroke-opacity:1"
       d="m 121.32515,270.13497 c 0,0 127.3739,143.32114 277.75428,0.008"
       id="path16"
       sodipodi:nodetypes="cc" /><path
       style="display:inline;fill:none;stroke:#ffffff;stroke-width:6.19509;stroke-opacity:1"
       d="m 104.12572,284.54702 c 0,0 145.29022,-183.17448 312.16964,1.1449"
       id="path17"
       sodipodi:nodetypes="cc" /></g><g
     id="g5-8"
     inkscape:label="level1"
     transform="translate(0.5918498,-0.31929545)"
     style="display:none"><path
       style="display:inline;fill:#000000;fill-opacity:1;stroke:#ffffff;stroke-width:6.36819;stroke-opacity:1"
       d="m 93.857703,262.38257 c 0,0 -7.90087,7.17685 0,15.21951 0,0 63.999997,60.29268 130.926827,76.87805 0,0 49.21214,15.11724 104.78049,-13.07317 0,0 45.46341,-17.95122 93.65854,-61.07317 0,0 12.29268,-8.58537 0.39024,-19.90244 0,0 -48.39024,-48 -105.17073,-67.70732 0,0 -56.97561,-21.07317 -111.21951,-2.14634 0,0 -50.53659,13.46342 -113.365857,71.80488 z"
       id="path1-7"
       sodipodi:nodetypes="ccccccccc" /><path
       style="display:inline;fill:#ffffff;fill-opacity:1;stroke:#000000;stroke-width:5.51662;stroke-opacity:1"
       d="m 123.69006,263.29229 c 0,0 -11.93813,6.27751 -0.1957,11.38711 0,0 38.3586,25.54798 76.3258,36.05914 0,0 51.27528,19.12452 117.62002,0.58397 0,0 44.03412,-12.11705 77.50006,-35.47521 0,0 15.26515,-3.64972 -0.19573,-14.59886 0,0 -37.96719,-22.33624 -73.39018,-33.57735 0,0 -63.01772,-19.12451 -112.92305,-2.33583 0,0 -46.38261,11.24113 -84.74122,37.95703 z"
       id="path2-7" /><path
       style="display:inline;fill:#ffffff;fill-opacity:1;stroke:#000000;stroke-width:6.36819;stroke-opacity:1"
       id="path3-8"
       sodipodi:type="arc"
       sodipodi:cx="260.58536"
       sodipodi:cy="269.17075"
       sodipodi:rx="64.682922"
       sodipodi:ry="64.682922"
       sodipodi:start="6.2390891"
       sodipodi:end="6.2374553"
       sodipodi:open="true"
       sodipodi:arc-type="arc"
       d="m 325.2054,266.3194 a 64.682922,64.682922 0 0 1 -61.7423,67.47022 64.682922,64.682922 0 0 1 -67.49544,-61.71474 64.682922,64.682922 0 0 1 61.68717,-67.52064 64.682922,64.682922 0 0 1 67.54583,61.65959" /><path
       style="display:inline;fill:#000000;fill-opacity:1;stroke:#000000;stroke-width:6.36819;stroke-opacity:1"
       id="path4-8"
       sodipodi:type="arc"
       sodipodi:cx="260.78049"
       sodipodi:cy="269.7561"
       sodipodi:rx="23.707317"
       sodipodi:ry="23.707317"
       sodipodi:start="6.2390891"
       sodipodi:end="6.2374553"
       sodipodi:open="true"
       sodipodi:arc-type="arc"
       d="m 284.46476,268.71104 a 23.707317,23.707317 0 0 1 -22.62954,24.72891 23.707317,23.707317 0 0 1 -24.73814,-22.61944 23.707317,23.707317 0 0 1 22.60932,-24.74738 23.707317,23.707317 0 0 1 24.75662,22.59922" /><path
       style="fill:#000000;fill-opacity:1;stroke:#000000;stroke-width:1.923;stroke-opacity:1"
       d="m 213.28406,249.49654 c 0,0 1.62587,9.16397 5.91225,2.6605 0,0 5.0254,-13.89376 16.55427,-20.98845 0,0 7.09469,-7.3903 -3.84296,-5.76443 0,0 -18.03234,10.93765 -18.62356,24.09238 z"
       id="path5-7" /><path
       style="fill:#000000;fill-opacity:1;stroke:#000000;stroke-width:1.923;stroke-opacity:1"
       d="m 305.65596,292.3604 c 0,0 -1.09933,-9.24193 -5.75049,-2.99414 0,0 -5.81146,13.58375 -17.72706,20.00775 0,0 -7.50558,6.97263 3.50713,5.9747 0,0 18.62813,-9.88889 19.97042,-22.98831 z"
       id="path5-5-8" /><path
       style="fill:#000000;fill-opacity:1;stroke:#000000;stroke-width:1.54415;stroke-opacity:1"
       d="m 196.97132,225.61909 c 0,0 75.04859,-9.36273 128.15502,-0.20354 l -8.90407,-25.84928 -59.78448,-5.08844 -51.83441,12.21226 z"
       id="path6" /><path
       style="fill:#000000;fill-opacity:1;stroke:#000000;stroke-width:1.54172;stroke-opacity:1"
       d="m 197.18743,310.90463 c 0,0 52.15615,11.76729 127.21011,-0.40577 l -14.94718,21.70862 -75.37199,5.07211 z"
       id="path7" /><path
       style="display:inline;fill:none;stroke:#ffffff;stroke-width:6.19509;stroke-opacity:1"
       d="m 120.93252,269.3497 c 0,0 131.92637,104.04907 277.98772,0.39263"
       id="path14"
       transform="translate(-0.5918498,0.31929545)" /><path
       style="display:inline;fill:none;stroke:#ffffff;stroke-width:6.19509;stroke-opacity:1"
       d="m 101.97697,281.57847 c 0,0 145.93088,-137.1776 316.89056,1.44516"
       id="path15"
       transform="translate(-0.5918498,0.31929545)"
       sodipodi:nodetypes="cc" /></g><g
     id="g5-8-0"
     inkscape:label="level2"
     transform="translate(4.964127,-3.9058251)"
     style="display:none"><path
       style="display:inline;fill:#000000;fill-opacity:1;stroke:#ffffff;stroke-width:6.36819;stroke-opacity:1"
       d="m 94.037451,263.13129 c 0,0 -7.90087,7.17685 0,15.21951 0,0 63.999999,60.29268 130.926829,76.87805 0,0 49.21214,15.11724 104.78049,-13.07317 0,0 45.46341,-17.95122 93.65854,-61.07317 0,0 12.29268,-8.58537 0.39024,-19.90244 0,0 -48.39024,-48 -105.17073,-67.70732 0,0 -56.97561,-21.07317 -111.21951,-2.14634 0,0 -50.53659,13.46342 -113.365859,71.80488 z"
       id="path1-4"
       sodipodi:nodetypes="ccccccccc" /><path
       style="display:inline;fill:#ffffff;fill-opacity:1;stroke:#000000;stroke-width:4.84134;stroke-opacity:1"
       d="m 123.36733,264.58972 c 0,0 -11.9664,4.8233 -0.19616,8.74925 0,0 38.44943,19.6297 76.50654,27.70592 0,0 51.39669,14.69426 117.89854,0.44869 0,0 44.1384,-9.3101 77.68358,-27.25726 0,0 15.3013,-2.80425 -0.19619,-11.21698 0,0 -38.05709,-17.16198 -73.56397,-25.79905 0,0 -63.16695,-14.69425 -113.19045,-1.79473 0,0 -46.49245,8.63708 -84.94189,29.16416 z"
       id="path2-7-4" /><path
       style="display:inline;fill:#ffffff;fill-opacity:1;stroke:#000000;stroke-width:6.36819;stroke-opacity:1"
       id="path3-8-4"
       sodipodi:type="arc"
       sodipodi:cx="260.58536"
       sodipodi:cy="269.17075"
       sodipodi:rx="64.682922"
       sodipodi:ry="64.682922"
       sodipodi:start="6.2390891"
       sodipodi:end="6.2374553"
       sodipodi:open="true"
       sodipodi:arc-type="arc"
       d="m 325.2054,266.3194 a 64.682922,64.682922 0 0 1 -61.7423,67.47022 64.682922,64.682922 0 0 1 -67.49544,-61.71474 64.682922,64.682922 0 0 1 61.68717,-67.52064 64.682922,64.682922 0 0 1 67.54583,61.65959" /><path
       style="display:inline;fill:#000000;fill-opacity:1;stroke:#000000;stroke-width:6.36819;stroke-opacity:1"
       id="path4-8-6"
       sodipodi:type="arc"
       sodipodi:cx="260.78049"
       sodipodi:cy="269.7561"
       sodipodi:rx="23.707317"
       sodipodi:ry="23.707317"
       sodipodi:start="6.2390891"
       sodipodi:end="6.2374553"
       sodipodi:open="true"
       sodipodi:arc-type="arc"
       d="m 284.46476,268.71104 a 23.707317,23.707317 0 0 1 -22.62954,24.72891 23.707317,23.707317 0 0 1 -24.73814,-22.61944 23.707317,23.707317 0 0 1 22.60932,-24.74738 23.707317,23.707317 0 0 1 24.75662,22.59922" /><path
       style="fill:#000000;fill-opacity:1;stroke:#000000;stroke-width:1.923;stroke-opacity:1"
       d="m 213.28406,249.49654 c 0,0 1.62587,9.16397 5.91225,2.6605 0,0 5.0254,-13.89376 16.55427,-20.98845 0,0 7.09469,-7.3903 -3.84296,-5.76443 0,0 -18.03234,10.93765 -18.62356,24.09238 z"
       id="path5-7-9" /><path
       style="fill:#000000;fill-opacity:1;stroke:#000000;stroke-width:1.923;stroke-opacity:1"
       d="m 305.65596,292.3604 c 0,0 -1.09933,-9.24193 -5.75049,-2.99414 0,0 -5.81146,13.58375 -17.72706,20.00775 0,0 -7.50558,6.97263 3.50713,5.9747 0,0 18.62813,-9.88889 19.97042,-22.98831 z"
       id="path5-5-8-5" /><path
       style="fill:#000000;fill-opacity:1;stroke:#000000;stroke-width:1.76492;stroke-opacity:1"
       d="m 197.1498,237.42138 c 0,0 74.88006,-12.25894 127.86724,-0.26651 l -8.88407,-33.84532 -59.65023,-6.66247 -51.71802,15.98993 z"
       id="path6-8" /><path
       style="fill:#000000;fill-opacity:1;stroke:#000000;stroke-width:1.8381;stroke-opacity:1"
       d="m 197.37817,299.57186 c 0,0 52.00122,16.77633 126.83223,-0.5785 l -14.90278,30.94944 -75.1481,7.23118 z"
       id="path7-9" /><path
       style="display:inline;fill:none;stroke:#ffffff;stroke-width:6.19509;stroke-opacity:1"
       d="m 125.64417,264.2454 c 0,0 125.30234,85.03771 280.00172,-0.16474"
       id="path12"
       transform="translate(-4.964127,3.9058251)"
       sodipodi:nodetypes="cc" /><path
       style="display:inline;fill:none;stroke:#ffffff;stroke-width:6.19509;stroke-opacity:1"
       d="m 103.14162,276.67939 c 0,0 138.82912,-110.15556 325.01094,-0.89922"
       id="path13"
       transform="translate(-4.964127,3.9058251)"
       sodipodi:nodetypes="cc" /></g><g
     id="g5-8-0-5"
     inkscape:label="level3"
     transform="translate(5.4393746,-1.3141469)"
     style="display:none"><path
       style="display:inline;fill:#000000;fill-opacity:1;stroke:#ffffff;stroke-width:6.36819;stroke-opacity:1"
       d="m 95.418084,262.36966 c 0,0 -7.90087,7.17685 0,15.21951 0,0 63.999996,60.29268 130.926826,76.87805 0,0 49.21214,15.11724 104.78049,-13.07317 0,0 45.46341,-17.95122 93.65854,-61.07317 0,0 12.29268,-8.58537 0.39024,-19.90244 0,0 -48.39024,-48 -105.17073,-67.70732 0,0 -56.97561,-21.07317 -111.21951,-2.14634 0,0 -50.53659,13.46342 -113.365856,71.80488 z"
       id="path1-4-6"
       sodipodi:nodetypes="ccccccccc" /><path
       style="display:inline;fill:#ffffff;fill-opacity:1;stroke:#000000;stroke-width:3.91754;stroke-opacity:1"
       d="m 122.92351,263.86907 c 0,0 -12.00528,3.14796 -0.1968,5.71027 0,0 38.57433,12.81149 76.75505,18.08251 0,0 51.56365,9.59033 118.28152,0.29284 0,0 44.28178,-6.07632 77.93592,-17.78968 0,0 15.351,-1.83023 -0.19683,-7.32086 0,0 -38.18071,-11.20092 -73.80293,-16.83798 0,0 -63.37213,-8.62937 -113.55812,-0.21039 0,0 -46.64348,4.67611 -85.21781,18.07329 z"
       id="path2-7-4-7"
       sodipodi:nodetypes="ccccccccc" /><path
       style="display:inline;fill:#ffffff;fill-opacity:1;stroke:#000000;stroke-width:6.36819;stroke-opacity:1"
       id="path3-8-4-9"
       sodipodi:type="arc"
       sodipodi:cx="260.58536"
       sodipodi:cy="269.17075"
       sodipodi:rx="64.682922"
       sodipodi:ry="64.682922"
       sodipodi:start="6.2390891"
       sodipodi:end="6.2374553"
       sodipodi:open="true"
       sodipodi:arc-type="arc"
       d="m 325.2054,266.3194 a 64.682922,64.682922 0 0 1 -61.7423,67.47022 64.682922,64.682922 0 0 1 -67.49544,-61.71474 64.682922,64.682922 0 0 1 61.68717,-67.52064 64.682922,64.682922 0 0 1 67.54583,61.65959" /><path
       style="display:inline;fill:#000000;fill-opacity:1;stroke:#000000;stroke-width:6.36819;stroke-opacity:1"
       id="path4-8-6-2"
       sodipodi:type="arc"
       sodipodi:cx="260.78049"
       sodipodi:cy="269.7561"
       sodipodi:rx="23.707317"
       sodipodi:ry="23.707317"
       sodipodi:start="6.2390891"
       sodipodi:end="6.2374553"
       sodipodi:open="true"
       sodipodi:arc-type="arc"
       d="m 284.46476,268.71104 a 23.707317,23.707317 0 0 1 -22.62954,24.72891 23.707317,23.707317 0 0 1 -24.73814,-22.61944 23.707317,23.707317 0 0 1 22.60932,-24.74738 23.707317,23.707317 0 0 1 24.75662,22.59922" /><path
       style="fill:#000000;fill-opacity:1;stroke:#000000;stroke-width:1.923;stroke-opacity:1"
       d="m 213.28406,249.49654 c 0,0 1.62587,9.16397 5.91225,2.6605 0,0 5.0254,-13.89376 16.55427,-20.98845 0,0 7.09469,-7.3903 -3.84296,-5.76443 0,0 -18.03234,10.93765 -18.62356,24.09238 z"
       id="path5-7-9-0" /><path
       style="fill:#000000;fill-opacity:1;stroke:#000000;stroke-width:1.923;stroke-opacity:1"
       d="m 305.65596,292.3604 c 0,0 -1.09933,-9.24193 -5.75049,-2.99414 0,0 -5.81146,13.58375 -17.72706,20.00775 0,0 -7.50558,6.97263 3.50713,5.9747 0,0 18.62813,-9.88889 19.97042,-22.98831 z"
       id="path5-5-8-5-9" /><path
       style="fill:#000000;fill-opacity:1;stroke:#000000;stroke-width:1.97234;stroke-opacity:1"
       d="m 193.11673,251.6386 c 0,0 74.72704,-15.34105 127.60594,-0.33351 l -8.86591,-42.35462 -59.52834,-8.33753 -51.61233,20.01007 z"
       id="path6-8-1" /><path
       style="fill:#000000;fill-opacity:1;stroke:#000000;stroke-width:2.11782;stroke-opacity:1"
       d="m 197.55461,287.00735 c 0,0 51.85767,22.33252 126.48212,-0.7701 l -14.86164,41.19966 -74.94066,9.62609 z"
       id="path7-9-3" /><path
       style="display:inline;fill:none;stroke:#ffffff;stroke-width:6.19509;stroke-opacity:1"
       d="m 125.83636,265.21462 c 0,0 126.8359,60.8987 279.06552,0.0824"
       id="path10"
       transform="translate(-5.4393746,1.3141469)"
       sodipodi:nodetypes="cc" /><path
       style="display:inline;fill:none;stroke:#ffffff;stroke-width:6.19509;stroke-opacity:1"
       d="m 99.839892,273.10309 c 0,0 165.076508,-60.73869 333.459518,1.56232"
       id="path11"
       transform="translate(-5.4393746,1.3141469)"
       sodipodi:nodetypes="cc" /></g><g
     id="g5-8-0-5-0"
     inkscape:label="level4"
     transform="translate(4.3367963,-2.8095895)"
     style="display:none"><path
       style="display:inline;fill:#000000;fill-opacity:1;stroke:#ffffff;stroke-width:6.36819;stroke-opacity:1"
       d="m 92.781829,263.39531 c 0,0 -7.90087,7.17685 0,15.21951 0,0 64.000001,60.29268 130.926831,76.87805 0,0 49.21214,15.11724 104.78049,-13.07317 0,0 45.46341,-17.95122 93.65854,-61.07317 0,0 12.29268,-8.58537 0.39024,-19.90244 0,0 -48.39024,-48 -105.17073,-67.70732 0,0 -56.97561,-21.07317 -111.21951,-2.14634 0,0 -50.53659,13.46342 -113.365861,71.80488 z"
       id="path1-4-6-4"
       sodipodi:nodetypes="ccccccccc" /><path
       style="display:inline;fill:#ffffff;fill-opacity:1;stroke:#000000;stroke-width:2.39967;stroke-opacity:1"
       d="m 122.19726,267.06145 c 0,0 -12.06888,1.17492 -0.19784,2.13126 0,0 38.7787,4.78168 77.16171,6.749 0,0 51.83685,3.57944 118.9082,0.1093 0,0 44.51639,-2.26789 78.34884,-6.63971 0,0 15.43233,-0.6831 -0.19788,-2.73239 0,0 -38.38299,-4.18056 -74.19395,-6.2845 0,0 -63.70789,-3.57943 -114.15977,-0.43718 0,0 -46.8906,2.10394 -85.66931,7.10422 z"
       id="path2-7-4-7-9" /><path
       style="display:inline;fill:#ffffff;fill-opacity:1;stroke:#000000;stroke-width:6.36819;stroke-opacity:1"
       id="path3-8-4-9-2"
       sodipodi:type="arc"
       sodipodi:cx="260.58536"
       sodipodi:cy="269.17075"
       sodipodi:rx="64.682922"
       sodipodi:ry="64.682922"
       sodipodi:start="6.2390891"
       sodipodi:end="6.2374553"
       sodipodi:open="true"
       sodipodi:arc-type="arc"
       d="m 325.2054,266.3194 a 64.682922,64.682922 0 0 1 -61.7423,67.47022 64.682922,64.682922 0 0 1 -67.49544,-61.71474 64.682922,64.682922 0 0 1 61.68717,-67.52064 64.682922,64.682922 0 0 1 67.54583,61.65959" /><path
       style="display:inline;fill:#000000;fill-opacity:1;stroke:#000000;stroke-width:6.36819;stroke-opacity:1"
       id="path4-8-6-2-7"
       sodipodi:type="arc"
       sodipodi:cx="260.78049"
       sodipodi:cy="269.7561"
       sodipodi:rx="23.707317"
       sodipodi:ry="23.707317"
       sodipodi:start="6.2390891"
       sodipodi:end="6.2374553"
       sodipodi:open="true"
       sodipodi:arc-type="arc"
       d="m 284.46476,268.71104 a 23.707317,23.707317 0 0 1 -22.62954,24.72891 23.707317,23.707317 0 0 1 -24.73814,-22.61944 23.707317,23.707317 0 0 1 22.60932,-24.74738 23.707317,23.707317 0 0 1 24.75662,22.59922" /><path
       style="fill:#000000;fill-opacity:1;stroke:#000000;stroke-width:1.923;stroke-opacity:1"
       d="m 213.28406,249.49654 c 0,0 1.62587,9.16397 5.91225,2.6605 0,0 5.0254,-13.89376 16.55427,-20.98845 0,0 7.09469,-7.3903 -3.84296,-5.76443 0,0 -18.03234,10.93765 -18.62356,24.09238 z"
       id="path5-7-9-0-2" /><path
       style="fill:#000000;fill-opacity:1;stroke:#000000;stroke-width:1.923;stroke-opacity:1"
       d="m 305.65596,292.3604 c 0,0 -1.09933,-9.24193 -5.75049,-2.99414 0,0 -5.81146,13.58375 -17.72706,20.00775 0,0 -7.50558,6.97263 3.50713,5.9747 0,0 18.62813,-9.88889 19.97042,-22.98831 z"
       id="path5-5-8-5-9-1" /><path
       style="fill:#000000;fill-opacity:1;stroke:#000000;stroke-width:2.19714;stroke-opacity:1"
       d="m 196.9725,260.60663 c 0,0 72.66246,-4.50486 127.3266,1.48622 l -8.8465,-52.67493 -59.39803,-10.36909 -51.49935,24.88581 z"
       id="path6-8-1-2"
       sodipodi:nodetypes="cccccc" /><path
       style="fill:#000000;fill-opacity:1;stroke:#000000;stroke-width:2.33045;stroke-opacity:1"
       d="m 196.15436,275.9266 c 0,0 56.45761,5.26051 127.69424,-0.61842 l -14.81793,50.03524 -87.39349,13.59147 z"
       id="path7-9-3-8"
       sodipodi:nodetypes="ccccc" /><path
       style="display:inline;fill:none;stroke:#ffffff;stroke-width:6.19509;stroke-opacity:1"
       d="m 125.65421,264.44177 c 0,0 132.24402,25.84229 278.07667,-0.28552"
       id="path8"
       transform="translate(-4.3367963,2.8095895)"
       sodipodi:nodetypes="cc" /><path
       style="display:inline;fill:none;stroke:#ffffff;stroke-width:6.19508;stroke-opacity:1"
       d="m 95.552445,269.95901 c 0,0 126.155775,-31.72222 335.131905,-2.24548"
       id="path9"
       transform="translate(-4.3367963,2.8095895)"
       sodipodi:nodetypes="cc" /></g></svg>
